<?xml version="1.0" encoding="utf-8"?>
<!-- Generator: Adobe Illustrator 16.0.0, SVG Export Plug-In . SVG Version: 6.00 Build 0)  -->
<!DOCTYPE svg PUBLIC "-//W3C//DTD SVG 1.1//EN" "http://www.w3.org/Graphics/SVG/1.1/DTD/svg11.dtd">
<svg version="1.1" id="Layer_1" xmlns="http://www.w3.org/2000/svg" xmlns:xlink="http://www.w3.org/1999/xlink" x="0px" y="0px"
	 width="100px" height="60px" viewBox="0 0 100 60" enable-background="new 0 0 100 60" xml:space="preserve">
<g>
	<g>
		<rect fill="#060912" width="20" height="20"/>
	</g>
	<g>
		<path fill="#0AE0E5" d="M14.445,3.674v7.399c0,3.106-1.438,5.253-4.489,5.253c-2.29,0-4.171-1.738-4.401-3.957l2.183-0.213
			c0.23,1.047,1.012,1.792,2.147,1.792c1.242,0,2.005-0.94,2.005-2.147V3.674H14.445z"/>
	</g>
	<g>
		<rect x="20" y="20" fill="#060912" width="20" height="20"/>
	</g>
	<g>
		<path fill="#0AE0E5" d="M35.537,31.162c0,2.875-1.917,5.165-5.555,5.165c-3.62,0-5.52-2.271-5.52-5.165v-7.488h2.484v6.832
			c0,2.36,1.048,3.479,3.035,3.479c2.022,0,3.07-1.137,3.07-3.479v-6.832h2.484V31.162z"/>
	</g>
	<g>
		<rect x="40" y="20" fill="#060912" width="20" height="20"/>
	</g>
	<g>
		<path fill="#0AE0E5" d="M55.625,23.744v12.512h-1.242l-7.471-7.88v7.88h-2.538V23.744h1.242l7.455,7.879v-7.879H55.625z"/>
	</g>
	<g>
		<g>
			<rect x="60" fill="#060912" width="20" height="20"/>
		</g>
		<g>
			<path fill="#0AE0E5" d="M71.278,16.256h-2.555V3.744h2.555V16.256z"/>
		</g>
	</g>
	<g>
		<g>
			<rect x="60" y="40" fill="#060912" width="20" height="20"/>
		</g>
		<g>
			<path fill="#0AE0E5" d="M76.655,50c0,3.531-2.963,6.389-6.654,6.389c-3.674,0-6.656-2.857-6.656-6.389s2.982-6.389,6.656-6.389
				C73.692,43.612,76.655,46.469,76.655,50z M74.065,50c0-2.201-1.828-4.012-4.064-4.012S65.954,47.799,65.954,50
				c0,2.219,1.811,4.01,4.047,4.01S74.065,52.219,74.065,50z"/>
		</g>
	</g>
	<g>
		<rect x="80" y="20" fill="#060912" width="20" height="20"/>
	</g>
	<g>
		<path fill="#0AE0E5" d="M89.948,33.026c-0.143,0.018-0.32,0.018-0.48,0.018h-2.324v3.213h-2.539V23.744h5.52
			c3.656,0,4.898,2.165,4.898,4.508c0,2.147-0.887,3.567-2.537,4.276l2.91,3.729H92.36L89.948,33.026z M87.143,30.949h2.236
			c2.023,0,2.98-1.029,2.98-2.502c0-1.296-0.674-2.502-2.645-2.502h-2.572V30.949z"/>
	</g>
</g>
<g>
	<g>
		<rect x="-1447.259" y="772.078" fill="#58595B" width="119.463" height="119.463"/>
		<text transform="matrix(1 0 0 1 -1418.1611 860.3501)" fill="#FFFFFF" font-family="'ZonaPro-Bold'" font-size="106">J</text>
	</g>
	<g>
		<rect x="-1327.796" y="891.541" fill="#58595B" width="119.463" height="119.463"/>
		<text transform="matrix(1 0 0 1 -1308.1846 983.7603)" fill="#FFFFFF" font-family="'ZonaPro-Bold'" font-size="106">U</text>
	</g>
	<g>
		<rect x="-1208.333" y="891.539" fill="#58595B" width="119.463" height="119.463"/>
		<text transform="matrix(1 0 0 1 -1189.9404 979.811)" fill="#FFFFFF" font-family="'ZonaPro-Bold'" font-size="106">N</text>
	</g>
	<g>
		<rect x="-1088.87" y="891.54" fill="#58595B" width="119.462" height="119.463"/>
		<text transform="matrix(1 0 0 1 -1044.7734 979.811)" fill="#FFFFFF" font-family="'ZonaPro-Bold'" font-size="106">I</text>
	</g>
	<g>
		<rect x="-969.407" y="772.078" fill="#58595B" width="119.463" height="119.463"/>
		<text transform="matrix(1 0 0 1 -954.1958 860.3491)" fill="#FFFFFF" font-family="'ZonaPro-Bold'" font-size="106">O</text>
	</g>
	<g>
		<rect x="-849.944" y="891.541" fill="#58595B" width="119.463" height="119.463"/>
		<text transform="matrix(1 0 0 1 -827.4717 979.813)" fill="#FFFFFF" font-family="'ZonaPro-Bold'" font-size="106">R</text>
	</g>
</g>
<g>
	<rect x="632.555" y="727.86" fill="#060912" width="151" height="151"/>
	<g>
		<path fill="#0AE0E5" d="M738.34,755.591v55.879c0,23.446-10.857,39.658-33.898,39.658c-17.289,0-31.482-13.134-33.233-29.889
			l16.479-1.604c1.751,7.907,7.641,13.529,16.221,13.529c9.373,0,15.134-7.097,15.134-16.202v-61.372H738.34z"/>
	</g>
</g>
</svg>
