<svg xmlns="http://www.w3.org/2000/svg" viewBox="0 0 272.03 156.41"><defs><style>.cls-1{fill:#1a1a1a;}.cls-2{fill:#fff;}</style></defs><title>Ativo 1</title><g id="Camada_2" data-name="Camada 2"><g id="Camada_1-2" data-name="Camada 1"><path class="cls-1" d="M266.94,75.91a7,7,0,0,0-5.88-2.78A5.6,5.6,0,0,0,256.19,76l-.06.12-.06.13a41.75,41.75,0,0,1-4.53,7.8,36.49,36.49,0,0,1-4,4.67c.34-.86.83-2,1.45-3.3.74-1.6,1.55-3.3,2.4-5s1.76-3.6,2.68-5.44l2.52-5c.79-1.58,1.4-2.83,1.87-3.84.75-1.61,1.11-2.44,1-3.56a6.5,6.5,0,0,0-1.75-3.93,9.42,9.42,0,0,0-3-2.15,11,11,0,0,0-3.7-1,11.48,11.48,0,0,0-1.78,0,11.73,11.73,0,0,0-2.17.36l-.18,0-.17.06a11.83,11.83,0,0,0-2.37,1.27c-.64.42-1.3.9-2,1.43q2.17-4.1,4.34-7.94a36.19,36.19,0,0,1,2.68-4.12c.67-.88,1.56-2,1.94-2.57l3-4.12L249.58,38a18.07,18.07,0,0,0-3.47-.88,14.66,14.66,0,0,0-3.35-.14c-.39,0-.78.07-1.18.13a15,15,0,0,0-4.76,1.58,12.81,12.81,0,0,0-4.51,4.05,38.46,38.46,0,0,0-2.46,4.09c-.92,1.7-1.88,3.53-2.84,5.45s-1.87,3.74-2.66,5.36-1.38,2.86-1.68,3.52c-1.16,2.51-2.34,5-3.52,7.52a10.92,10.92,0,0,0-1.45-5l0,0,0,0a9.66,9.66,0,0,0-5-4A10.64,10.64,0,0,0,208.2,59a12.79,12.79,0,0,0-2.18.35l-.29.07-.27.11-.72.28-.49.19-.83,0c-.35,0-.7.06-1,.12a18.68,18.68,0,0,0-2.66.62,20.56,20.56,0,0,0-3.2,1.33,9.5,9.5,0,0,0-.35-1.81,9.38,9.38,0,0,0-2.95-4.66A10.64,10.64,0,0,0,190,53.7a6.86,6.86,0,0,0-.29-4.14l0-.09,0-.08a6.82,6.82,0,0,0-2.09-2.61,10.5,10.5,0,0,0-2.78-1.61,11.35,11.35,0,0,0-3.13-.74,7.18,7.18,0,0,0-1.11,0,5.86,5.86,0,0,0-3.47,1.41l-.06.05-.06.06a8.66,8.66,0,0,0-2.23,3.41,16.67,16.67,0,0,1-.72,1.71l0,.07,0,.08-1.25,2.85a41.46,41.46,0,0,0-4.6,1.21,15.1,15.1,0,0,0-5.44,3.09,9.67,9.67,0,0,0-2,2.47,12.38,12.38,0,0,0-1.25,3,11.69,11.69,0,0,0-.29,1.47,10.58,10.58,0,0,0-4.44-1.79,18.28,18.28,0,0,0-4.57-.25,21.64,21.64,0,0,0-4.77.9,32,32,0,0,0-7.9,3.54,28.36,28.36,0,0,0-6.3,5.55,37.49,37.49,0,0,0-3.72,5.22,17.13,17.13,0,0,0,.4-1.94v-.11a15,15,0,0,0-.48-5.89,10.15,10.15,0,0,0-3.76-5.49,8.89,8.89,0,0,0-5.32-1.92c-.3,0-.59,0-.88,0a8.53,8.53,0,0,0-3.54,1,10.34,10.34,0,0,0-1.46.32q-.61.18-1.21.39A42.36,42.36,0,0,0,113,60.82a11.74,11.74,0,0,0,1-5.62,9.46,9.46,0,0,0-1.16-3.94l-.09-.15-.1-.14a9.52,9.52,0,0,0-3-2.73A18,18,0,0,0,107.14,47L107,47l-.12,0a14.4,14.4,0,0,0-3.14-.58l-2.68-.19L100,48.63c-.79,1.71-1.51,3.35-2.13,4.87l-1,2.22-.71,1.64c-.62,1.44-1,2.19-1.2,2.57l0,.06,0,.06-3.2,6.47A4,4,0,0,0,90,67.2l-.62.12c-4.24.75-8.73,1.79-14,3.25a103.29,103.29,0,0,0-16.85-6.67,37.55,37.55,0,0,1-6.76-2.55c-1.53-1-4.76-3.06-.95-10.8A86.17,86.17,0,0,1,59.32,38.3l.07-.08.06-.08A111.75,111.75,0,0,1,71.59,26.86c3.64-2.78,5.8-3.72,6.86-4a15,15,0,0,1-2.28,4.33c-2.1,3.09-4.86,6.37-7.07,9-1.32,1.57-2.36,2.82-3,3.74l-.21.29-.15.32a14,14,0,0,1-2.12,2.44l-.11.1-.1.11a25.3,25.3,0,0,1-2,2L59,47.39l1.79,2.76c1.09,1.66,3.39,3.49,11.6,2.92,1.07-.07,2.17-.19,3.27-.34,7.68-.8,12.64-2.42,14.76-4.81l.23-.25a69.82,69.82,0,0,0,8.21-10.29c5.23-8.24,7.09-14.93,5.68-20.45A15.92,15.92,0,0,0,94.3,5.19l0,0,0,0A26.7,26.7,0,0,0,83.72,4c-8,.56-16.66,3.72-21.65,6.26A72.47,72.47,0,0,0,42.66,24.81,68.59,68.59,0,0,0,27.51,47.47c-2.82,6.85-3.66,13-2.5,18.34,1.53,7.14,6.3,12.5,14.57,16.37q1,.48,2.1.91c-7.5,4-17.73,10.91-22.1,20-4.17,8.81-2.85,17,3.53,21.8l.55.41A48.87,48.87,0,0,0,15,130a42,42,0,0,0-8,7,30.46,30.46,0,0,0-5.78,9.68l0,.06,0,.06a33,33,0,0,0-1,3.57c-.75,3.68,1.55,5.16,2.27,5.53a4.72,4.72,0,0,0,2.49.48,7.83,7.83,0,0,0,2.3-.57c.79-.31,1.92-.77,3.45-1.41a125.1,125.1,0,0,1,21-6.44c8.68-2,18.66-3.79,29.67-5.38s23.24-3.06,36.2-4.33c12.33-1.21,25.33-2.3,38.64-3.23l2.17-.15c14.08-1,28.73-1.8,43.55-2.49s29.62-1.28,44.35-1.79c1.11,0,2.21-.1,3.29-.17a82.69,82.69,0,0,0,10.21-1.33,43.66,43.66,0,0,0,12.11-4.24,34.18,34.18,0,0,0,9.91-8,38.39,38.39,0,0,0,6.86-12.46,47.49,47.49,0,0,0,2.1-7.92,37.86,37.86,0,0,0,.56-7.65,27.11,27.11,0,0,0-1.1-7A15.58,15.58,0,0,0,266.94,75.91ZM85.73,116.09l2.43-.07,1-2.21q.44-1,1.21-2.74t1.52-3.54q.76-1.79,1.37-3.28c.52-1.27.69-1.61.7-1.64l0,0v0q.36-.76.74-1.51a22.55,22.55,0,0,0,.77,3.51,20.23,20.23,0,0,0,1.87,4.27,14.33,14.33,0,0,0,3.33,3.9,12.66,12.66,0,0,0,4.71,2.59l-3.43.13c-8.62.34-17,.79-24.91,1.35l-1.84.13q-3.66.27-7.2.57a62.5,62.5,0,0,0,8.13-8.58,9.2,9.2,0,0,0,3.38,5A9.48,9.48,0,0,0,85.73,116.09Zm30.12-1.9a25.36,25.36,0,0,0,6.74-5.15q1.47-1.57,2.78-3.2a18.37,18.37,0,0,0,6.37,6.15l.05,0,.05,0a14.35,14.35,0,0,0,8,1.69,19.42,19.42,0,0,0,5.29-1.18,37,37,0,0,0,12.71-8.38h0a11.2,11.2,0,0,0,2.17,2.95,9.54,9.54,0,0,0,5.28,2.66,14.41,14.41,0,0,0,3.63.21,15.14,15.14,0,0,0,3.27-.6,15.82,15.82,0,0,0,5.75-3,30.08,30.08,0,0,0,4.61-4.57l.56-.7a13.33,13.33,0,0,0,6.47,5.54,15.82,15.82,0,0,0,7.05,1,21.55,21.55,0,0,0,3.69-.6,25.69,25.69,0,0,0,7.82-3.51l.05.09a10.18,10.18,0,0,0,1.57,2,8.67,8.67,0,0,0,2.47,1.72,7.25,7.25,0,0,0,3.6.65l2.07-.14,1-1.8a116.86,116.86,0,0,1,6.85-10.59c1.55-2.14,3.08-4.18,4.56-6.11-.09.59-.15,1.2-.19,1.81a16.78,16.78,0,0,0,.44,5.19,12.38,12.38,0,0,0,2.49,5,10.81,10.81,0,0,0,5.29,3.41,10.44,10.44,0,0,0,3.65.47l.51,0a18.27,18.27,0,0,0,2.83-.43,16.72,16.72,0,0,0,3.25-1.11,10.25,10.25,0,0,0,2.9-1.95,47,47,0,0,0,8.12-9.45l.54-.83q-.11,1.19-.33,2.46a32,32,0,0,1-1.81,6.26,14.33,14.33,0,0,1-4.84,6.31,26.49,26.49,0,0,1-7.73,3.81A45.25,45.25,0,0,1,236.2,112c-1.95.17-3.84.32-5.64.45q-2,.14-3.86.24c-5.23.27-11.49.48-18.59.64s-15.1.29-23.35.4l-26.49.33c-9.26.11-18.71.28-28.11.49-5.45.12-10.9.27-16.31.44A15.31,15.31,0,0,0,115.85,114.18Zm96.4-30.5a25.85,25.85,0,0,1-1.78,2.44,26.63,26.63,0,0,1-5.45,5,14.28,14.28,0,0,1-4.2,2.07,6.77,6.77,0,0,1-1.33.25,3,3,0,0,1-1.07-.09c-.15,0-.35-.11-.6-.64-.07-.16-.41-1,.05-3.38l0-.08v-.08a23.14,23.14,0,0,1,1.39-5l.06-.15,2.13.66a14.43,14.43,0,0,0,5.29.6l.35,0a11.65,11.65,0,0,0,5.18-1.67Zm-30.53-1.45a51.35,51.35,0,0,1-2.32,4.71,38.49,38.49,0,0,1-2.86,4.33A29.55,29.55,0,0,1,174,94.14c.15-.48.33-1,.56-1.61.54-1.42,1.06-2.75,1.56-3.92L177.17,86l6.05-14.77V71.2L184.1,69l2.49-.49c.89-.16,1.78-.35,2.65-.55a37.42,37.42,0,0,0-5.17,7.94A36.69,36.69,0,0,0,181.71,82.23Zm-25.9,7.64a26.26,26.26,0,0,1-5,5.47,21,21,0,0,1-6.29,3.41,8.39,8.39,0,0,1-1.73.34,2.93,2.93,0,0,1-1.36-.16c-.17-.08-.62-.27-1-1.47a7.77,7.77,0,0,1-.16-2.79c.36,0,.72-.08,1.07-.14a30.58,30.58,0,0,0,16.39-8l.47-.46C157.48,87.35,156.68,88.63,155.81,89.88Zm-72-7.45.3-.08-.2.44Zm80.06-9.54-.41.86q0-.42,0-.83l.29,0ZM123.37,88.14c-.07.29-.14.57-.2.85-.54,1-1.05,2-1.56,2.85a45.53,45.53,0,0,1-3.88,5.57l0,0,0,0a15,15,0,0,1-1.48,1.6,13.56,13.56,0,0,1-1.85,1.47,6,6,0,0,1-1.29.65,17.61,17.61,0,0,1-1-3.07c-.25-1-.44-2.06-.57-3,.75-.3,1.48-.62,2.19-.93l.12-.05.12-.06a32.32,32.32,0,0,0,4.55-2.95,27.31,27.31,0,0,0,4.2-4,26.78,26.78,0,0,0,1.75-2.31Q123.82,86.43,123.37,88.14ZM58.22,98.37A21.29,21.29,0,0,1,43,112.43a16.57,16.57,0,0,1-2.46.36c-3.2.22-5-.67-5.39-1.32s-.07-1.92.8-3.45c2.35-4.09,9.37-9.27,19.24-14.19h0c1.05-.54,2.18-1.09,3.42-1.64A12.83,12.83,0,0,1,58.22,98.37Z"/><path class="cls-1" d="M5.47,150.51A2.79,2.79,0,0,1,4,150.24c-.66-.34-1.69-1.22-1.25-3.4a31.38,31.38,0,0,1,1-3.35,28.6,28.6,0,0,1,5.43-9.12,40,40,0,0,1,7.66-6.72,46.84,46.84,0,0,1,8.54-4.55q1.87-.75,3.61-1.34a17.57,17.57,0,0,1-4-2.31c-5.67-4.3-6.75-11.38-3-19.41C27,89.69,40,82.29,47.14,78.9c-2-.74-4.07-1.52-6-2.42-4.91-2.3-11.65-6.35-13.51-15-1.07-4.93-.26-10.72,2.42-17.21a66.6,66.6,0,0,1,14.76-22A70.43,70.43,0,0,1,63.64,8.09,59.86,59.86,0,0,1,84.55,2a24.78,24.78,0,0,1,9.73,1,13.91,13.91,0,0,1,9,10.42c1.26,4.88-.57,11.26-5.44,18.93a68.31,68.31,0,0,1-8,10l-.25.27c-2.28,2.64-9.48,3.75-13.57,4.17-1,.14-2.09.25-3.14.33-8.13.57-9.42-1.4-9.84-2l-.9-1.37,1.2-1.12a26.88,26.88,0,0,0,2.17-2.17l.1-.11a13.92,13.92,0,0,0,2.51-3l.08-.16.1-.14c.63-.87,1.66-2.09,3-3.64,2.24-2.67,5-6,7.17-9.14,3.06-4.44,2.9-6.28,2.54-7-.14-.29-.31-.62-1.23-.56-1.87.13-5,1.81-8.7,4.62A109.26,109.26,0,0,0,58.59,33l-.06.08a88,88,0,0,0-8.8,12.61c-4.12,8.32-1,11.59,1.66,13.32a37.15,37.15,0,0,0,7.2,2.75,99.68,99.68,0,0,1,17.22,6.9c5.54-1.55,10.19-2.64,14.57-3.41.54-.1.91-.17,1.15-.23a2.11,2.11,0,0,1,1.4-.59l.71,0L97.33,57c.35-.65.78-1.57,1.3-2.77l1.69-3.89c.61-1.48,1.32-3.1,2.1-4.8l.56-1.22,1.34.1a12.53,12.53,0,0,1,2.72.5l.11,0A16.09,16.09,0,0,1,109.43,46a7.58,7.58,0,0,1,2.41,2.18l.05.07,0,.07a7.6,7.6,0,0,1,.89,3.14,9.91,9.91,0,0,1-.91,4.72,40.15,40.15,0,0,1-2,4.39c-.73,1.35-1.43,2.71-2.09,4.06l-.58,1.12q.75-.57,1.49-1.07a10.73,10.73,0,0,1,1.1-.68,15.39,15.39,0,0,1,1.81-.85c.65-.26,1.32-.49,2-.7a7.86,7.86,0,0,1,1.54-.3,6.61,6.61,0,0,1,3.05-1q.34,0,.69,0a6.87,6.87,0,0,1,4.23,1.55,8.18,8.18,0,0,1,3,4.45,13.1,13.1,0,0,1,.42,5.13,16,16,0,0,1-1.69,5.14,24.57,24.57,0,0,1-3,4.45,25.37,25.37,0,0,1-3.9,3.73,30.41,30.41,0,0,1-4.28,2.77l-.12.06q-1.17.52-2.34,1-.57.23-1.16.43c0,.27.05.61.1,1a32.84,32.84,0,0,0,.67,3.75A19.56,19.56,0,0,0,112,98c.42,1,.75,1.12.75,1.12a1.71,1.71,0,0,0,.79.13,2.34,2.34,0,0,0,.49-.09,7.7,7.7,0,0,0,2.1-1,15.49,15.49,0,0,0,2.11-1.68,17.07,17.07,0,0,0,1.67-1.81A47.68,47.68,0,0,0,124,88.88c.57-1,1.14-2,1.74-3.18.07-.34.14-.67.23-1a36,36,0,0,1,2.87-7.43,35.61,35.61,0,0,1,4.48-6.66,26.43,26.43,0,0,1,5.87-5.17,30.14,30.14,0,0,1,7.42-3.32,19.69,19.69,0,0,1,4.34-.82,16.33,16.33,0,0,1,4.12.22,8.52,8.52,0,0,1,3.85,1.62,8.33,8.33,0,0,1,2.45,3,9,9,0,0,1,.86,3.73,12.82,12.82,0,0,1-.51,3.79,17,17,0,0,1-4.61,7.53,28.63,28.63,0,0,1-15.36,7.51c-.42.07-.91.13-1.4.16l-.68,0h-.39a11.8,11.8,0,0,0,0,5.18,3.84,3.84,0,0,0,2,2.71,4.8,4.8,0,0,0,2.28.32,10.35,10.35,0,0,0,2.14-.41,23,23,0,0,0,7-3.76A28.1,28.1,0,0,0,158.11,87a46.93,46.93,0,0,0,3.41-5.72l.11-.31a90,90,0,0,1,3.74-9.22l2.53-5.33-.8.14c-1.39.25-2.32.39-2.85.43l-1.2.09-.62-1a5.91,5.91,0,0,1-.79-2.86,9.55,9.55,0,0,1,.32-2.81A10.41,10.41,0,0,1,163,57.87a7.77,7.77,0,0,1,1.6-2,13.11,13.11,0,0,1,4.74-2.69A38.82,38.82,0,0,1,174.07,52l.11,0h.11l.42,0L176.39,48a19.51,19.51,0,0,0,.84-2A6.73,6.73,0,0,1,179,43.4a3.92,3.92,0,0,1,2.39-1,5.14,5.14,0,0,1,.79,0,9.43,9.43,0,0,1,2.59.61A8.56,8.56,0,0,1,187,44.33a4.64,4.64,0,0,1,1.72,5.19c-.16.48-.36,1-.59,1.58l.59.1a8.79,8.79,0,0,1,3.91,1.94A7.48,7.48,0,0,1,195,56.85a4.09,4.09,0,0,1,0,3,3.57,3.57,0,0,1-2.54,1.59L190,62c-1,.24-2,.46-3.07.66l-2.68.53-.87.18-1.24,3.15-6.06,14.79L175,83.91c-.51,1.2-1,2.55-1.6,4-1.33,3.6-1.43,5.19-1.37,5.82a2.94,2.94,0,0,0,.08.49,5.7,5.7,0,0,0,2.19-1.17,25.29,25.29,0,0,0,4.48-4.56,40.42,40.42,0,0,0,3-4.55,53.47,53.47,0,0,0,2.47-5,34.8,34.8,0,0,1,2.27-6.1,35.37,35.37,0,0,1,5.36-8.06A24.51,24.51,0,0,1,196,61.14a18.56,18.56,0,0,1,5-2.47,16.78,16.78,0,0,1,2.4-.56c.29,0,.59-.08.89-.1s.74,0,1.12,0a5.47,5.47,0,0,1,.69-.3l.84-.32.14-.06.14,0A10.79,10.79,0,0,1,209,57a8.7,8.7,0,0,1,3.66.51,7.75,7.75,0,0,1,4,3.22,9.15,9.15,0,0,1,1.21,4.46,17.07,17.07,0,0,1-2.46,9.23,10.23,10.23,0,0,1-3.28,3.43,9.54,9.54,0,0,1-4.53,1.51l-.3,0a12.49,12.49,0,0,1-4.58-.52L200,78l1.81-2.23a18.8,18.8,0,0,0,2-3.07,25.35,25.35,0,0,0,1.57-3.61q.27-.8.47-1.55-.31.32-.59.64a30.09,30.09,0,0,0-4.49,6.12,34.33,34.33,0,0,0-2.56,5.17,25.1,25.1,0,0,0-1.51,5.47c-.52,2.65-.24,4,.09,4.67a2.87,2.87,0,0,0,1.78,1.66,4.86,4.86,0,0,0,1.78.18,8.71,8.71,0,0,0,1.72-.31,16.16,16.16,0,0,0,4.76-2.33,28.31,28.31,0,0,0,7.86-8.14l1-2.37c1.53-3.44,3.12-6.89,4.74-10.25s3.15-6.62,4.71-10c.29-.63.84-1.79,1.65-3.46s1.69-3.43,2.65-5.33,1.91-3.72,2.82-5.4A36.39,36.39,0,0,1,234.6,40a10.85,10.85,0,0,1,3.82-3.45,13,13,0,0,1,4.14-1.38c.35-.05.69-.09,1-.11a12.67,12.67,0,0,1,2.9.12,16.41,16.41,0,0,1,3.1.78l2.38.89-1.49,2.06q-.39.54-1.91,2.53a38.18,38.18,0,0,0-2.83,4.35c-2.89,5.12-5.81,10.63-8.69,16.38l-1,2.07c1.27-1.45,2.59-2.84,3.94-4.17.48-.49,1.1-1.08,1.8-1.7s1.42-1.24,2.15-1.84,1.51-1.18,2.23-1.65a10,10,0,0,1,2-1.07l.09,0,.09,0a9.81,9.81,0,0,1,1.81-.3,9.52,9.52,0,0,1,1.47,0,9,9,0,0,1,3,.8,7.49,7.49,0,0,1,2.38,1.7,4.52,4.52,0,0,1,1.25,2.75c0,.56-.1,1-.85,2.6q-.7,1.5-1.85,3.78l-2.52,5q-1.39,2.77-2.69,5.46t-2.42,5.08c-.72,1.57-1.27,2.83-1.64,3.77a8,8,0,0,0-.79,3.26,2,2,0,0,0,.21,1h0a1.47,1.47,0,0,0,.25,0h.13a3.77,3.77,0,0,0,1.79-1,35.3,35.3,0,0,0,5.95-6.45,43.68,43.68,0,0,0,4.74-8.16l.06-.12a3.69,3.69,0,0,1,3.28-1.82,5.23,5.23,0,0,1,4.31,2.14A13.61,13.61,0,0,1,269,78.49a25.19,25.19,0,0,1,1,6.46,35.89,35.89,0,0,1-.53,7.26,45.68,45.68,0,0,1-2,7.63A36.43,36.43,0,0,1,261,111.66a32.25,32.25,0,0,1-9.35,7.54,41.72,41.72,0,0,1-11.57,4,80.66,80.66,0,0,1-10,1.3q-1.59.11-3.22.17c-14.74.51-29.67,1.11-44.37,1.79S153,128,138.95,129l-2.17.15c-13.33.93-26.34,2-38.7,3.23-13,1.27-25.2,2.74-36.29,4.34S40.71,140.15,32,142.14a126.92,126.92,0,0,0-21.34,6.53c-1.5.62-2.64,1.09-3.43,1.4A6,6,0,0,1,5.47,150.51ZM77.9,114.8c7.89-.55,16.25-1,24.85-1.34,9.23-.37,18.7-.66,28.16-.87s18.84-.37,28.09-.49l26.49-.33c8.25-.1,16.12-.24,23.37-.4s13.4-.37,18.66-.64q1.86-.1,3.88-.24,2.71-.19,5.67-.45a47.17,47.17,0,0,0,9.64-1.86,28.44,28.44,0,0,0,8.29-4.09,16.45,16.45,0,0,0,5.51-7.16,33.88,33.88,0,0,0,1.92-6.65,26.32,26.32,0,0,0,.42-6.07,15,15,0,0,0-.5-3.16,69.69,69.69,0,0,1-3.66,6.19,45,45,0,0,1-7.82,9.1,8.28,8.28,0,0,1-2.39,1.61,14.81,14.81,0,0,1-2.87,1,16.4,16.4,0,0,1-2.53.38l-.44,0a8.47,8.47,0,0,1-3-.39,8.86,8.86,0,0,1-4.35-2.78,10.47,10.47,0,0,1-2.1-4.21,14.85,14.85,0,0,1-.38-4.6,21.28,21.28,0,0,1,.75-4.34,52,52,0,0,1,2.29-6.63q-1.65,1.95-3.48,4.23c-2.36,2.94-4.86,6.22-7.44,9.77a118.91,118.91,0,0,0-7,10.77l-.51.9-1,.08a5.34,5.34,0,0,1-2.66-.47,6.74,6.74,0,0,1-1.92-1.34,8.21,8.21,0,0,1-1.27-1.61,6.44,6.44,0,0,1-.7-1.53,3.57,3.57,0,0,1-.14-.59,25.23,25.23,0,0,1-9.18,4.64,19.65,19.65,0,0,1-3.36.55,13.9,13.9,0,0,1-6.19-.9,12,12,0,0,1-6.53-6.65q-.17-.39-.32-.79c-.77,1.09-1.58,2.15-2.41,3.17a28.12,28.12,0,0,1-4.37,4.32,13.75,13.75,0,0,1-5,2.67,13.2,13.2,0,0,1-2.85.53,12.48,12.48,0,0,1-3.2-.19,7.58,7.58,0,0,1-4.21-2.13,9.25,9.25,0,0,1-2.4-3.95c-.14-.4-.26-.82-.36-1.24q-1,1.14-2.09,2.21a35.13,35.13,0,0,1-12.06,8,17.5,17.5,0,0,1-4.76,1.06,12.44,12.44,0,0,1-6.91-1.46,16.52,16.52,0,0,1-6-6,17.33,17.33,0,0,1-1.06-2.13,52,52,0,0,1-4.5,5.49,23.38,23.38,0,0,1-6.19,4.74,12.86,12.86,0,0,1-5,1.41,13.07,13.07,0,0,1-1.63,0,10.54,10.54,0,0,1-6.43-2.64,12.32,12.32,0,0,1-2.88-3.37A18.31,18.31,0,0,1,98.06,100a20.7,20.7,0,0,1-.81-4.1,37,37,0,0,1-.16-4,14.24,14.24,0,0,1,.06-1.75l0-.35q-2.29,3.85-4.24,7.91c-.08.15-.27.56-.78,1.8q-.61,1.48-1.37,3.26t-1.51,3.52q-.76,1.75-1.2,2.71l-.5,1.11-1.21,0a7.59,7.59,0,0,1-4.95-1.73,7.12,7.12,0,0,1-2.8-4.51,5.85,5.85,0,0,1,0-1.94c.07-.68.19-1.42.33-2.22s.31-1.54.52-2.34a58.82,58.82,0,0,1-17.06,18.63c4.4-.44,9-.83,13.7-1.17ZM60.24,85.72c-1.92.82-3.62,1.62-5.16,2.42-10.37,5.18-17.5,10.5-20.09,15-.9,1.58-1.76,3.82-.74,5.44S38,111,41.41,110.79a18.67,18.67,0,0,0,2.8-.42A23.24,23.24,0,0,0,60.79,95C61.37,92.94,62.42,88.18,60.24,85.72ZM82,77.18a16.41,16.41,0,0,1,1.23,6.09A20.9,20.9,0,0,1,83,87.44q.38-.94.76-1.86c1.24-3,2.59-6,4-9l.55-1.14C86.83,75.83,84.93,76.32,82,77.18Zm69.73-7.62a8.89,8.89,0,0,0-1.64,1,16.42,16.42,0,0,0-1.26,1.06,36.22,36.22,0,0,0-4.89,6.14q-.81,1.27-1.52,2.6c.85-.45,1.69-.95,2.49-1.47a18.67,18.67,0,0,0,3.65-3.11,19.53,19.53,0,0,0,2.61-3.43,4.72,4.72,0,0,0,.71-2.85Zm-37.62.22c-.7.46-1.42,1-2.13,1.51a27.28,27.28,0,0,0-2.46,2.13q-1.22,1.19-2.13,2.16c-1.37,1.53-2.7,3.16-3.93,4.81l-.85,1.17q.66-.31,1.31-.66a26.21,26.21,0,0,0,4-2.55,24.11,24.11,0,0,0,2.22-2.12,21.31,21.31,0,0,0,2.35-3,13.28,13.28,0,0,0,1.55-3.29Z"/><path class="cls-2" d="M84.69,4a23,23,0,0,1,9,.92,12,12,0,0,1,7.78,9c1.38,5.37-1.78,12.05-5.19,17.43a67.93,67.93,0,0,1-8.05,10c-1.53,1.77-6.9,3-12.33,3.54-1,.14-2.07.25-3.07.32-3.93.27-7.34,0-8.08-1.17.78-.72,11.93-13.62,15.37-18.67,2.4-3.48,3.82-6.73,2.66-9a2.91,2.91,0,0,0-3.09-1.6c-2.57.18-6.18,2.29-9.75,5A110.13,110.13,0,0,0,57,31.89a89,89,0,0,0-9,12.91c-3.32,6.7-3.25,12.32,2.31,15.89,4,2.53,14,4,25.24,10.09A154.85,154.85,0,0,1,90.72,67.2c3.43-.61,4.13-.83,4.13-.83l4.23-8.55q.51-1,1.34-2.86l1.69-3.89q.92-2.24,2.08-4.76a10.46,10.46,0,0,1,2.29.42,14,14,0,0,1,2,.94,5.63,5.63,0,0,1,1.79,1.63,5.82,5.82,0,0,1,.63,2.34,8.15,8.15,0,0,1-.77,3.78,38.31,38.31,0,0,1-2,4.21q-1.11,2-2.13,4.13-1.47,2.87-3.43,6.36T99.17,76.5q2.16-2.58,5-5.47a37,37,0,0,1,5.64-4.76,8.79,8.79,0,0,1,.92-.57,13.6,13.6,0,0,1,1.58-.74q.89-.36,1.84-.64a5.86,5.86,0,0,1,1.22-.24h.39a4.72,4.72,0,0,1,2.56-1h.51a5,5,0,0,1,3.06,1.12,6.33,6.33,0,0,1,2.39,3.47,11.11,11.11,0,0,1,.36,4.37,13.93,13.93,0,0,1-1.48,4.46,22.52,22.52,0,0,1-2.76,4.1,23.31,23.31,0,0,1-3.6,3.44,28.3,28.3,0,0,1-4,2.59q-1.14.5-2.28,1a22.06,22.06,0,0,1-2.37.8,11.88,11.88,0,0,0,.11,2.67,34.69,34.69,0,0,0,.71,4,21.36,21.36,0,0,0,1.24,3.76,3.78,3.78,0,0,0,1.79,2.13,3.64,3.64,0,0,0,1.67.27,4.29,4.29,0,0,0,.9-.16,9.57,9.57,0,0,0,2.63-1.24,17.36,17.36,0,0,0,2.38-1.89,18.83,18.83,0,0,0,1.86-2,49.19,49.19,0,0,0,4.21-6c.67-1.14,1.3-2.31,1.91-3.51.08-.39.16-.78.26-1.17a33.85,33.85,0,0,1,2.72-7,33.5,33.5,0,0,1,4.24-6.3,24.37,24.37,0,0,1,5.43-4.79,28,28,0,0,1,6.94-3.1,17.67,17.67,0,0,1,3.91-.74,14.32,14.32,0,0,1,3.63.2,6.63,6.63,0,0,1,3,1.25A6.36,6.36,0,0,1,159.59,67a7,7,0,0,1,.67,2.92,10.82,10.82,0,0,1-.44,3.22,15,15,0,0,1-4.08,6.66,26.69,26.69,0,0,1-14.28,7q-.63.1-1.28.15l-.6,0a13.89,13.89,0,0,1-1.89-.07,15.54,15.54,0,0,0-.32,7.73,5.71,5.71,0,0,0,3.13,4,6.68,6.68,0,0,0,3.19.48,12.18,12.18,0,0,0,2.55-.48,24.78,24.78,0,0,0,7.58-4.07,30,30,0,0,0,5.86-6.33,48.53,48.53,0,0,0,3.61-6.08l.15-.43a87.61,87.61,0,0,1,3.66-9q2.07-4.38,4.18-8.81-2.56.52-4.54.87t-2.65.4a4,4,0,0,1-.52-1.93,7.59,7.59,0,0,1,.26-2.24,8.45,8.45,0,0,1,.85-2.07,5.91,5.91,0,0,1,1.19-1.51A11.18,11.18,0,0,1,170,55a36.82,36.82,0,0,1,4.48-1.16,8,8,0,0,0,.83-.1,8.22,8.22,0,0,0,.82-.19l2.08-4.76a20.47,20.47,0,0,0,.89-2.12,4.78,4.78,0,0,1,1.24-1.89,2,2,0,0,1,1.19-.46,3.21,3.21,0,0,1,.49,0,7.4,7.4,0,0,1,2,.48,6.58,6.58,0,0,1,1.75,1,3.19,3.19,0,0,1,1,1.1,3,3,0,0,1,.14,2q-.28.82-.7,1.85l-.85,2.07a19,19,0,0,1,3,.28,6.78,6.78,0,0,1,3,1.5,5.54,5.54,0,0,1,1.75,2.76,2.72,2.72,0,0,1,.16,1.58q-.19.35-1.26.59l-2.47.6q-1.48.36-3,.63l-2.73.53-1.73.38H182l-1.63,4.14L174.28,80.6l-1.07,2.55q-.79,1.86-1.63,4.1-1.68,4.56-1.48,6.68t1.63,2.27a2.39,2.39,0,0,0,.41,0,6.89,6.89,0,0,0,3.33-1.58,27,27,0,0,0,4.84-4.92,42.22,42.22,0,0,0,3.17-4.8,55.71,55.71,0,0,0,2.62-5.34,32.67,32.67,0,0,1,2.18-5.9,33.27,33.27,0,0,1,5.06-7.61,22.43,22.43,0,0,1,3.78-3.33,16.51,16.51,0,0,1,4.45-2.21,14.7,14.7,0,0,1,2.1-.49q.36-.05.73-.08a10.7,10.7,0,0,1,1.48,0,3.54,3.54,0,0,1,.85-.44q.45-.16.94-.36a8.86,8.86,0,0,1,1.52-.25,6.75,6.75,0,0,1,2.85.39,5.83,5.83,0,0,1,3,2.42,7.19,7.19,0,0,1,.92,3.49,15.13,15.13,0,0,1-2.17,8.16,8.27,8.27,0,0,1-2.65,2.79,7.66,7.66,0,0,1-3.68,1.23l-.26,0a10.51,10.51,0,0,1-3.87-.43,20.59,20.59,0,0,0,2.18-3.38,27.1,27.1,0,0,0,1.69-3.89,21.55,21.55,0,0,0,.91-3.58,4.34,4.34,0,0,0-.14-2.46l-.19-.32q-1.11.84-2.14,1.71a17.21,17.21,0,0,0-1.88,1.85A31.67,31.67,0,0,0,199,73.36a35.72,35.72,0,0,0-2.67,5.39,26.9,26.9,0,0,0-1.62,5.9q-.73,3.74.25,5.8a4.79,4.79,0,0,0,3,2.68,6.76,6.76,0,0,0,2.49.26,10.58,10.58,0,0,0,2.11-.38,18,18,0,0,0,5.34-2.61,30.29,30.29,0,0,0,8.47-8.82l1.09-2.52q2.3-5.19,4.71-10.19t4.72-10q.43-1,1.64-3.43t2.63-5.3q1.43-2.82,2.79-5.35a35,35,0,0,1,2.2-3.68,8.94,8.94,0,0,1,3.14-2.87,11,11,0,0,1,3.52-1.18q.45-.07.89-.1a10.71,10.71,0,0,1,2.46.1,14.42,14.42,0,0,1,2.73.68q-.38.53-1.87,2.48a39.91,39.91,0,0,0-3,4.57q-4.38,7.77-8.73,16.47t-8.83,17.4q1.15-1.51,2.38-3t2.46-3q2.47-2.86,4.9-5.76t5.09-5.52q.7-.72,1.73-1.63T245.14,58a25.39,25.39,0,0,1,2.07-1.53,8.51,8.51,0,0,1,1.57-.87,7.8,7.8,0,0,1,1.45-.24,7.52,7.52,0,0,1,1.17,0,7.07,7.07,0,0,1,2.39.62,5.54,5.54,0,0,1,1.77,1.25,2.61,2.61,0,0,1,.74,1.58,8.81,8.81,0,0,1-.68,1.64q-.69,1.47-1.82,3.73l-2.53,5q-1.39,2.78-2.7,5.47t-2.44,5.12q-1.12,2.43-1.69,3.89a9.83,9.83,0,0,0-.92,4,3.38,3.38,0,0,0,.8,2.33,2.16,2.16,0,0,0,1.75.55l.26,0a5.65,5.65,0,0,0,2.78-1.46,37,37,0,0,0,6.25-6.78,45.42,45.42,0,0,0,5-8.53q.37-.69,1.7-.79h0a3.41,3.41,0,0,1,2.7,1.48,11.67,11.67,0,0,1,2.46,4.51,23.13,23.13,0,0,1,.94,6,33.82,33.82,0,0,1-.51,6.86,43.51,43.51,0,0,1-1.94,7.3,34.39,34.39,0,0,1-6.14,11.21,30.17,30.17,0,0,1-8.78,7.09,39.6,39.6,0,0,1-11,3.86,78.43,78.43,0,0,1-9.73,1.27q-1.55.11-3.15.17-22.06.76-44.39,1.8t-43.63,2.49l-2.18.15q-20.12,1.41-38.75,3.24-19.63,1.93-36.38,4.35t-30,5.44a128.21,128.21,0,0,0-21.68,6.64q-2.19.91-3.38,1.38a4.16,4.16,0,0,1-1.15.31.9.9,0,0,1-.46-.07q-.43-.22-.22-1.28a29.87,29.87,0,0,1,.9-3.12,26.47,26.47,0,0,1,5-8.45,37.89,37.89,0,0,1,7.28-6.39,44.64,44.64,0,0,1,8.19-4.36,56.11,56.11,0,0,1,7.65-2.52c1-.24,2-.47,3.11-.69a20.58,20.58,0,0,1-10.67-3.77c-4.38-3.32-6.13-9.16-2.4-17,4.6-9.61,17.3-17.15,26.12-21.1a10,10,0,0,0,2.58-1c-3.4-1.24-7.13-2.46-10.56-4C36.09,72,31,68.05,29.5,61Q28,54.19,31.81,45A64.59,64.59,0,0,1,46.15,23.57,68.82,68.82,0,0,1,64.53,9.81C68.82,7.63,77,4.5,84.69,4m1.63,104.29a5.68,5.68,0,0,1-3.7-1.32,5.21,5.21,0,0,1-2.09-3.37,4,4,0,0,1,0-1.34q.1-.93.31-2.08t.54-2.38q.33-1.24.75-2.36,1.59-4.64,3.45-9.09t4-8.87l2.32-4.83c-2.94.79-4.74,1-12.58,3.36a15,15,0,0,1,2,7.3C82,97.13,66.2,113.5,53.42,119q10.57-1.28,22.79-2.16l1.83-.13q11.84-.83,24.79-1.34,14-.55,28.13-.87T159,114l26.49-.33q12.6-.16,23.38-.4t18.72-.65q1.89-.1,3.92-.24,2.73-.19,5.71-.45a48.91,48.91,0,0,0,10-1.94,30.22,30.22,0,0,0,8.86-4.37,18.27,18.27,0,0,0,6.16-8,35.73,35.73,0,0,0,2-7.06,28.13,28.13,0,0,0,.45-6.52,15.26,15.26,0,0,0-1.18-5.28,7.76,7.76,0,0,0-1.32-2.07,68.8,68.8,0,0,1-5.23,9.41,42.77,42.77,0,0,1-7.53,8.76,6.25,6.25,0,0,1-1.88,1.27,12.77,12.77,0,0,1-2.49.85,14.3,14.3,0,0,1-2.23.34l-.39,0a6.52,6.52,0,0,1-2.33-.29,7,7,0,0,1-3.47-2.18A8.5,8.5,0,0,1,235,91.48a12.84,12.84,0,0,1-.33-4,19.26,19.26,0,0,1,.68-3.94A50.11,50.11,0,0,1,239,74.15q2.27-4.52,4.63-9a8.13,8.13,0,0,0-1.14,1q-.51.54-1.05,1.08-1.25,1.27-4.12,4.45t-6.48,7.67q-3.61,4.49-7.5,9.84a120.18,120.18,0,0,0-7.08,10.94h0a3.38,3.38,0,0,1-1.69-.3,4.77,4.77,0,0,1-1.37-.95,6.25,6.25,0,0,1-1-1.23,4.67,4.67,0,0,1-.49-1.05,6.24,6.24,0,0,1,.23-3.16c.17-.65.37-1.34.58-2-1,1-2,1.94-3.08,2.85a24,24,0,0,1-9.39,5,17.57,17.57,0,0,1-3,.49,11.92,11.92,0,0,1-5.33-.77,10.12,10.12,0,0,1-5.48-5.63,14.57,14.57,0,0,1-1.12-5.09c-.45.78-.93,1.54-1.42,2.3a58.43,58.43,0,0,1-3.47,4.73,26.05,26.05,0,0,1-4.06,4,11.88,11.88,0,0,1-4.4,2.33,11.19,11.19,0,0,1-2.43.45,10.47,10.47,0,0,1-2.7-.16,5.71,5.71,0,0,1-3.22-1.61,7.29,7.29,0,0,1-1.9-3.13,12.36,12.36,0,0,1-.66-3.89c0-.6,0-1.21.08-1.81a57.39,57.39,0,0,1-5.1,5.86A33,33,0,0,1,144.46,105a15.48,15.48,0,0,1-4.23,1,10.48,10.48,0,0,1-5.85-1.23,14.48,14.48,0,0,1-5.28-5.27,14.68,14.68,0,0,1-2-5.94c-.69,1.15-1.41,2.3-2.18,3.44a49.66,49.66,0,0,1-4.5,5.52,21.33,21.33,0,0,1-5.67,4.35,10.84,10.84,0,0,1-4.22,1.19,11.06,11.06,0,0,1-1.39,0,8.6,8.6,0,0,1-5.27-2.17,10.42,10.42,0,0,1-2.47-2.88,16.26,16.26,0,0,1-1.51-3.45,18.68,18.68,0,0,1-.73-3.72A34.9,34.9,0,0,1,99,91.92a12.39,12.39,0,0,1,.05-1.55c.06-.76.11-1.53.17-2.32s.11-1.5.18-2.15a3.85,3.85,0,0,1,.18-1.06,33.67,33.67,0,0,0,5.2-2.22,28,28,0,0,0,4.32-2.74,25.79,25.79,0,0,0,2.43-2.31,23.1,23.1,0,0,0,2.57-3.29,15.15,15.15,0,0,0,1.78-3.77,6.3,6.3,0,0,0,.06-3.77,8.18,8.18,0,0,0-2.43,1.1q-1.36.85-2.75,1.92A29.06,29.06,0,0,0,108.15,72q-1.25,1.22-2.19,2.21-2.17,2.42-4.08,5t-3.64,5.29a102.19,102.19,0,0,0-7.06,12.41q-.22.44-.82,1.9T89,102.07q-.75,1.77-1.51,3.5t-1.19,2.68m52.2-24.06q1.23-.42,2.77-1.12A34.42,34.42,0,0,0,146,80.52a20.54,20.54,0,0,0,4-3.43,21.18,21.18,0,0,0,2.83-3.72,6.66,6.66,0,0,0,.93-4.51q-.1-1.33-.94-1.44a2.55,2.55,0,0,0-.49,0,4,4,0,0,0-1.41.4,10.76,10.76,0,0,0-2,1.23q-1,.74-1.42,1.19a38,38,0,0,0-5.18,6.49,41.15,41.15,0,0,0-3.77,7.48m-97,28.53a20.57,20.57,0,0,0,3.09-.46,25.09,25.09,0,0,0,18-16.7c1.32-4.57,1.45-9.71-2-12.11-1.93.8-4.18,1.79-6.41,2.95-8.15,4.07-17.5,9.88-20.88,15.75-4.12,7.28,1.07,11.07,8.24,10.57M84.42.09c-8,.56-16.66,3.72-21.65,6.26A72.47,72.47,0,0,0,43.36,20.86,68.59,68.59,0,0,0,28.2,43.52c-2.82,6.85-3.66,13-2.5,18.34C27.23,69,32,74.36,40.27,78.23q1,.48,2.1.91c-7.5,4-17.73,10.91-22.1,20-4.17,8.81-2.85,17,3.53,21.8l.55.41A48.87,48.87,0,0,0,15.72,126a42,42,0,0,0-8,7,30.46,30.46,0,0,0-5.78,9.68l0,.06,0,.06a33.05,33.05,0,0,0-1,3.57c-.75,3.68,1.55,5.16,2.27,5.53a4.72,4.72,0,0,0,2.49.48,7.83,7.83,0,0,0,2.3-.57c.79-.31,1.92-.77,3.45-1.41a125.1,125.1,0,0,1,21-6.44c8.68-2,18.66-3.79,29.67-5.38s23.24-3.06,36.2-4.33c12.33-1.21,25.33-2.3,38.64-3.23l2.17-.15c14.08-1,28.73-1.8,43.55-2.49s29.62-1.28,44.35-1.79c1.11,0,2.21-.1,3.29-.17a82.69,82.69,0,0,0,10.21-1.33,43.66,43.66,0,0,0,12.11-4.24,34.18,34.18,0,0,0,9.91-8,38.39,38.39,0,0,0,6.86-12.46,47.49,47.49,0,0,0,2.1-7.92,37.86,37.86,0,0,0,.56-7.65,27.12,27.12,0,0,0-1.1-7,15.59,15.59,0,0,0-3.27-6,7,7,0,0,0-5.88-2.78A5.6,5.6,0,0,0,256.88,72l-.06.12-.06.13a41.75,41.75,0,0,1-4.53,7.8,36.5,36.5,0,0,1-4,4.67c.34-.86.83-2,1.45-3.3.74-1.6,1.55-3.3,2.4-5s1.76-3.6,2.68-5.44l2.52-5c.79-1.58,1.4-2.83,1.87-3.84.75-1.61,1.11-2.44,1-3.56a6.5,6.5,0,0,0-1.75-3.93,9.42,9.42,0,0,0-3-2.15,11,11,0,0,0-3.7-1,11.48,11.48,0,0,0-1.78,0,11.73,11.73,0,0,0-2.17.36l-.18,0-.17.06a11.83,11.83,0,0,0-2.37,1.27c-.64.42-1.3.9-2,1.43q2.17-4.1,4.34-7.94a36.2,36.2,0,0,1,2.68-4.12c.67-.88,1.56-2,1.94-2.57l3-4.12-4.76-1.79a18.07,18.07,0,0,0-3.47-.88,14.66,14.66,0,0,0-3.35-.14c-.39,0-.78.07-1.18.13a15,15,0,0,0-4.76,1.58A12.81,12.81,0,0,0,233,38.84a38.46,38.46,0,0,0-2.46,4.09c-.92,1.7-1.88,3.53-2.84,5.45s-1.87,3.74-2.66,5.36-1.38,2.86-1.68,3.52c-1.16,2.51-2.34,5-3.52,7.52a10.92,10.92,0,0,0-1.45-5l0,0,0,0a9.66,9.66,0,0,0-5-4A10.64,10.64,0,0,0,208.9,55a12.79,12.79,0,0,0-2.18.35l-.29.07-.27.11-.72.28-.49.19-.83,0c-.35,0-.7.06-1,.12a18.68,18.68,0,0,0-2.66.62,20.56,20.56,0,0,0-3.2,1.33,9.49,9.49,0,0,0-.35-1.81,9.38,9.38,0,0,0-2.95-4.66,10.64,10.64,0,0,0-3.22-1.92,6.86,6.86,0,0,0-.29-4.14l0-.09,0-.08a6.82,6.82,0,0,0-2.09-2.61,10.51,10.51,0,0,0-2.78-1.61,11.35,11.35,0,0,0-3.13-.74,7.18,7.18,0,0,0-1.11,0,5.86,5.86,0,0,0-3.47,1.41l-.06.05-.06.06a8.66,8.66,0,0,0-2.23,3.41,16.64,16.64,0,0,1-.72,1.71l0,.07,0,.08-1.25,2.85a41.46,41.46,0,0,0-4.6,1.21,15.1,15.1,0,0,0-5.44,3.09,9.67,9.67,0,0,0-2,2.47,12.39,12.39,0,0,0-1.25,3,11.69,11.69,0,0,0-.29,1.47,10.58,10.58,0,0,0-4.44-1.79,18.28,18.28,0,0,0-4.57-.25,21.64,21.64,0,0,0-4.77.9,32,32,0,0,0-7.9,3.54,28.36,28.36,0,0,0-6.3,5.55,37.49,37.49,0,0,0-3.72,5.22,17.12,17.12,0,0,0,.4-1.94v-.11a15,15,0,0,0-.48-5.89,10.15,10.15,0,0,0-3.76-5.49,8.89,8.89,0,0,0-5.32-1.92c-.3,0-.59,0-.88,0a8.53,8.53,0,0,0-3.54,1,10.35,10.35,0,0,0-1.46.32q-.61.18-1.21.39a42.37,42.37,0,0,0,1.87-4.09,11.74,11.74,0,0,0,1-5.62,9.46,9.46,0,0,0-1.16-3.94l-.09-.15-.1-.14a9.52,9.52,0,0,0-3-2.73,18,18,0,0,0-2.56-1.21l-.11,0-.12,0a14.4,14.4,0,0,0-3.14-.58l-2.68-.19-1.13,2.44c-.79,1.71-1.51,3.35-2.13,4.87l-1,2.22-.71,1.64c-.62,1.44-1,2.19-1.2,2.57l0,.06,0,.06-3.37,6.78S81.31,65.16,76,66.62a103.29,103.29,0,0,0-16.85-6.67,37.54,37.54,0,0,1-6.76-2.55c-1.53-1-4.76-3.06-.95-10.8A86.18,86.18,0,0,1,60,34.36l.07-.08.06-.08A111.76,111.76,0,0,1,72.29,22.92c3.64-2.78,5.8-3.72,6.86-4a15,15,0,0,1-2.28,4.33c-2.1,3.09-4.86,6.37-7.07,9-1.32,1.57-10.14,11.24-10.14,11.24l1.79,2.76c1.09,1.66,3.39,3.49,11.6,2.92,1.07-.07,2.17-.19,3.27-.34C84,48,89,46.37,91.08,44l.23-.25a69.82,69.82,0,0,0,8.21-10.29c5.23-8.24,7.09-14.93,5.68-20.45A15.92,15.92,0,0,0,95,1.24l0,0,0,0A26.7,26.7,0,0,0,84.42.09Zm100.38,65,2.49-.49c.89-.16,1.78-.35,2.65-.55A37.42,37.42,0,0,0,184.77,72a36.69,36.69,0,0,0-2.36,6.3A51.34,51.34,0,0,1,180.09,83a38.51,38.51,0,0,1-2.86,4.33,29.56,29.56,0,0,1-2.56,2.87c.15-.48.33-1,.56-1.61.54-1.42,1.06-2.75,1.56-3.92l1.09-2.58,6.05-14.77v-.05l.85-2.18Zm-72.6,26c.75-.3,1.48-.62,2.19-.93l.12-.05.12-.06a32.33,32.33,0,0,0,4.55-2.95,27.31,27.31,0,0,0,4.2-4,26.78,26.78,0,0,0,1.75-2.31q-.61,1.67-1.07,3.39c-.07.29-.14.57-.2.85-.54,1-1.05,2-1.56,2.85a45.53,45.53,0,0,1-3.88,5.57l0,0,0,0a15,15,0,0,1-1.48,1.6,13.55,13.55,0,0,1-1.85,1.47,6,6,0,0,1-1.29.65,17.6,17.6,0,0,1-1-3.07c-.25-1-.44-2.06-.57-3ZM41.28,108.85c-3.2.22-5-.67-5.39-1.32s-.07-1.92.8-3.45C39,100,46.06,94.81,55.92,89.88h0c1.05-.54,2.18-1.09,3.42-1.64a12.83,12.83,0,0,1-.47,6.21,21.28,21.28,0,0,1-15.18,14.06,16.57,16.57,0,0,1-2.46.36ZM151,87.74a28.87,28.87,0,0,0,7.39-5.16l.47-.46c-.72,1.29-1.52,2.57-2.39,3.82a26.26,26.26,0,0,1-5,5.47,21,21,0,0,1-6.29,3.41,8.39,8.39,0,0,1-1.73.34,2.93,2.93,0,0,1-1.36-.16c-.17-.08-.62-.27-1-1.47a7.77,7.77,0,0,1-.16-2.79c.36,0,.72-.08,1.07-.14a28.76,28.76,0,0,0,9-2.86Zm49.14,1.77a3,3,0,0,1-1.07-.09c-.15,0-.35-.11-.6-.64-.07-.16-.41-1,.05-3.38l0-.08v-.08a23.14,23.14,0,0,1,1.39-5l.06-.15,2.13.66a14.43,14.43,0,0,0,5.29.6l.35,0A11.65,11.65,0,0,0,213,79.6l-.06.14a25.85,25.85,0,0,1-1.78,2.44,26.63,26.63,0,0,1-5.45,5,14.28,14.28,0,0,1-4.2,2.07,6.77,6.77,0,0,1-1.33.25Zm16.31,14.55,2.07-.14,1-1.8a116.85,116.85,0,0,1,6.85-10.59c1.55-2.14,3.08-4.18,4.56-6.11-.09.59-.15,1.2-.19,1.81a16.77,16.77,0,0,0,.44,5.19,12.38,12.38,0,0,0,2.49,5A10.81,10.81,0,0,0,239,100.8a10.44,10.44,0,0,0,3.65.47l.51,0a18.27,18.27,0,0,0,2.83-.43,16.72,16.72,0,0,0,3.25-1.11,10.25,10.25,0,0,0,2.9-1.95,47,47,0,0,0,8.12-9.45l.54-.83q-.11,1.19-.33,2.46a32,32,0,0,1-1.81,6.26,14.33,14.33,0,0,1-4.84,6.31,26.49,26.49,0,0,1-7.73,3.81,45.25,45.25,0,0,1-9.24,1.79c-1.95.17-3.84.32-5.64.45q-2,.14-3.86.24c-5.23.27-11.49.48-18.59.64s-15.1.29-23.35.4l-26.49.33c-9.26.11-18.71.28-28.11.49-5.45.12-10.9.27-16.31.44a15.31,15.31,0,0,0,2-.85,25.36,25.36,0,0,0,6.74-5.15q1.47-1.57,2.78-3.2a18.37,18.37,0,0,0,6.37,6.15l.05,0,.05,0a14.35,14.35,0,0,0,8,1.69,19.42,19.42,0,0,0,5.29-1.18,37,37,0,0,0,12.71-8.38h0a11.2,11.2,0,0,0,2.17,2.95,9.54,9.54,0,0,0,5.28,2.66,14.41,14.41,0,0,0,3.63.21,15.14,15.14,0,0,0,3.27-.6,15.82,15.82,0,0,0,5.75-3,30.08,30.08,0,0,0,4.61-4.57l.56-.7a13.33,13.33,0,0,0,6.47,5.54,15.82,15.82,0,0,0,7.05,1,21.55,21.55,0,0,0,3.69-.6,25.69,25.69,0,0,0,7.82-3.51l.05.09a10.18,10.18,0,0,0,1.57,2,8.67,8.67,0,0,0,2.47,1.72,7.25,7.25,0,0,0,3.6.65ZM88.8,112.19l1.06-2.33q.44-1,1.21-2.74t1.52-3.54q.76-1.79,1.37-3.28c.52-1.27.69-1.61.7-1.64l0,0v0q.36-.76.74-1.51a22.56,22.56,0,0,0,.77,3.51,20.23,20.23,0,0,0,1.87,4.27,14.33,14.33,0,0,0,3.33,3.9,12.66,12.66,0,0,0,4.71,2.59l-3.43.13c-8.62.34-17,.79-24.91,1.35l-1.84.13q-3.66.27-7.2.57A62.5,62.5,0,0,0,76.85,105a9.2,9.2,0,0,0,3.38,5,9.48,9.48,0,0,0,6.14,2.26Z"/><path class="cls-1" d="M112.32,43.13l0,0,0,0a6,6,0,0,0,3.34,1l.75,0a8.74,8.74,0,0,0,2.29-.47,12.57,12.57,0,0,0,4-2.31,23.17,23.17,0,0,0,1.75-1.65,14.76,14.76,0,0,0,1.56,1.55,8,8,0,0,0,4.4,1.86,8.65,8.65,0,0,0,4.5-.73,16,16,0,0,0,3.56-2.17,23.81,23.81,0,0,0,2.83-2.72l1.35.17a4,4,0,0,0,.79,0,4.28,4.28,0,0,0,1.85-.58,7.82,7.82,0,0,0,2-1.67q.3-.34.59-.74,0,.22,0,.42A6.4,6.4,0,0,0,149,38.23a5.28,5.28,0,0,0,2.35,1.9,5.69,5.69,0,0,0,2.61.41l.45,0a8.77,8.77,0,0,0,3.07-1.08A11.16,11.16,0,0,0,160.41,37l.58-.69a6.4,6.4,0,0,0,1.7,2,5.67,5.67,0,0,0,3.53,1.27h.54a6.29,6.29,0,0,0,3-1,8.77,8.77,0,0,0,1.7-1.47,5.33,5.33,0,0,0,1.15,1,5,5,0,0,0,3,.75h.17a5.05,5.05,0,0,0,2.72-1A11.8,11.8,0,0,0,180.39,36c.41-.47.79-1,1.15-1.45a3.68,3.68,0,0,0,.21.62,4,4,0,0,0,1.1,1.48,7.44,7.44,0,0,0,2.59,1.46,3.57,3.57,0,0,0,1.32.2h.14a2.4,2.4,0,0,0,1.71-1,3.35,3.35,0,0,0,.42-1.11,2.42,2.42,0,0,1,.17-.54q.21-.45.39-.9.27-.69.57-1.38v.08a4.84,4.84,0,0,0,.48,2,6.06,6.06,0,0,0,2.21,2.34,2.78,2.78,0,0,0,1.82.55,2.9,2.9,0,0,0,2.13-1.26c1-1.39,2.05-2.84,3-4.31s2-3,2.86-4.51,1.75-3.12,2.49-4.71a44.08,44.08,0,0,0,1.94-4.84,5.08,5.08,0,0,0,0-3.07,6.8,6.8,0,0,0-1.11-2.24,3.54,3.54,0,0,0-2-1.36,2.18,2.18,0,0,0-.64-.05h0a2.15,2.15,0,0,0-1.94,2.16,23.12,23.12,0,0,1-.89,3.78c-.43,1.38-.93,2.79-1.51,4.2l.07-.33q.19-1,.36-1.7t.24-1a6,6,0,0,0,.16-.69,2.52,2.52,0,0,0-.11-1.37,2.47,2.47,0,0,0-1.17-1.32,6,6,0,0,0-1.22-.53,5,5,0,0,0-1.38-.23h-.35a2.44,2.44,0,0,0-1.26.41l-.16.11-.13.15-.37.47c-.18.24-.39.52-.62.85l-.67.94-.51.72,0,0,0,0-.61,1,.14-.48a2.44,2.44,0,0,0,0-1.62,3.26,3.26,0,0,0-1.07-1.4,6.13,6.13,0,0,0-1.19-.72l-.06,0-.06,0a5.94,5.94,0,0,0-1.45-.32,3.85,3.85,0,0,0-.65,0,2.8,2.8,0,0,0-1.35.43A4.11,4.11,0,0,0,184,18q-.08.29-.18.62l-1-.83a3.72,3.72,0,0,0-2.44-.79h-.29a5.35,5.35,0,0,0-1.89.48,6.6,6.6,0,0,0-1.43.86,6.34,6.34,0,0,0-1.16-.93,6.43,6.43,0,0,0-3.59-1l-.43,0a8,8,0,0,0-3.25.95,11.14,11.14,0,0,0-2.87,2.2,21.72,21.72,0,0,0-2.19,2.66,19.53,19.53,0,0,0-1.78,3.12,17.8,17.8,0,0,0-.78,2.08,23.44,23.44,0,0,1-1.78,3.25,18.56,18.56,0,0,1-2.08,2.68,5.59,5.59,0,0,1-1.15.94,5.93,5.93,0,0,1,.25-1.22,21.12,21.12,0,0,1,1.76-4c.83-1.51,1.69-2.95,2.58-4.27a3.83,3.83,0,0,0,.82-3.53,5.87,5.87,0,0,0-2.65-3.15,2.89,2.89,0,0,0-1.87-.59,2.31,2.31,0,0,0-1.2.44,4.77,4.77,0,0,0-1.08,1.15l-.25.07a2.81,2.81,0,0,0-1.5-2.62,2.86,2.86,0,0,0-1.63-.39,2.79,2.79,0,0,0-1.16.35,3.82,3.82,0,0,0-1.61,1.77,5.61,5.61,0,0,0-.51,2.31,4.8,4.8,0,0,0,.41,2c-.23.73-.48,1.45-.75,2.17a19.83,19.83,0,0,0,.08-3.94,16.46,16.46,0,0,0-1-4.49,12.85,12.85,0,0,0-2.37-4A10.27,10.27,0,0,0,142.59,11a4.8,4.8,0,0,1,1.16-.26l1.56-.16-.44-1.33V9.22l-1.28-.46.19-1a4.81,4.81,0,0,0-2.21-.64h-.21a9.78,9.78,0,0,0-2.06.37h-.06a11.69,11.69,0,0,0-2.53,1.21,16.31,16.31,0,0,0-3.09-.11h-.23a20,20,0,0,0-3.47.55,22.56,22.56,0,0,0-3.49,1.19,21.84,21.84,0,0,0-6.53,4.33,13.91,13.91,0,0,0-2.76,3.62v0a9.62,9.62,0,0,0-.73,2.13,7,7,0,0,0-.11,2.47,5.62,5.62,0,0,0,.88,2.36l0,.05a8.22,8.22,0,0,0-2.08,1.26,12.76,12.76,0,0,0-2.76,3.2,19.62,19.62,0,0,0-1.42,2.92,15.73,15.73,0,0,0-.94,3.44,9.42,9.42,0,0,0,.13,3.62A5.67,5.67,0,0,0,112.32,43.13Zm6.39-11.78H119a.78.78,0,0,1,.5.18,2.32,2.32,0,0,1,.58.68l.29.51q-.28.45-.57.88c-.37.55-.76,1.09-1.16,1.6a11.77,11.77,0,0,1-1.21,1.33,4.58,4.58,0,0,1-1.22.83l-.49.19a1.48,1.48,0,0,1-.33.08h-.19a.91.91,0,0,1-.21-.47,4.47,4.47,0,0,1,0-1.49,6.73,6.73,0,0,1,.44-1.62,6,6,0,0,1,.63-1.19,4.7,4.7,0,0,1,.83-.76,4.47,4.47,0,0,1,1.1-.6A2.81,2.81,0,0,1,118.71,31.34Zm13.49,4.94h-.14a1.21,1.21,0,0,1-.52-.26,3.63,3.63,0,0,1-.65-.73q-.4-.58-.79-1.16l-.67-1.2a63.64,63.64,0,0,0,3.39-6.47c1-2.24,2.09-4.49,3.18-6.7l1.32-2.68q.24-.48.5-1a4.23,4.23,0,0,1,.26.44,7.49,7.49,0,0,1,.74,2.49,20.23,20.23,0,0,1,0,3.29,25.38,25.38,0,0,1-.5,3.51,31.39,31.39,0,0,1-.94,3.43,26.48,26.48,0,0,1-1.21,3,15.06,15.06,0,0,1-1.63,2.48,4.29,4.29,0,0,1-1.93,1.42A1.62,1.62,0,0,1,132.2,36.29Zm-2.71-21.47-.07-.54.7-.2a8.77,8.77,0,0,1,1.27-.23c-.64.8-1.24,1.63-1.8,2.47A11.74,11.74,0,0,0,129.49,14.81Zm-5.72,3.74c-.26.3-.54.6-.83.87q.19-.32.4-.62a12.1,12.1,0,0,1,1-1.29q.27-.28.56-.56A12.1,12.1,0,0,1,123.77,18.56Zm44.39,11.68a20.52,20.52,0,0,1,1.09-3.6,12.5,12.5,0,0,1,2.23-3.6,7.56,7.56,0,0,1,1-.86.47.47,0,0,1,.27-.11h.08a1.63,1.63,0,0,1,0,.7v.06a9.33,9.33,0,0,1-1.37,3.77,12.67,12.67,0,0,1-2.7,3.15Zm.34,1.76-.43.29-.11.06a4.57,4.57,0,0,1,0-1Zm14.67-12.1.51-.81c-.18.52-.4,1.1-.66,1.74-.32.81-.64,1.64-1,2.55a24.44,24.44,0,0,1-1,2.36v0c-.25.54-.53,1.1-.82,1.65s-.6,1.08-.91,1.58-.69,1-1.08,1.51l-.15.18c.26-.71.56-1.51.91-2.39.28-.71.62-1.49,1-2.31s.77-1.62,1.16-2.38.79-1.5,1.15-2.16S182.91,20.29,183.16,19.89Z"/><path class="cls-1" d="M238.89,22.79a2.36,2.36,0,0,0-1.63-1.7,2.77,2.77,0,0,0-.93-.09,3.48,3.48,0,0,0-.84.17l-.67.22-.3.64c-.25.54-.53,1.1-.82,1.65s-.6,1.08-.91,1.58-.69,1-1.08,1.51l-.15.18c.26-.71.56-1.51.91-2.39.28-.71.62-1.49,1-2.31s.77-1.62,1.16-2.38.79-1.5,1.15-2.16.66-1.17.91-1.57l.78-1.23L236.34,14a3.72,3.72,0,0,0-2.44-.79h-.29a5.34,5.34,0,0,0-1.89.48,6.59,6.59,0,0,0-1.43.86,6.34,6.34,0,0,0-1.16-.93,6.43,6.43,0,0,0-3.59-1l-.43,0a8,8,0,0,0-3.25.95,11.14,11.14,0,0,0-2.87,2.2,21.71,21.71,0,0,0-2.19,2.66A19.52,19.52,0,0,0,215,21.62,18.34,18.34,0,0,0,213.87,25a13.54,13.54,0,0,0-.34,3.67v0a11,11,0,0,0,.64,3,6.34,6.34,0,0,0,2,2.82,5.67,5.67,0,0,0,3.53,1.27h.54a6.29,6.29,0,0,0,3-1,8.77,8.77,0,0,0,1.7-1.47,5.33,5.33,0,0,0,1.15,1,5,5,0,0,0,3,.75h.17a5.05,5.05,0,0,0,2.72-1,11.79,11.79,0,0,0,1.84-1.71,21.88,21.88,0,0,0,1.51-2c.44-.64.87-1.33,1.29-2.05a18.91,18.91,0,0,0,1.17-2.24q.45-1,.94-2.12l.25-.56Zm-17.21,3.7a20.52,20.52,0,0,1,1.09-3.6,12.5,12.5,0,0,1,2.23-3.6,7.56,7.56,0,0,1,1-.85.47.47,0,0,1,.27-.11h.08a1.63,1.63,0,0,1,0,.7v.06A9.34,9.34,0,0,1,225,22.86a12.66,12.66,0,0,1-2.7,3.15Zm.34,1.76-.43.29-.11.06a4.57,4.57,0,0,1,0-1Z"/><path class="cls-1" d="M132.54,39.24a8.1,8.1,0,0,1-1.39,0,7.31,7.31,0,0,1-4.05-1.71,14.19,14.19,0,0,1-2-2,22.53,22.53,0,0,1-2.21,2.15,11.92,11.92,0,0,1-3.81,2.19,8.08,8.08,0,0,1-2.12.43l-.7,0a5.37,5.37,0,0,1-3-.91,5.06,5.06,0,0,1-2-3,8.77,8.77,0,0,1-.12-3.37,15.07,15.07,0,0,1,.9-3.3,19,19,0,0,1,1.37-2.82,12.11,12.11,0,0,1,2.62-3,7.6,7.6,0,0,1,2.78-1.47,3.59,3.59,0,0,1-.62-.71,5,5,0,0,1-.78-2.09,6.35,6.35,0,0,1,.11-2.24,9,9,0,0,1,.68-2,13.3,13.3,0,0,1,2.65-3.48,21.21,21.21,0,0,1,6.34-4.21,21.84,21.84,0,0,1,3.39-1.15A19.24,19.24,0,0,1,134,6h.22a15.6,15.6,0,0,1,3.2.14A11.15,11.15,0,0,1,140,4.86a9.23,9.23,0,0,1,2-.35h.19a5.6,5.6,0,0,1,2.34.4l.61.84-.86,1.12a5.22,5.22,0,0,0-1.87.54l-.5.28a9.73,9.73,0,0,1,2.26,1.89,12.2,12.2,0,0,1,2.25,3.75,15.81,15.81,0,0,1,1,4.31,19,19,0,0,1-.15,4.36,21.88,21.88,0,0,1-1.07,4.12A22.65,22.65,0,0,1,144.26,30a26.13,26.13,0,0,1-2.52,3.49,23.32,23.32,0,0,1-3,2.95,15.33,15.33,0,0,1-3.41,2.08A8.15,8.15,0,0,1,132.54,39.24ZM119.25,27.4a3.47,3.47,0,0,0-1,.21,5.15,5.15,0,0,0-1.27.69,5.33,5.33,0,0,0-1,.91,6.53,6.53,0,0,0-.7,1.33,7.37,7.37,0,0,0-.49,1.78,5.11,5.11,0,0,0,0,1.71,1.48,1.48,0,0,0,.56,1,.28.28,0,0,0,.1,0,1.74,1.74,0,0,0,.34,0H116a2.19,2.19,0,0,0,.48-.12l.54-.21a5.2,5.2,0,0,0,1.39-.94,12.5,12.5,0,0,0,1.28-1.41c.41-.52.8-1.07,1.18-1.64.27-.4.53-.82.78-1.23l-.47-.85a3,3,0,0,0-.74-.87,1.42,1.42,0,0,0-.9-.33Zm10.89,3.81.79,1.16a4.27,4.27,0,0,0,.77.86,1.85,1.85,0,0,0,.78.39,1.15,1.15,0,0,0,.35,0,2.22,2.22,0,0,0,.59-.14,4.92,4.92,0,0,0,2.22-1.63,15.65,15.65,0,0,0,1.71-2.61,27,27,0,0,0,1.24-3.09,32,32,0,0,0,1-3.5,26.07,26.07,0,0,0,.51-3.6,20.88,20.88,0,0,0,0-3.42,8.12,8.12,0,0,0-.8-2.7,4.73,4.73,0,0,0-.95-1.28c-.35.59-.68,1.2-1,1.81L136,16.17c-1.11,2.23-2.18,4.49-3.19,6.72a63.11,63.11,0,0,1-3.52,6.67l0,.06ZM123.9,23a8.58,8.58,0,0,1,.91.62q.51-1,1-1.93a8.43,8.43,0,0,1-1.3,1A6.22,6.22,0,0,1,123.9,23Zm3.38-11.47a14.09,14.09,0,0,0-2.81,2.27,12.72,12.72,0,0,0-1.08,1.35,9.81,9.81,0,0,0-.84,1.46,3.32,3.32,0,0,0-.33,1.18,3.35,3.35,0,0,0,.66-.34,5.51,5.51,0,0,0,1-.75,13.66,13.66,0,0,0,1-1,12.81,12.81,0,0,0,1.43-2q.65-1.12,1.3-2.34Zm2.15.09a11.32,11.32,0,0,1-.24,4.18c.45-.73.9-1.46,1.36-2.15a36.55,36.55,0,0,1,2.63-3.53l.21-.24a9.46,9.46,0,0,0-1.2,0,9.29,9.29,0,0,0-1.63.26,11.28,11.28,0,0,0-2.88,1.14Z"/><path class="cls-2" d="M142,5.48h.17a4.61,4.61,0,0,1,1.93.33v.08a6.15,6.15,0,0,0-2.21.64,8.94,8.94,0,0,0-1.88,1.31,9,9,0,0,1,3.36,2.37,11.18,11.18,0,0,1,2.07,3.45,14.78,14.78,0,0,1,.89,4,18,18,0,0,1-.14,4.14,20.84,20.84,0,0,1-1,3.93,21.59,21.59,0,0,1-1.79,3.74A25,25,0,0,1,141,32.87a22.23,22.23,0,0,1-2.89,2.82,14.32,14.32,0,0,1-3.2,2,7.15,7.15,0,0,1-2.44.62,7.08,7.08,0,0,1-1.22,0,6.32,6.32,0,0,1-3.52-1.48,13.13,13.13,0,0,1-2.52-2.89,21.51,21.51,0,0,1-2.9,3,10.91,10.91,0,0,1-3.5,2,7.08,7.08,0,0,1-1.87.38l-.63,0a4.39,4.39,0,0,1-2.45-.74,4.07,4.07,0,0,1-1.59-2.37,7.77,7.77,0,0,1-.11-3,14,14,0,0,1,.84-3.09,17.93,17.93,0,0,1,1.3-2.67,11.09,11.09,0,0,1,2.41-2.79A6.72,6.72,0,0,1,120,23.14l.45,0a4.59,4.59,0,0,1,2.34.42,7.67,7.67,0,0,1,2.27,1.67q1-1.9,2-3.71t2-3.6q1.09-1.9,2.26-3.7a35.44,35.44,0,0,1,2.57-3.43l1.39-1.56a10.78,10.78,0,0,0-3.2-.27,10.23,10.23,0,0,0-1.8.29,12.27,12.27,0,0,0-3.55,1.49,14.92,14.92,0,0,0-3,2.43,13.66,13.66,0,0,0-1.18,1.46,10.64,10.64,0,0,0-.92,1.61q-.7,1.63-.22,2.31a.69.69,0,0,0,.66.29,3.07,3.07,0,0,0,1.29-.52,6.46,6.46,0,0,0,1.16-.87q.53-.5,1-1.07a13.74,13.74,0,0,0,1.54-2.16q.67-1.16,1.35-2.43a10.33,10.33,0,0,1-.25,4,12,12,0,0,1-1.58,3.61,10.94,10.94,0,0,1-1.15,1.36A7.44,7.44,0,0,1,124,21.82a5,5,0,0,1-1.66.64l-.35,0a3.39,3.39,0,0,1-1.43-.23,3,3,0,0,1-1.5-1.14,4,4,0,0,1-.63-1.68,5.33,5.33,0,0,1,.09-1.9,8,8,0,0,1,.61-1.77,12.23,12.23,0,0,1,2.44-3.2,20.22,20.22,0,0,1,6.06-4,20.84,20.84,0,0,1,3.24-1.1A18.25,18.25,0,0,1,134.08,7h.21a14.48,14.48,0,0,1,3.37.19,10.22,10.22,0,0,1,2.67-1.37,8.11,8.11,0,0,1,1.72-.3m-9.15,29.13a3.16,3.16,0,0,0,.86-.19,5.92,5.92,0,0,0,2.65-1.93,16.59,16.59,0,0,0,1.82-2.77,28,28,0,0,0,1.3-3.22,32.89,32.89,0,0,0,1-3.61,26.86,26.86,0,0,0,.53-3.74,21.73,21.73,0,0,0,0-3.58,9.07,9.07,0,0,0-.9-3A5.81,5.81,0,0,0,138,10.25a27.5,27.5,0,0,0-1.59,2.82l-1.32,2.67q-1.68,3.37-3.21,6.75a61.8,61.8,0,0,1-3.46,6.56l-.33.55,1.16,2.07q.41.62.84,1.24a5.23,5.23,0,0,0,.95,1.05,2.83,2.83,0,0,0,1.18.59,2.09,2.09,0,0,0,.64,0M116,36l.18,0a3.11,3.11,0,0,0,.7-.17l.57-.22a6.18,6.18,0,0,0,1.69-1.13,13.34,13.34,0,0,0,1.38-1.52q.63-.82,1.22-1.69t1.1-1.76L122,28.12a3.94,3.94,0,0,0-1-1.15,2.4,2.4,0,0,0-1.48-.55h-.42a4.41,4.41,0,0,0-1.23.27,6.06,6.06,0,0,0-1.51.82,6.22,6.22,0,0,0-1.14,1.08,7.45,7.45,0,0,0-.85,1.56,8.31,8.31,0,0,0-.55,2,6.06,6.06,0,0,0,0,2,2.44,2.44,0,0,0,.92,1.54,1.21,1.21,0,0,0,.58.22,2.72,2.72,0,0,0,.51,0m26-32.43a10.1,10.1,0,0,0-2.13.38l-.07,0a12,12,0,0,0-2.5,1.18,16.65,16.65,0,0,0-3-.1l-.23,0a20.29,20.29,0,0,0-3.53.56,22.88,22.88,0,0,0-3.54,1.2,22.16,22.16,0,0,0-6.62,4.39,14.23,14.23,0,0,0-2.82,3.71l0,.05a9.94,9.94,0,0,0-.76,2.2,7.29,7.29,0,0,0-.12,2.58A6,6,0,0,0,117.3,22a8.56,8.56,0,0,0-1.81,1.15,13.08,13.08,0,0,0-2.83,3.27,20,20,0,0,0-1.45,3,16,16,0,0,0-1,3.51,9.74,9.74,0,0,0,.14,3.74,6,6,0,0,0,2.32,3.48l.09.06a6.32,6.32,0,0,0,3.51,1.07l.78,0a9.06,9.06,0,0,0,2.38-.48,12.89,12.89,0,0,0,4.11-2.36q.8-.68,1.54-1.43a15.09,15.09,0,0,0,1.36,1.33A8.26,8.26,0,0,0,131,40.18a9,9,0,0,0,4.66-.76,16.33,16.33,0,0,0,3.63-2.22,24.27,24.27,0,0,0,3.14-3.07,27.08,27.08,0,0,0,2.62-3.62,23.65,23.65,0,0,0,2-4.08,22.88,22.88,0,0,0,1.12-4.3,20,20,0,0,0,.16-4.59,16.79,16.79,0,0,0-1-4.57,13.17,13.17,0,0,0-2.43-4.05,10.59,10.59,0,0,0-1-1l.51-.08,1.74-2.07V5.66L144.86,4a6.56,6.56,0,0,0-2.74-.47Zm-11.53,26.1a63.94,63.94,0,0,0,3.32-6.35c1-2.23,2.08-4.48,3.18-6.69l1.32-2.68.22-.44a7.19,7.19,0,0,1,.67,2.3,19.91,19.91,0,0,1,0,3.23,25,25,0,0,1-.49,3.47,31.09,31.09,0,0,1-.93,3.39,26.2,26.2,0,0,1-1.2,3,14.75,14.75,0,0,1-1.6,2.42,4,4,0,0,1-1.79,1.32,1.28,1.28,0,0,1-.34.08h0a.89.89,0,0,1-.39-.19,3.32,3.32,0,0,1-.59-.67q-.4-.57-.78-1.15l-.58-1Zm-13.54.14a4.4,4.4,0,0,1,.76-.7,4.09,4.09,0,0,1,1-.55,2.46,2.46,0,0,1,.69-.15h.23a.46.46,0,0,1,.31.11,2,2,0,0,1,.51.59l.19.35-.46.71c-.37.55-.75,1.08-1.15,1.59a11.45,11.45,0,0,1-1.18,1.3,4.2,4.2,0,0,1-1.13.77l-.47.18a1.16,1.16,0,0,1-.25.06,1,1,0,0,1-.06-.2,4.1,4.1,0,0,1,0-1.39,6.41,6.41,0,0,1,.42-1.54,5.67,5.67,0,0,1,.59-1.12Z"/><path class="cls-1" d="M195.21,34.42a2.14,2.14,0,0,1-1.41-.44,5.54,5.54,0,0,1-2-2.07,4.19,4.19,0,0,1-.42-1.72,21.17,21.17,0,0,1,.15-3.41q-.52,1.06-1,2.09t-1,2.38c-.13.31-.25.6-.39.89a3,3,0,0,0-.21.66,2.79,2.79,0,0,1-.34.92,1.74,1.74,0,0,1-1.26.68h0a2.94,2.94,0,0,1-1.14-.17,6.45,6.45,0,0,1-1.18-.51,6.54,6.54,0,0,1-1.17-.82,3.36,3.36,0,0,1-.93-1.25,3.41,3.41,0,0,1-.27-1.39c0-.35,0-.68,0-1-.24.4-.5.78-.75,1.15a21.19,21.19,0,0,1-1.46,1.89,11.21,11.21,0,0,1-1.74,1.61,4.41,4.41,0,0,1-2.37.87h-.19a4.29,4.29,0,0,1-2.61-.65,4.64,4.64,0,0,1-1.47-1.46l-.29.37a8.06,8.06,0,0,1-1.78,1.6,5.64,5.64,0,0,1-2.74.95h-.48a5,5,0,0,1-3.14-1.13A5.69,5.69,0,0,1,161.84,32l-.1-.28q-.58.79-1.24,1.55a10.51,10.51,0,0,1-2.76,2.32,8.13,8.13,0,0,1-2.84,1l-.41,0a5,5,0,0,1-2.31-.36,4.64,4.64,0,0,1-2.06-1.67,5.76,5.76,0,0,1-.94-2.76,9.2,9.2,0,0,1,.45-3.55q-.31.62-.63,1.2a13.5,13.5,0,0,1-1.57,2.3,7.19,7.19,0,0,1-1.8,1.53,3.64,3.64,0,0,1-1.57.5,3.32,3.32,0,0,1-.66,0l-.65-1.55A43.52,43.52,0,0,0,146.68,26a39.35,39.35,0,0,0,2.69-6.66,4.21,4.21,0,0,1-.46-2,5,5,0,0,1,.45-2,3.17,3.17,0,0,1,1.33-1.47,2.14,2.14,0,0,1,.89-.27,2.25,2.25,0,0,1,1.28.31A2.15,2.15,0,0,1,154,16q0,.35-.08.7H154a7.83,7.83,0,0,0,1.34-.33,4.42,4.42,0,0,1,1.05-1.18,1.63,1.63,0,0,1,.86-.31,2.27,2.27,0,0,1,1.47.49,5.26,5.26,0,0,1,2.38,2.77,3.21,3.21,0,0,1-.72,3c-.9,1.35-1.79,2.81-2.63,4.35a21.71,21.71,0,0,0-1.81,4.17,4.47,4.47,0,0,0-.26,1.88.77.77,0,0,0,.12.36h.09a1.53,1.53,0,0,0,.51-.15,5.55,5.55,0,0,0,1.54-1.19,19.27,19.27,0,0,0,2.16-2.78,24.16,24.16,0,0,0,1.84-3.38,17.3,17.3,0,0,1,.76-2,18.93,18.93,0,0,1,1.72-3,21.16,21.16,0,0,1,2.14-2.6,10.45,10.45,0,0,1,2.69-2.06,7.36,7.36,0,0,1,3-.87l.39,0a5.78,5.78,0,0,1,3.23.88,5.64,5.64,0,0,1,1.44,1.3l.26-.23a6,6,0,0,1,1.51-1,4.66,4.66,0,0,1,1.66-.42H181a3,3,0,0,1,2,.65l.21,1.28q-.39.62-.93,1.6T181.11,20q-.6,1.16-1.17,2.4c-.38.83-.72,1.62-1,2.34-.61,1.53-1.08,2.83-1.41,3.86-.09.28-.15.51-.19.69l.26-.16.36-.26a7,7,0,0,0,1.33-1.27c.41-.51.79-1,1.13-1.57s.64-1.06.94-1.62.58-1.14.83-1.68a25.4,25.4,0,0,0,1.05-2.44q.48-1.3,1-2.53a27.1,27.1,0,0,0,1-2.94,3.52,3.52,0,0,1,1.35-2.18,2.14,2.14,0,0,1,1-.32,3.1,3.1,0,0,1,.54,0,5.23,5.23,0,0,1,1.29.29,5.57,5.57,0,0,1,1.13.67,2.62,2.62,0,0,1,.87,1.14,1.77,1.77,0,0,1,0,1.19c-.06.21-.11.39-.15.55s-.2.64-.46,1.39-.52,1.57-.83,2.65c-.13.44-.25.92-.38,1.42,1.06-2,2.22-4,3.47-6L194.3,14c.23-.32.43-.61.61-.84l.34-.44.17-.15a1.78,1.78,0,0,1,.93-.3h.29a4.37,4.37,0,0,1,1.2.2,5.36,5.36,0,0,1,1.08.48,1.82,1.82,0,0,1,.89,1,1.87,1.87,0,0,1,.08,1,5.33,5.33,0,0,1-.16.67c0,.19-.13.56-.24,1.05s-.23,1.07-.36,1.71-.26,1.31-.38,2-.23,1.37-.32,2q-.06.45-.15,1.12c.63-1.24,1.23-2.56,1.81-3.92.67-1.6,1.26-3.2,1.74-4.77a23.61,23.61,0,0,0,.92-3.92c.11-1.36,1-1.54,1.33-1.56a1.53,1.53,0,0,1,.45,0,2.91,2.91,0,0,1,1.6,1.13,6.15,6.15,0,0,1,1,2,4.44,4.44,0,0,1,0,2.67A43.6,43.6,0,0,1,205.19,20c-.74,1.57-1.57,3.14-2.47,4.66s-1.84,3-2.83,4.48-2,2.9-3,4.27A2.28,2.28,0,0,1,195.21,34.42Zm-22-16.29a1.12,1.12,0,0,0-.62.24,8.16,8.16,0,0,0-1.06.95,13.09,13.09,0,0,0-2.35,3.78A21.09,21.09,0,0,0,168,27.54c-.28,1.82.1,2.17.12,2.18a.31.31,0,0,0,.25.09,1.49,1.49,0,0,0,.65-.26,7.38,7.38,0,0,0,1.11-.84,1.64,1.64,0,0,1-.46-.37l.12-1.39a13.3,13.3,0,0,0,2.84-3.31,10,10,0,0,0,1.46-4,2.31,2.31,0,0,0-.1-1.22c0-.1-.09-.24-.5-.27Zm-20.76,3q-.19.6-.42,1.27.34-.64.68-1.22Z"/><path class="cls-2" d="M204.15,10.32l.17,0a2,2,0,0,1,1.05.78,5.18,5.18,0,0,1,.83,1.71,3.46,3.46,0,0,1,0,2.09,42.25,42.25,0,0,1-1.87,4.66q-1.1,2.33-2.42,4.58t-2.8,4.42q-1.48,2.18-3,4.23a1.35,1.35,0,0,1-.95.62,1.2,1.2,0,0,1-.78-.26,4.73,4.73,0,0,1-1.66-1.67,3.28,3.28,0,0,1-.34-1.32,20.67,20.67,0,0,1,.41-4.89q.5-2.45,1-4.85-.8,1.4-1.53,2.79t-1.45,2.83q-.61,1.22-1.13,2.42t-1,2.41q-.17.42-.37.84a3.93,3.93,0,0,0-.29.87,1.92,1.92,0,0,1-.2.58q-.11.17-.59.24a2.15,2.15,0,0,1-.72-.13,5.81,5.81,0,0,1-2-1.14,2.39,2.39,0,0,1-.67-.89,2.49,2.49,0,0,1-.19-1,9.17,9.17,0,0,1,0-1q0-1.3.06-2.65c0-.56.09-1.12.14-1.68l-.43,1a17.22,17.22,0,0,1-1.08,2.07q-.58,1-1.23,2a20.15,20.15,0,0,1-1.4,1.81,10.12,10.12,0,0,1-1.58,1.47,3.44,3.44,0,0,1-1.86.68h-.15a3.36,3.36,0,0,1-2.07-.51,3.7,3.7,0,0,1-1.41-1.61,4.25,4.25,0,0,1-.36-1.07,14.53,14.53,0,0,1-1.26,1.8,7.09,7.09,0,0,1-1.57,1.41,4.67,4.67,0,0,1-2.27.79h-.4a4.07,4.07,0,0,1-2.54-.92,4.71,4.71,0,0,1-1.53-2.11,9.36,9.36,0,0,1-.54-2.46,21.58,21.58,0,0,1-2.45,3.42,9.51,9.51,0,0,1-2.5,2.11,7.13,7.13,0,0,1-2.5.89l-.34,0a4.06,4.06,0,0,1-1.87-.29A3.67,3.67,0,0,1,150.92,34a4.79,4.79,0,0,1-.77-2.3,8.28,8.28,0,0,1,.43-3.22,29,29,0,0,1,1.73-4.39,31.35,31.35,0,0,1,2.1-3.72,1.62,1.62,0,0,1-.45,0,7.15,7.15,0,0,1-.94-.12,7.49,7.49,0,0,1-1.16-.3q-.36,1.2-.94,2.85t-1.39,3.41q-.67,1.51-1.37,2.78a12.4,12.4,0,0,1-1.46,2.14,6.18,6.18,0,0,1-1.55,1.33,2.67,2.67,0,0,1-1.15.37,2.36,2.36,0,0,1-.47,0,44.33,44.33,0,0,0,4-6.4,40.27,40.27,0,0,0,2.87-7.21,3.36,3.36,0,0,1-.53-1.83,4,4,0,0,1,.35-1.65,2.22,2.22,0,0,1,.92-1,1.18,1.18,0,0,1,.49-.15,1.29,1.29,0,0,1,.73.19,1.2,1.2,0,0,1,.66,1.23,7.26,7.26,0,0,1-.33,1.67,1.32,1.32,0,0,0,.68.11l.67,0a8.54,8.54,0,0,0,1.92-.5,4,4,0,0,1,1-1.19.67.67,0,0,1,.35-.13,1.34,1.34,0,0,1,.84.31,4.46,4.46,0,0,1,2,2.24,2.27,2.27,0,0,1-.56,2.13q-1.4,2.09-2.7,4.46A22.62,22.62,0,0,0,155,29.35a5.48,5.48,0,0,0-.28,2.32,1.28,1.28,0,0,0,.69,1.09,1.19,1.19,0,0,0,.55.08,2.49,2.49,0,0,0,.84-.24,6.44,6.44,0,0,0,1.83-1.39,20.06,20.06,0,0,0,2.28-2.92,24.94,24.94,0,0,0,1.94-3.57,16.67,16.67,0,0,1,.74-2,17.81,17.81,0,0,1,1.63-2.86,20.11,20.11,0,0,1,2-2.48,9.48,9.48,0,0,1,2.45-1.88,6.37,6.37,0,0,1,2.59-.76h.34a4.75,4.75,0,0,1,4.51,2.82,6.81,6.81,0,0,1,1-1.11,5,5,0,0,1,1.27-.8,3.71,3.71,0,0,1,1.33-.34H181a2.08,2.08,0,0,1,1.39.43q-.4.64-1,1.65t-1.17,2.2q-.61,1.18-1.19,2.44t-1,2.39q-.93,2.34-1.43,3.92t-.19,2a.4.4,0,0,0,.38.16h.06a2.68,2.68,0,0,0,.66-.19,3.37,3.37,0,0,0,.65-.35l.41-.29A7.89,7.89,0,0,0,180,28.23a20.31,20.31,0,0,0,1.19-1.65q.51-.81,1-1.69t.86-1.73h0a26,26,0,0,0,1.08-2.52q.48-1.29,1-2.51a28.07,28.07,0,0,0,1.07-3,2.66,2.66,0,0,1,.92-1.61,1.2,1.2,0,0,1,.58-.18,2.2,2.2,0,0,1,.37,0,4.3,4.3,0,0,1,1.05.23,4.47,4.47,0,0,1,.87.53,1.65,1.65,0,0,1,.56.71.84.84,0,0,1,0,.57c-.07.22-.12.42-.16.58s-.19.6-.44,1.31-.53,1.61-.85,2.7-.62,2.37-.91,3.82a45.25,45.25,0,0,0-.67,4.68l.95-2.14a75.13,75.13,0,0,1,5.47-10.1l.52-.73.67-.94q.33-.47.59-.81l.3-.39a.87.87,0,0,1,.43-.12h.21a3.33,3.33,0,0,1,.93.16,4.31,4.31,0,0,1,.88.39.87.87,0,0,1,.5,1,4.32,4.32,0,0,1-.13.54q-.1.37-.27,1.14t-.37,1.73q-.2,1-.39,2t-.32,2.06q-.08.62-.21,1.6T197,25.81q-.12.94-.31,2.3a26,26,0,0,0,2.11-3.48Q200,22.43,201,20t1.77-4.86a24.43,24.43,0,0,0,1-4.09q.05-.68.44-.71M168.4,30.78a2.43,2.43,0,0,0,1.09-.41,8.37,8.37,0,0,0,1.52-1.2q.7-.7,1.34-1.43a6.63,6.63,0,0,1-1.14.22h-.07a.89.89,0,0,1-.78-.25,14.21,14.21,0,0,0,3-3.55,10.89,10.89,0,0,0,1.6-4.42,3.23,3.23,0,0,0-.16-1.68,1.4,1.4,0,0,0-1.32-.9h-.34a2.09,2.09,0,0,0-1.13.43,9.14,9.14,0,0,0-1.19,1.06,14.06,14.06,0,0,0-2.54,4.08A22,22,0,0,0,167,27.37q-.36,2.38.44,3.08a1.27,1.27,0,0,0,1,.33M204,8.38h0a2.45,2.45,0,0,0-2.23,2.44,22.83,22.83,0,0,1-.88,3.72v0a2.63,2.63,0,0,0-.17-1,2.78,2.78,0,0,0-1.31-1.49,6.28,6.28,0,0,0-1.28-.56,5.29,5.29,0,0,0-1.47-.25h-.38a2.76,2.76,0,0,0-1.42.47l-.35.32-.38.49c-.18.24-.39.53-.63.86l-.61.87-.05.07-.34.48a2.62,2.62,0,0,0-.17-.77,3.57,3.57,0,0,0-1.17-1.54,6.46,6.46,0,0,0-1.25-.76l-.14-.06a6.25,6.25,0,0,0-1.53-.34,4.18,4.18,0,0,0-.7,0,3.12,3.12,0,0,0-1.5.48,4.4,4.4,0,0,0-1.74,2.73c-.11.39-.25.84-.42,1.33l-.28-1.7a4,4,0,0,0-2.65-.86h-.3a5.66,5.66,0,0,0-2,.51,6.85,6.85,0,0,0-1.27.73,6.69,6.69,0,0,0-4.78-1.81l-.45,0a8.33,8.33,0,0,0-3.38,1,11.46,11.46,0,0,0-3,2.26,22,22,0,0,0-2.22,2.69,19.85,19.85,0,0,0-1.81,3.17A18.06,18.06,0,0,0,161,24a23.1,23.1,0,0,1-1.75,3.19,18.24,18.24,0,0,1-2,2.64c-.18.18-.33.33-.48.45,0-.12.07-.26.11-.41a20.81,20.81,0,0,1,1.73-4c.82-1.5,1.68-2.92,2.56-4.24a4.13,4.13,0,0,0,.87-3.8,6.16,6.16,0,0,0-2.78-3.33,3.19,3.19,0,0,0-2.07-.65,2.62,2.62,0,0,0-1.36.5,4.57,4.57,0,0,0-.86.83A3.1,3.1,0,0,0,153.31,13a3.17,3.17,0,0,0-1.81-.43,3.11,3.11,0,0,0-1.3.39,4.14,4.14,0,0,0-1.74,1.92,5.93,5.93,0,0,0-.54,2.44,5.1,5.1,0,0,0,.39,2,38.27,38.27,0,0,1-2.51,6.14A42.59,42.59,0,0,1,142,31.63l.14,2.94a5.55,5.55,0,0,0,2,.19,4.6,4.6,0,0,0,2-.63,8.14,8.14,0,0,0,2-1.74l.1-.12a6.54,6.54,0,0,0,1.07,2.85,5.6,5.6,0,0,0,2.49,2,6,6,0,0,0,2.75.43l.47,0a9.09,9.09,0,0,0,3.18-1.11,11.48,11.48,0,0,0,3-2.53l.29-.34a6.77,6.77,0,0,0,1.55,1.73,6,6,0,0,0,3.73,1.34l.57,0a6.61,6.61,0,0,0,3.2-1.1,9.12,9.12,0,0,0,1.53-1.27,5.69,5.69,0,0,0,1,.77,5.27,5.27,0,0,0,3.2.8h.18a5.37,5.37,0,0,0,2.89-1.06A12.12,12.12,0,0,0,181.21,33q.41-.48.8-1l0,.06a4.32,4.32,0,0,0,1.19,1.59,7.76,7.76,0,0,0,2.7,1.53,3.87,3.87,0,0,0,1.43.22l.17,0a2.7,2.7,0,0,0,1.93-1.11,3.65,3.65,0,0,0,.47-1.21,2.09,2.09,0,0,1,.15-.48q.21-.45.4-.91l.12-.29a6.37,6.37,0,0,0,.35,1,6.35,6.35,0,0,0,2.32,2.47,3.1,3.1,0,0,0,2,.6A3.21,3.21,0,0,0,197.64,34c1-1.4,2.06-2.85,3.06-4.32s2-3,2.87-4.53,1.76-3.14,2.51-4.74a44.4,44.4,0,0,0,2-4.88,5.4,5.4,0,0,0,0-3.27,7.11,7.11,0,0,0-1.16-2.35,3.85,3.85,0,0,0-2.14-1.48,2.49,2.49,0,0,0-.74-.06ZM172.3,20a7.18,7.18,0,0,1,.81-.73,1.48,1.48,0,0,1,0,.2v.08a9,9,0,0,1-1.33,3.64,12.45,12.45,0,0,1-2.5,3,20.29,20.29,0,0,1,.87-2.64A12.18,12.18,0,0,1,172.3,20Zm7.5,5.23,0-.06c.28-.71.62-1.48,1-2.29s.77-1.61,1.15-2.37l.57-1.08-.22.58a24.15,24.15,0,0,1-1,2.33l0,0c-.25.53-.52,1.09-.81,1.64s-.44.82-.68,1.2Zm-11,3.28a7.86,7.86,0,0,1,.08-.81q.06-.38.14-.75l-.13,1.49-.1.07Z"/><path class="cls-1" d="M220.82,31.88h-.48a5,5,0,0,1-3.14-1.13,5.69,5.69,0,0,1-1.84-2.54,10.35,10.35,0,0,1-.6-2.81,12.93,12.93,0,0,1,.33-3.52,17.69,17.69,0,0,1,1.12-3.3,18.93,18.93,0,0,1,1.72-3,21.16,21.16,0,0,1,2.14-2.6,10.47,10.47,0,0,1,2.69-2.06,7.37,7.37,0,0,1,3-.87l.39,0a5.79,5.79,0,0,1,3.23.88,5.66,5.66,0,0,1,1.44,1.3l.26-.24a6,6,0,0,1,1.51-1,4.66,4.66,0,0,1,1.66-.42h.25a3,3,0,0,1,2,.65l.21,1.28q-.39.62-.93,1.6t-1.16,2.17q-.6,1.16-1.17,2.4c-.38.83-.72,1.62-1,2.34-.61,1.54-1.09,2.84-1.41,3.86-.09.28-.15.51-.19.69l.26-.16.36-.26a7.07,7.07,0,0,0,1.33-1.27,19.22,19.22,0,0,0,1.13-1.57c.32-.51.64-1.06.94-1.62s.58-1.14.83-1.68l.58-.51a2.84,2.84,0,0,1,.68-.14,2.1,2.1,0,0,1,.71.07,1.72,1.72,0,0,1,1.18,1.27l0,.69q-.49,1.09-.94,2.13a18.28,18.28,0,0,1-1.14,2.19c-.39.69-.82,1.37-1.26,2A21.19,21.19,0,0,1,234,28.58a11.18,11.18,0,0,1-1.74,1.61,4.41,4.41,0,0,1-2.37.87h-.19a4.29,4.29,0,0,1-2.61-.65A4.63,4.63,0,0,1,225.63,29l-.29.37a8.06,8.06,0,0,1-1.78,1.6A5.64,5.64,0,0,1,220.82,31.88Zm6-17.5a1.12,1.12,0,0,0-.62.24,8.18,8.18,0,0,0-1.06.95,13.13,13.13,0,0,0-2.35,3.78,21.09,21.09,0,0,0-1.26,4.44c-.28,1.82.1,2.17.12,2.18a.3.3,0,0,0,.25.09,1.49,1.49,0,0,0,.65-.26,7.41,7.41,0,0,0,1.11-.84,1.66,1.66,0,0,1-.46-.37l.12-1.39a13.28,13.28,0,0,0,2.84-3.31,10,10,0,0,0,1.46-4,2.3,2.3,0,0,0-.1-1.22c0-.1-.09-.24-.5-.27Z"/><path class="cls-2" d="M225.82,11h.34a4.75,4.75,0,0,1,4.51,2.82,6.81,6.81,0,0,1,1-1.11,5,5,0,0,1,1.27-.8,3.71,3.71,0,0,1,1.33-.34h.21a2.08,2.08,0,0,1,1.39.43q-.4.64-1,1.65t-1.17,2.2q-.61,1.18-1.19,2.44t-1,2.39q-.93,2.34-1.43,3.92t-.19,2a.4.4,0,0,0,.38.16h.06a2.68,2.68,0,0,0,.66-.19,3.37,3.37,0,0,0,.65-.35l.41-.29a7.89,7.89,0,0,0,1.49-1.42,20.3,20.3,0,0,0,1.19-1.65q.51-.81,1-1.69t.86-1.73a1.86,1.86,0,0,1,.45-.09,1.14,1.14,0,0,1,.38,0,.81.81,0,0,1,.51.61q-.49,1.09-.95,2.14a17.21,17.21,0,0,1-1.08,2.07q-.58,1-1.23,2a20.15,20.15,0,0,1-1.4,1.81,10.12,10.12,0,0,1-1.58,1.47,3.44,3.44,0,0,1-1.86.68h-.15a3.36,3.36,0,0,1-2.07-.51A3.7,3.7,0,0,1,226.21,28a4.25,4.25,0,0,1-.36-1.07,14.53,14.53,0,0,1-1.26,1.8A7.09,7.09,0,0,1,223,30.13a4.67,4.67,0,0,1-2.27.79h-.4a4.07,4.07,0,0,1-2.54-.92,4.71,4.71,0,0,1-1.53-2.11,9.35,9.35,0,0,1-.54-2.54,11.86,11.86,0,0,1,.3-3.23A16.64,16.64,0,0,1,217.1,19a17.81,17.81,0,0,1,1.63-2.86,20.1,20.1,0,0,1,2-2.48,9.48,9.48,0,0,1,2.45-1.88,6.37,6.37,0,0,1,2.59-.76m-3.89,16a2.43,2.43,0,0,0,1.09-.41,8.37,8.37,0,0,0,1.52-1.2q.7-.7,1.34-1.43a6.63,6.63,0,0,1-1.14.22h-.07a.89.89,0,0,1-.78-.25,14.21,14.21,0,0,0,3-3.55,10.89,10.89,0,0,0,1.6-4.42,3.23,3.23,0,0,0-.16-1.68,1.4,1.4,0,0,0-1.32-.9h-.34a2.09,2.09,0,0,0-1.13.43,9.13,9.13,0,0,0-1.19,1.06A14.06,14.06,0,0,0,221.86,19a22,22,0,0,0-1.32,4.65q-.36,2.38.44,3.08a1.27,1.27,0,0,0,1,.33m3.75-18h0a8.33,8.33,0,0,0-3.38,1,11.46,11.46,0,0,0-3,2.26A22,22,0,0,0,217.14,15a19.83,19.83,0,0,0-1.81,3.17,18.67,18.67,0,0,0-1.19,3.49,13.86,13.86,0,0,0-.35,3.76v0a11.34,11.34,0,0,0,.66,3.07,6.65,6.65,0,0,0,2.15,3,6,6,0,0,0,3.73,1.34l.57,0a6.61,6.61,0,0,0,3.2-1.1,9.12,9.12,0,0,0,1.53-1.27,5.69,5.69,0,0,0,1,.77,5.28,5.28,0,0,0,3.2.8H230A5.37,5.37,0,0,0,232.86,31a12.12,12.12,0,0,0,1.89-1.75,22.19,22.19,0,0,0,1.53-2c.45-.65.88-1.34,1.3-2.07a19.23,19.23,0,0,0,1.18-2.28q.45-1,.94-2.12l.09-1.37a2.67,2.67,0,0,0-1.85-1.92,3.08,3.08,0,0,0-1-.1,3.8,3.8,0,0,0-.91.18l-1.16,1c-.25.54-.52,1.09-.81,1.64s-.44.81-.68,1.2l0-.06c.28-.71.62-1.48,1-2.29s.77-1.61,1.15-2.37.78-1.49,1.14-2.15.65-1.16.9-1.55l-.43-2.55a4,4,0,0,0-2.65-.86h-.3a5.66,5.66,0,0,0-2,.51,6.85,6.85,0,0,0-1.27.73,6.69,6.69,0,0,0-4.78-1.81l-.45,0Zm.15,7.14a7.18,7.18,0,0,1,.81-.73,1.48,1.48,0,0,1,0,.2v.08a9,9,0,0,1-1.33,3.64,12.45,12.45,0,0,1-2.5,3,20.29,20.29,0,0,1,.87-2.64,12.18,12.18,0,0,1,2.17-3.5Zm-3.46,8.51a7.85,7.85,0,0,1,.08-.81q.06-.38.14-.76l-.13,1.49-.1.07Z"/></g></g></svg>