<svg id="Camada_1" data-name="Camada 1" xmlns="http://www.w3.org/2000/svg" viewBox="0 0 16 16"><defs><style>.cls-1{fill:#1a1a1a;}.cls-2{fill:#fff;}</style></defs><title>favicon</title><path class="cls-1" d="M15.56,7.87a.41.41,0,0,0-.34-.16.32.32,0,0,0-.28.16h0a2.41,2.41,0,0,1-.26.45,2.11,2.11,0,0,1-.23.27l.08-.19.14-.29.16-.31L15,7.52l.11-.22a.4.4,0,0,0,.06-.21.38.38,0,0,0-.1-.23.54.54,0,0,0-.17-.12.63.63,0,0,0-.21-.06h-.1l-.13,0h0l-.14.07-.11.08.25-.46a2.09,2.09,0,0,1,.15-.24L14.66,6l.17-.24-.27-.1-.2-.05H14.1a.86.86,0,0,0-.27.09.74.74,0,0,0-.26.23,2.22,2.22,0,0,0-.14.24l-.16.31-.15.31L13,7l-.2.43a.63.63,0,0,0-.08-.29h0a.56.56,0,0,0-.29-.23.61.61,0,0,0-.26,0l-.13,0h0l0,0h-.14l-.15,0-.18.08a.55.55,0,0,0,0-.1.54.54,0,0,0-.17-.27.61.61,0,0,0-.19-.11.4.4,0,0,0,0-.24h0A.39.39,0,0,0,11,6.19a.61.61,0,0,0-.16-.09l-.18,0h-.06a.34.34,0,0,0-.2.08h0a.5.5,0,0,0-.13.2l0,.1h0l-.07.16-.27.07a.87.87,0,0,0-.31.18A.56.56,0,0,0,9.42,7a.72.72,0,0,0-.07.17l0,.08a.61.61,0,0,0-.26-.1,1.06,1.06,0,0,0-.26,0,1.25,1.25,0,0,0-.28.05,1.85,1.85,0,0,0-.46.2,1.64,1.64,0,0,0-.36.32A2.16,2.16,0,0,0,7.5,8a1,1,0,0,0,0-.11h0a.87.87,0,0,0,0-.34.59.59,0,0,0-.22-.32A.51.51,0,0,0,7,7.13H6.92a.49.49,0,0,0-.2.06l-.08,0-.07,0A2.45,2.45,0,0,0,6.67,7a.68.68,0,0,0,.06-.32.55.55,0,0,0-.07-.23h0a.55.55,0,0,0-.17-.16L6.33,6.2h0l-.18,0H6l-.06.14-.12.28-.06.13,0,.09-.07.15h0l-.18.37a.23.23,0,0,0-.1,0h0c-.24,0-.5.1-.81.19a6,6,0,0,0-1-.39A2.17,2.17,0,0,1,3.13,7C3,7,2.86,6.85,3.08,6.4a5,5,0,0,1,.49-.71h0A6.45,6.45,0,0,1,4.28,5a1.34,1.34,0,0,1,.4-.23.86.86,0,0,1-.13.25c-.12.18-.28.37-.41.52L4,5.79v0A.81.81,0,0,1,3.82,6h0l-.12.12-.14.13.1.16c.06.1.2.2.67.17l.19,0a1.39,1.39,0,0,0,.85-.28h0a4,4,0,0,0,.47-.59,1.56,1.56,0,0,0,.33-1.18.92.92,0,0,0-.59-.68h0A1.54,1.54,0,0,0,5,3.72a3.58,3.58,0,0,0-1.25.36,4.18,4.18,0,0,0-1.12.84,4,4,0,0,0-.88,1.31,1.79,1.79,0,0,0-.14,1.06,1.35,1.35,0,0,0,.84.94l.12.05A3,3,0,0,0,1.28,9.44a1,1,0,0,0,.2,1.26l0,0A2.82,2.82,0,0,0,1,11a2.42,2.42,0,0,0-.46.41A1.76,1.76,0,0,0,.22,12h0a1.91,1.91,0,0,0-.06.21.27.27,0,0,0,.13.32.27.27,0,0,0,.14,0l.13,0,.2-.08A7.22,7.22,0,0,1,2,12c.5-.11,1.08-.22,1.71-.31s1.34-.18,2.09-.25,1.46-.13,2.23-.19h.13l2.51-.14,2.56-.1h.19a4.77,4.77,0,0,0,.59-.08,2.52,2.52,0,0,0,.7-.24,2,2,0,0,0,.57-.46,2.22,2.22,0,0,0,.4-.72,2.74,2.74,0,0,0,.12-.46,2.19,2.19,0,0,0,0-.44,1.57,1.57,0,0,0-.06-.4A.9.9,0,0,0,15.56,7.87ZM5.1,10.19h.14l.06-.13.07-.16.09-.2.08-.19,0-.09h0l0-.09a1.3,1.3,0,0,0,0,.2,1.17,1.17,0,0,0,.11.25A.83.83,0,0,0,6,10a.73.73,0,0,0,.27.15H6l-1.44.08H4.49l-.42,0a3.61,3.61,0,0,0,.47-.5.53.53,0,0,0,.2.29A.55.55,0,0,0,5.1,10.19Zm1.74-.11a1.46,1.46,0,0,0,.39-.3l.16-.18a1.06,1.06,0,0,0,.37.36h0a.83.83,0,0,0,.46.1A1.12,1.12,0,0,0,8.52,10a2.14,2.14,0,0,0,.73-.48h0a.65.65,0,0,0,.13.17.55.55,0,0,0,.3.15H9.9l.19,0a.91.91,0,0,0,.33-.18,1.74,1.74,0,0,0,.27-.26l0,0a.77.77,0,0,0,.37.32.91.91,0,0,0,.41.06l.21,0a1.48,1.48,0,0,0,.45-.2h0l.09.12a.5.5,0,0,0,.14.1.42.42,0,0,0,.21,0h.12l.06-.1a6.75,6.75,0,0,1,.4-.61l.26-.35s0,.07,0,.1a1,1,0,0,0,0,.3.72.72,0,0,0,.14.29.62.62,0,0,0,.31.2.6.6,0,0,0,.21,0h0l.16,0,.19-.06a.59.59,0,0,0,.17-.11,2.71,2.71,0,0,0,.47-.55l0,0s0,.09,0,.14a1.85,1.85,0,0,1-.1.36.83.83,0,0,1-.28.36,1.53,1.53,0,0,1-.45.22,2.61,2.61,0,0,1-.53.1l-.33,0h-.22l-1.07,0-1.35,0-1.53,0-1.62,0-.94,0ZM12.4,8.32l-.1.14a1.54,1.54,0,0,1-.31.29.82.82,0,0,1-.24.12H11.6s0,0,0,0a.34.34,0,0,1,0-.2h0a1.34,1.34,0,0,1,.08-.29h0l.12,0a.83.83,0,0,0,.31,0h0a.67.67,0,0,0,.3-.1Zm-1.76-.08a3,3,0,0,1-.13.27,2.22,2.22,0,0,1-.16.25l-.15.17,0-.09.09-.23.06-.15.35-.85h0l0-.13.14,0,.15,0a2.16,2.16,0,0,0-.3.46A2.12,2.12,0,0,0,10.64,8.23Zm-1.5.44A1.52,1.52,0,0,1,8.85,9a1.22,1.22,0,0,1-.36.2l-.1,0H8.31s0,0-.06-.08a.45.45,0,0,1,0-.16h.06a1.77,1.77,0,0,0,.95-.46l0,0ZM5,8.24H5v0Zm4.62-.55,0,0s0,0,0,0h0Zm-2.34.88v0l-.09.16a2.63,2.63,0,0,1-.22.32h0l-.09.09-.11.08-.07,0a1,1,0,0,1-.06-.18c0-.06,0-.12,0-.18l.13-.05h0A1.87,1.87,0,0,0,7,8.74a1.58,1.58,0,0,0,.24-.23l.1-.13Q7.3,8.47,7.27,8.57Zm-3.76.59a1.23,1.23,0,0,1-.88.81l-.14,0c-.18,0-.29,0-.31-.08s0-.11,0-.2A2.83,2.83,0,0,1,3.34,8.9h0l.2-.09A.74.74,0,0,1,3.51,9.16Z"/><path class="cls-1" d="M.46,12.18l-.08,0s-.1-.07-.07-.2a1.81,1.81,0,0,1,.06-.19,1.65,1.65,0,0,1,.31-.53,2.31,2.31,0,0,1,.44-.39,2.7,2.7,0,0,1,.49-.26l.21-.08a1,1,0,0,1-.23-.13.85.85,0,0,1-.17-1.12A3.16,3.16,0,0,1,2.87,8L2.52,7.9A1.26,1.26,0,0,1,1.74,7a1.69,1.69,0,0,1,.14-1,3.85,3.85,0,0,1,.85-1.27A4.07,4.07,0,0,1,3.82,4,3.46,3.46,0,0,1,5,3.6a1.43,1.43,0,0,1,.56.06.8.8,0,0,1,.52.6A1.48,1.48,0,0,1,5.8,5.36a3.94,3.94,0,0,1-.46.58v0a1.49,1.49,0,0,1-.78.24l-.18,0c-.47,0-.54-.08-.57-.12L3.74,6l.07-.06.13-.13h0a.8.8,0,0,0,.14-.17h0l.17-.21c.13-.15.29-.35.41-.53s.17-.36.15-.4,0,0-.07,0a1.19,1.19,0,0,0-.5.27,6.31,6.31,0,0,0-.72.67h0A5.08,5.08,0,0,0,3,6.13c-.24.48-.06.67.1.77a2.14,2.14,0,0,0,.42.16,5.76,5.76,0,0,1,1,.4c.32-.09.59-.15.84-.2h.07a.12.12,0,0,1,.08,0h0l.21-.43.08-.16.1-.22.12-.28,0-.07h.08l.16,0h0l.13.06a.44.44,0,0,1,.14.13h0a.44.44,0,0,1,.05.18.57.57,0,0,1-.05.27A2.32,2.32,0,0,1,6.49,7l-.12.23,0,.06.09-.06.06,0,.1,0,.12,0,.09,0A.38.38,0,0,1,7,7H7a.4.4,0,0,1,.24.09.47.47,0,0,1,.18.26.76.76,0,0,1,0,.3.92.92,0,0,1-.1.3,1.42,1.42,0,0,1-.17.26A1.46,1.46,0,0,1,7,8.43l-.25.16h0l-.13.06-.07,0v.06a1.9,1.9,0,0,0,0,.22,1.13,1.13,0,0,0,.06.2c0,.06,0,.06,0,.06h.07l.12-.06L7,9.06l.1-.1a2.75,2.75,0,0,0,.23-.34l.1-.18V8.37a2.08,2.08,0,0,1,.17-.43,2.06,2.06,0,0,1,.26-.38,1.53,1.53,0,0,1,.34-.3,1.74,1.74,0,0,1,.43-.19l.25,0A.94.94,0,0,1,9.1,7a.49.49,0,0,1,.22.09.48.48,0,0,1,.14.17.52.52,0,0,1,0,.22.74.74,0,0,1,0,.22,1,1,0,0,1-.27.43,1.65,1.65,0,0,1-.89.43H8.19a.68.68,0,0,0,0,.3.22.22,0,0,0,.12.16.28.28,0,0,0,.13,0l.12,0A1.33,1.33,0,0,0,9,8.85a1.62,1.62,0,0,0,.31-.34,2.71,2.71,0,0,0,.2-.33v0a5.2,5.2,0,0,1,.22-.53l.15-.31h0l-.16,0H9.56l0-.06a.34.34,0,0,1,0-.17A.55.55,0,0,1,9.5,7a.6.6,0,0,1,.06-.15.45.45,0,0,1,.09-.12.76.76,0,0,1,.27-.16l.27-.07h0l.1-.22,0-.11a.39.39,0,0,1,.1-.15.23.23,0,0,1,.14-.06h0l.15,0,.13.08a.27.27,0,0,1,.1.3l0,.09h0a.51.51,0,0,1,.23.11.43.43,0,0,1,.14.21.24.24,0,0,1,0,.17.21.21,0,0,1-.15.09l-.14,0-.18,0-.16,0h-.05l-.07.18-.35.85-.06.15-.09.23a.87.87,0,0,0-.08.34v0a.33.33,0,0,0,.13-.07,1.46,1.46,0,0,0,.26-.26,2.33,2.33,0,0,0,.17-.26A3.09,3.09,0,0,0,10.79,8a2,2,0,0,1,.13-.35,2,2,0,0,1,.31-.47A1.42,1.42,0,0,1,11.46,7a1.07,1.07,0,0,1,.29-.14l.14,0H12l0,0,0,0h0l.11,0a.5.5,0,0,1,.21,0,.45.45,0,0,1,.23.19.53.53,0,0,1,.07.26,1,1,0,0,1-.14.53.59.59,0,0,1-.19.2.55.55,0,0,1-.26.09h0a.72.72,0,0,1-.26,0L11.7,8l.1-.13a1.09,1.09,0,0,0,.11-.18A1.46,1.46,0,0,0,12,7.47l0-.09,0,0a1.74,1.74,0,0,0-.26.35,2,2,0,0,0-.15.3,1.45,1.45,0,0,0-.09.32.44.44,0,0,0,0,.27.17.17,0,0,0,.1.1h.1l.1,0a.93.93,0,0,0,.27-.13,1.65,1.65,0,0,0,.34-.31l.12-.16L12.6,8l.27-.59.27-.58.1-.2.15-.31L13.56,6a2.1,2.1,0,0,1,.14-.23.63.63,0,0,1,.22-.2.75.75,0,0,1,.24-.08h.23l.18,0,.14.05-.09.12-.11.15a2.2,2.2,0,0,0-.16.25c-.17.3-.34.61-.5.95l-.06.12L14,7l.1-.1.12-.11.13-.1.11-.06h0l.1,0h.09a.52.52,0,0,1,.18,0,.43.43,0,0,1,.14.1.26.26,0,0,1,.07.16s0,.06,0,.15l-.11.22-.15.29-.16.32-.14.29-.09.22a.46.46,0,0,0,0,.19.12.12,0,0,0,0,.06h0a.22.22,0,0,0,.1-.06,2,2,0,0,0,.34-.37,2.52,2.52,0,0,0,.27-.47h0a.21.21,0,0,1,.19-.11.3.3,0,0,1,.25.12.79.79,0,0,1,.16.3,1.45,1.45,0,0,1,.06.37,2.07,2.07,0,0,1,0,.42,2.64,2.64,0,0,1-.12.44,2.1,2.1,0,0,1-.37.68,1.86,1.86,0,0,1-.54.44,2.41,2.41,0,0,1-.67.23,4.66,4.66,0,0,1-.58.08h-.19l-2.56.1-2.52.14H8c-.77.05-1.52.12-2.23.19s-1.45.16-2.1.25-1.22.2-1.72.31a7.33,7.33,0,0,0-1.23.38l-.2.08Zm4.18-2.06L6.08,10,7.71,10l1.62,0,1.53,0,1.35,0,1.08,0h.22l.33,0a2.72,2.72,0,0,0,.56-.11,1.64,1.64,0,0,0,.48-.24,1,1,0,0,0,.32-.41,2,2,0,0,0,.11-.38,1.52,1.52,0,0,0,0-.35.87.87,0,0,0,0-.18,4,4,0,0,1-.21.36,2.6,2.6,0,0,1-.45.53.48.48,0,0,1-.14.09l-.17.06-.15,0h0a.49.49,0,0,1-.17,0A.51.51,0,0,1,13.73,9a.6.6,0,0,1-.12-.24.86.86,0,0,1,0-.27,1.23,1.23,0,0,1,0-.25,3,3,0,0,1,.13-.38l-.2.24-.43.56a6.87,6.87,0,0,0-.4.62l0,.05h-.06a.31.31,0,0,1-.15,0l-.11-.08-.07-.09a.37.37,0,0,1,0-.09v0a1.46,1.46,0,0,1-.53.27l-.19,0a.8.8,0,0,1-.36-.05.69.69,0,0,1-.38-.38l0,0-.14.18a1.62,1.62,0,0,1-.25.25.79.79,0,0,1-.29.15l-.16,0H9.75a.44.44,0,0,1-.24-.12.53.53,0,0,1-.14-.23l0-.07-.12.13a2,2,0,0,1-.7.46,1,1,0,0,1-.27.06.72.72,0,0,1-.4-.08,1,1,0,0,1-.35-.35l-.06-.12a3,3,0,0,1-.26.32,1.35,1.35,0,0,1-.36.27.74.74,0,0,1-.29.08H6.44a.61.61,0,0,1-.37-.15.71.71,0,0,1-.17-.19,1.06,1.06,0,0,1-.1-.22,1.2,1.2,0,0,1,0-.24,2.14,2.14,0,0,1,0-.23.82.82,0,0,1,0-.1v0q-.13.22-.24.46l0,.1-.08.19-.09.2-.07.16,0,.06H5.13a.44.44,0,0,1-.29-.1.41.41,0,0,1-.16-.26.34.34,0,0,1,0-.11s0-.08,0-.13l0-.13a3.4,3.4,0,0,1-1,1.08l.79-.07Zm-1-1.68-.3.14a2.88,2.88,0,0,0-1.16.87.33.33,0,0,0,0,.31.45.45,0,0,0,.41.13l.16,0a1.34,1.34,0,0,0,1-.89C3.69,8.85,3.75,8.58,3.62,8.43Zm1.26-.49A1,1,0,0,1,5,8.29a1.21,1.21,0,0,1,0,.24l0-.11c.07-.17.15-.35.23-.52l0-.07Zm4-.44-.09.06-.07.06A2.09,2.09,0,0,0,8.46,8l-.09.15L8.51,8a1.08,1.08,0,0,0,.21-.18,1.13,1.13,0,0,0,.15-.2.27.27,0,0,0,0-.16Zm-2.17,0-.12.09-.14.12-.12.12-.23.28,0,.07.08,0L6.38,8l.13-.12a1.23,1.23,0,0,0,.14-.17.77.77,0,0,0,.09-.19Z"/><path class="cls-2" d="M5,3.71a1.33,1.33,0,0,1,.52.05A.69.69,0,0,1,6,4.29a1.43,1.43,0,0,1-.3,1,3.92,3.92,0,0,1-.46.58,1.39,1.39,0,0,1-.71.2l-.18,0c-.23,0-.42,0-.47-.07s.69-.79.89-1.08.22-.39.15-.52a.17.17,0,0,0-.18-.09,1.27,1.27,0,0,0-.56.29,6.36,6.36,0,0,0-.74.69,5.14,5.14,0,0,0-.52.75c-.19.39-.19.71.13.92s.81.23,1.46.58a8.94,8.94,0,0,1,.87-.21l.24,0,.24-.49.08-.17L6,6.43l.12-.27.13,0,.12.05a.33.33,0,0,1,.1.09.34.34,0,0,1,0,.14.47.47,0,0,1,0,.22,2.21,2.21,0,0,1-.11.24l-.12.24-.2.37-.2.37.29-.32a2.14,2.14,0,0,1,.33-.28l.05,0,.09,0,.11,0h.09A.27.27,0,0,1,7,7.13H7a.29.29,0,0,1,.18.06.37.37,0,0,1,.14.2.64.64,0,0,1,0,.25.8.8,0,0,1-.09.26,1.3,1.3,0,0,1-.16.24,1.35,1.35,0,0,1-.21.2l-.23.15-.13.06-.14,0a.69.69,0,0,0,0,.15,2,2,0,0,0,0,.23,1.23,1.23,0,0,0,.07.22.22.22,0,0,0,.1.12l.1,0h.05l.15-.07.14-.11L7.16,9a2.84,2.84,0,0,0,.24-.35l.11-.2,0-.07A2,2,0,0,1,7.68,8a1.93,1.93,0,0,1,.24-.36,1.41,1.41,0,0,1,.31-.28,1.62,1.62,0,0,1,.4-.18l.23,0h.21a.38.38,0,0,1,.17.07.37.37,0,0,1,.11.13.41.41,0,0,1,0,.17.62.62,0,0,1,0,.19.87.87,0,0,1-.24.38,1.54,1.54,0,0,1-.82.4H8.1a.9.9,0,0,0,0,.45.33.33,0,0,0,.18.23.39.39,0,0,0,.18,0l.15,0A1.43,1.43,0,0,0,9,8.94a1.73,1.73,0,0,0,.34-.37,2.8,2.8,0,0,0,.21-.35v0a5.06,5.06,0,0,1,.21-.52L10,7.17l-.26.05-.15,0a.23.23,0,0,1,0-.11.44.44,0,0,1,0-.13.49.49,0,0,1,0-.12l.07-.09A.65.65,0,0,1,10,6.66l.26-.07h.1l.12-.27.05-.12a.28.28,0,0,1,.07-.11l.07,0h0l.12,0,.1.06.06.06a.17.17,0,0,1,0,.11l0,.11,0,.12.18,0a.39.39,0,0,1,.17.09.32.32,0,0,1,.1.16.16.16,0,0,1,0,.09s0,0-.07,0l-.14,0-.17,0-.16,0-.1,0h0l-.09.24-.35.85-.06.15-.09.24a1,1,0,0,0-.09.39q0,.12.09.13h0a.4.4,0,0,0,.19-.09,1.56,1.56,0,0,0,.28-.28,2.44,2.44,0,0,0,.18-.28,3.22,3.22,0,0,0,.15-.31A1.89,1.89,0,0,1,11,7.74a1.92,1.92,0,0,1,.29-.44,1.29,1.29,0,0,1,.22-.19A1,1,0,0,1,11.78,7l.12,0H12l0,0,.05,0h.09a.39.39,0,0,1,.16,0,.34.34,0,0,1,.17.14.42.42,0,0,1,.05.2.87.87,0,0,1-.13.47.48.48,0,0,1-.15.16.44.44,0,0,1-.21.07h0a.61.61,0,0,1-.22,0,1.19,1.19,0,0,0,.13-.2,1.57,1.57,0,0,0,.1-.22,1.24,1.24,0,0,0,.05-.21.25.25,0,0,0,0-.14v0l-.12.1-.11.11a1.83,1.83,0,0,0-.27.37,2.06,2.06,0,0,0-.15.31,1.55,1.55,0,0,0-.09.34.55.55,0,0,0,0,.34.28.28,0,0,0,.17.15h.14l.12,0a1,1,0,0,0,.31-.15,1.75,1.75,0,0,0,.36-.33l.13-.18L12.7,8,13,7.46l.27-.58.09-.2.15-.31.16-.31.13-.21A.52.52,0,0,1,14,5.69a.64.64,0,0,1,.2-.07h.19l.16,0-.11.14a2.3,2.3,0,0,0-.17.26q-.25.45-.5,1l-.51,1,.14-.17.14-.17.28-.33q.14-.17.29-.32l.1-.09.12-.1.12-.09.09-.05h.15l.14,0a.32.32,0,0,1,.1.07.15.15,0,0,1,0,.09l0,.09-.11.22-.15.29-.16.32-.14.3-.1.22a.57.57,0,0,0-.05.23.19.19,0,0,0,0,.13.12.12,0,0,0,.1,0h0a.33.33,0,0,0,.16-.08,2.14,2.14,0,0,0,.36-.39,2.62,2.62,0,0,0,.29-.49s0,0,.1,0h0a.2.2,0,0,1,.16.09.67.67,0,0,1,.14.26,1.34,1.34,0,0,1,.05.34,2,2,0,0,1,0,.4,2.51,2.51,0,0,1-.11.42,2,2,0,0,1-.35.65,1.74,1.74,0,0,1-.51.41,2.29,2.29,0,0,1-.64.22,4.53,4.53,0,0,1-.56.07h-.18l-2.56.1-2.52.14H8q-1.16.08-2.24.19t-2.1.25q-1,.14-1.73.31A7.4,7.4,0,0,0,.72,12L.52,12l-.07,0h0s0,0,0-.07a1.72,1.72,0,0,1,.05-.18,1.53,1.53,0,0,1,.29-.49,2.19,2.19,0,0,1,.42-.37,2.58,2.58,0,0,1,.47-.25,3.24,3.24,0,0,1,.44-.15l.18,0a1.19,1.19,0,0,1-.62-.22.74.74,0,0,1-.14-1A3.15,3.15,0,0,1,3,8.09.58.58,0,0,0,3.18,8C3,8,2.76,7.89,2.57,7.8A1.14,1.14,0,0,1,1.85,7,1.57,1.57,0,0,1,2,6.08a3.73,3.73,0,0,1,.83-1.24,4,4,0,0,1,1.06-.79A3.35,3.35,0,0,1,5,3.71m.09,6a.33.33,0,0,1-.21-.08.3.3,0,0,1-.12-.19.23.23,0,0,1,0-.08l0-.12,0-.14,0-.14q.09-.27.2-.52T5.32,8l.13-.28c-.17,0-.27.06-.73.19a.87.87,0,0,1,.12.42,2.68,2.68,0,0,1-1.61,2.06q.61-.07,1.32-.12h.11l1.43-.08,1.62-.05,1.62,0,1.53,0,1.35,0,1.08,0h.23l.33,0a2.82,2.82,0,0,0,.58-.11,1.75,1.75,0,0,0,.51-.25,1.06,1.06,0,0,0,.36-.46,2.06,2.06,0,0,0,.12-.41,1.62,1.62,0,0,0,0-.38.88.88,0,0,0-.07-.3.45.45,0,0,0-.08-.12,4,4,0,0,1-.3.54,2.47,2.47,0,0,1-.43.51L14.45,9l-.14,0-.13,0h0l-.13,0a.4.4,0,0,1-.2-.13.49.49,0,0,1-.1-.2.74.74,0,0,1,0-.23,1.11,1.11,0,0,1,0-.23,2.89,2.89,0,0,1,.21-.54l.27-.52-.07.06-.06.06-.24.26-.37.44L13,8.64a6.94,6.94,0,0,0-.41.63h0l-.1,0-.08-.05-.06-.07,0-.06a.36.36,0,0,1,0-.18l0-.12-.18.16a1.39,1.39,0,0,1-.54.29l-.17,0a.69.69,0,0,1-.31,0,.58.58,0,0,1-.32-.33.84.84,0,0,1-.06-.29l-.08.13-.2.27a1.5,1.5,0,0,1-.23.23.69.69,0,0,1-.25.13l-.14,0H9.77a.33.33,0,0,1-.19-.09.42.42,0,0,1-.11-.18.71.71,0,0,1,0-.22s0-.07,0-.1a3.31,3.31,0,0,1-.29.34,1.91,1.91,0,0,1-.66.43.89.89,0,0,1-.24.05.61.61,0,0,1-.34-.07.84.84,0,0,1-.31-.3.85.85,0,0,1-.11-.34l-.13.2a2.87,2.87,0,0,1-.26.32,1.23,1.23,0,0,1-.33.25.63.63,0,0,1-.24.07H6.45a.5.5,0,0,1-.3-.13A.6.6,0,0,1,6,9.43a.94.94,0,0,1-.09-.2,1.08,1.08,0,0,1,0-.21,2,2,0,0,1,0-.22.72.72,0,0,1,0-.09V8.44a.22.22,0,0,1,0-.06l.3-.13a1.61,1.61,0,0,0,.25-.16L6.59,8a1.33,1.33,0,0,0,.15-.19.87.87,0,0,0,.1-.22.36.36,0,0,0,0-.22L6.7,7.4l-.16.11-.15.13-.13.13L6,8.06l-.21.31a5.9,5.9,0,0,0-.41.72l0,.11-.08.19-.09.2-.07.15m3-1.39.16-.06.27-.15a1.19,1.19,0,0,0,.23-.2A1.22,1.22,0,0,0,9,7.72.38.38,0,0,0,9,7.46Q9,7.38,9,7.38h0l-.08,0-.12.07-.08.07a2.2,2.2,0,0,0-.3.37,2.38,2.38,0,0,0-.22.43M2.55,10l.18,0a1.45,1.45,0,0,0,1-1c.08-.26.08-.56-.12-.7l-.37.17a3.08,3.08,0,0,0-1.21.91c-.24.42.06.64.48.61M5,3.49a3.58,3.58,0,0,0-1.25.36,4.18,4.18,0,0,0-1.12.84A4,4,0,0,0,1.77,6a1.79,1.79,0,0,0-.14,1.06A1.35,1.35,0,0,0,2.47,8l.12.05A3,3,0,0,0,1.32,9.21a1,1,0,0,0,.2,1.26l0,0a2.82,2.82,0,0,0-.5.27,2.42,2.42,0,0,0-.46.41,1.76,1.76,0,0,0-.33.56h0a1.91,1.91,0,0,0-.06.21.27.27,0,0,0,.13.32.27.27,0,0,0,.14,0l.13,0,.2-.08A7.22,7.22,0,0,1,2,11.8c.5-.11,1.08-.22,1.71-.31s1.34-.18,2.09-.25,1.46-.13,2.23-.19h.13l2.51-.14,2.56-.1h.19a4.77,4.77,0,0,0,.59-.08,2.52,2.52,0,0,0,.7-.24A2,2,0,0,0,15.3,10a2.22,2.22,0,0,0,.4-.72,2.74,2.74,0,0,0,.12-.46,2.19,2.19,0,0,0,0-.44,1.57,1.57,0,0,0-.06-.4.9.9,0,0,0-.19-.34.41.41,0,0,0-.34-.16.32.32,0,0,0-.28.16h0a2.41,2.41,0,0,1-.26.45,2.11,2.11,0,0,1-.23.27l.08-.19.14-.29.16-.31L15,7.29l.11-.22a.4.4,0,0,0,.06-.21.38.38,0,0,0-.1-.23.54.54,0,0,0-.17-.12.63.63,0,0,0-.21-.06h-.1l-.13,0h0l-.14.07-.11.08.25-.46a2.09,2.09,0,0,1,.15-.24l.11-.15.17-.24-.27-.1-.2-.05h-.26a.86.86,0,0,0-.27.09.74.74,0,0,0-.26.23,2.22,2.22,0,0,0-.14.24l-.16.31-.15.31-.1.2-.2.43a.63.63,0,0,0-.08-.29h0a.56.56,0,0,0-.29-.23.61.61,0,0,0-.26,0l-.13,0h0l0,0h-.14l-.15,0-.18.08a.55.55,0,0,0,0-.1.54.54,0,0,0-.17-.27.61.61,0,0,0-.19-.11.4.4,0,0,0,0-.24h0A.39.39,0,0,0,11,6a.61.61,0,0,0-.16-.09l-.18,0h-.06a.34.34,0,0,0-.2.08h0a.5.5,0,0,0-.13.2l0,.1h0l-.07.16-.27.07a.87.87,0,0,0-.31.18.56.56,0,0,0-.11.14.72.72,0,0,0-.07.17l0,.08a.61.61,0,0,0-.26-.1,1.06,1.06,0,0,0-.26,0A1.25,1.25,0,0,0,8.58,7a1.85,1.85,0,0,0-.46.2,1.64,1.64,0,0,0-.36.32,2.16,2.16,0,0,0-.21.3,1,1,0,0,0,0-.11h0a.87.87,0,0,0,0-.34A.59.59,0,0,0,7.32,7,.51.51,0,0,0,7,6.9H7a.49.49,0,0,0-.2.06L6.68,7,6.61,7a2.45,2.45,0,0,0,.11-.24.68.68,0,0,0,.06-.32.55.55,0,0,0-.07-.23h0A.55.55,0,0,0,6.52,6L6.37,6h0l-.18,0H6L6,6.06l-.12.28-.06.13,0,.09-.07.15h0l-.19.39s-.63.13-.94.22a6,6,0,0,0-1-.39,2.17,2.17,0,0,1-.39-.15c-.09-.06-.27-.18-.05-.62a5,5,0,0,1,.49-.71h0a6.45,6.45,0,0,1,.7-.65,1.35,1.35,0,0,1,.4-.23.86.86,0,0,1-.13.25c-.12.18-.28.37-.41.52L3.59,6l.1.16c.06.1.2.2.67.17l.19,0A1.39,1.39,0,0,0,5.41,6h0a4,4,0,0,0,.47-.59,1.56,1.56,0,0,0,.33-1.18.92.92,0,0,0-.59-.68h0A1.54,1.54,0,0,0,5,3.49Zm5.8,3.75.14,0,.15,0a2.16,2.16,0,0,0-.3.46,2.12,2.12,0,0,0-.14.36,3,3,0,0,1-.13.27,2.22,2.22,0,0,1-.16.25l-.15.17,0-.09.09-.23.06-.15.35-.85h0l0-.13ZM6.62,8.75l.13-.05h0A1.87,1.87,0,0,0,7,8.52a1.58,1.58,0,0,0,.24-.23l.1-.13q0,.1-.06.2v0l-.09.16A2.63,2.63,0,0,1,7,8.88H7L6.9,9l-.11.08-.07,0a1,1,0,0,1-.06-.18c0-.06,0-.12,0-.18Zm-4.09,1c-.18,0-.29,0-.31-.08s0-.11,0-.2a2.83,2.83,0,0,1,1.11-.82h0l.2-.09a.74.74,0,0,1,0,.36,1.23,1.23,0,0,1-.88.81l-.14,0ZM8.87,8.55a1.67,1.67,0,0,0,.43-.3l0,0-.14.22a1.52,1.52,0,0,1-.29.32,1.22,1.22,0,0,1-.36.2l-.1,0H8.35s0,0-.06-.08a.45.45,0,0,1,0-.16h.06a1.66,1.66,0,0,0,.52-.16Zm2.84.1h-.06s0,0,0,0a.34.34,0,0,1,0-.2h0a1.34,1.34,0,0,1,.08-.29h0l.12,0a.83.83,0,0,0,.31,0h0a.67.67,0,0,0,.3-.1h0l-.1.14a1.54,1.54,0,0,1-.31.29.82.82,0,0,1-.24.12Zm.94.84h.12l.06-.1a6.75,6.75,0,0,1,.4-.61l.26-.35s0,.07,0,.1a1,1,0,0,0,0,.3.72.72,0,0,0,.14.29.62.62,0,0,0,.31.2.6.6,0,0,0,.21,0h0l.16,0,.19-.06a.59.59,0,0,0,.17-.11,2.71,2.71,0,0,0,.47-.55l0,0s0,.09,0,.14a1.85,1.85,0,0,1-.1.36.83.83,0,0,1-.28.36,1.53,1.53,0,0,1-.45.22,2.61,2.61,0,0,1-.53.1l-.33,0h-.22l-1.07,0-1.35,0-1.53,0-1.62,0-.94,0,.11,0a1.46,1.46,0,0,0,.39-.3l.16-.18a1.06,1.06,0,0,0,.37.36h0a.83.83,0,0,0,.46.1,1.12,1.12,0,0,0,.31-.07,2.14,2.14,0,0,0,.73-.48h0a.65.65,0,0,0,.13.17.55.55,0,0,0,.3.15h.21l.19,0a.91.91,0,0,0,.33-.18,1.74,1.74,0,0,0,.27-.26l0,0a.77.77,0,0,0,.37.32.91.91,0,0,0,.41.06l.21,0a1.48,1.48,0,0,0,.45-.2h0l.09.12a.5.5,0,0,0,.14.1.42.42,0,0,0,.21,0ZM5.27,10l.06-.13.07-.16.09-.2.08-.19,0-.09h0l0-.09a1.3,1.3,0,0,0,0,.2,1.17,1.17,0,0,0,.11.25A.83.83,0,0,0,6,9.77a.73.73,0,0,0,.27.15h-.2L4.64,10H4.53l-.42,0a3.61,3.61,0,0,0,.47-.5.53.53,0,0,0,.2.29.55.55,0,0,0,.35.13Z"/><path class="cls-1" d="M6.63,6h0A.35.35,0,0,0,6.83,6h0L7,6a.73.73,0,0,0,.23-.13l.1-.1.09.09A.46.46,0,0,0,7.68,6h.09a.51.51,0,0,0,.17,0,.92.92,0,0,0,.21-.13l.16-.16h.12l.11,0a.45.45,0,0,0,.11-.1l0,0v0a.37.37,0,0,0,.06.18.3.3,0,0,0,.14.11.33.33,0,0,0,.15,0h0a.51.51,0,0,0,.18-.06.64.64,0,0,0,.17-.14l0,0a.37.37,0,0,0,.1.12.33.33,0,0,0,.2.07h0A.36.36,0,0,0,10,5.71l.1-.08.07.06a.29.29,0,0,0,.17,0h0a.29.29,0,0,0,.16-.06l.11-.1.07-.08v0a.23.23,0,0,0,.06.09l.07.05.08,0h.08a.14.14,0,0,0,.1-.06.19.19,0,0,0,0-.06v0l0-.05,0-.08h0a.28.28,0,0,0,0,.11.35.35,0,0,0,.13.14.16.16,0,0,0,.11,0,.17.17,0,0,0,.12-.07l.18-.25.16-.26c.05-.09.1-.18.14-.27a2.55,2.55,0,0,0,.11-.28.29.29,0,0,0,0-.18A.39.39,0,0,0,12,4.26a.2.2,0,0,0-.11-.08h0a.12.12,0,0,0-.11.12,1.33,1.33,0,0,1-.05.22c0,.08-.05.16-.09.24v0l0-.1v-.1a.15.15,0,0,0,0-.08.14.14,0,0,0-.07-.08l-.07,0h-.1l-.07,0h0l0,0,0,0,0,.05,0,0h0l0,.06v0a.14.14,0,0,0,0-.09.19.19,0,0,0-.06-.08l-.07,0h0l-.08,0h0l-.08,0a.24.24,0,0,0-.09.15v0l-.06,0a.21.21,0,0,0-.14,0h0l-.11,0-.08,0-.07-.05a.37.37,0,0,0-.21-.06h0a.46.46,0,0,0-.19.05.64.64,0,0,0-.17.13l-.13.15a1.13,1.13,0,0,0-.1.18l0,.12a1.35,1.35,0,0,1-.1.19l-.12.16-.07.05a.34.34,0,0,1,0-.07,1.22,1.22,0,0,1,.1-.23l.15-.25a.22.22,0,0,0,0-.2.34.34,0,0,0-.15-.18.17.17,0,0,0-.11,0l-.07,0-.06.07H9A.16.16,0,0,0,9,4.44l-.09,0-.07,0a.22.22,0,0,0-.09.1.32.32,0,0,0,0,.13.28.28,0,0,0,0,.12l0,.13a1.14,1.14,0,0,0,0-.23,1,1,0,0,0-.06-.26.74.74,0,0,0-.14-.23l-.09-.08.07,0h.09l0-.08h0L8.44,4V3.93a.28.28,0,0,0-.13,0h0l-.12,0h0L8,4H7.85l-.2,0-.2.07-.18.1-.2.15a.8.8,0,0,0-.16.21h0a.56.56,0,0,0,0,.12.4.4,0,0,0,0,.14.32.32,0,0,0,.05.14h0L6.79,5a.74.74,0,0,0-.16.18,1.13,1.13,0,0,0-.08.17.91.91,0,0,0-.05.2.54.54,0,0,0,0,.21A.33.33,0,0,0,6.63,6ZM7,5.29H7l0,0,0,0,0,.05L7,5.52l-.07.08-.07,0H6.8v0a.26.26,0,0,1,0-.09.39.39,0,0,1,0-.09l0-.07,0,0L7,5.3Zm.78.29h0l0,0,0-.07,0-.07A3.67,3.67,0,0,0,7.82,5L8,4.63l.08-.15,0-.06v0a.43.43,0,0,1,0,.14,1.17,1.17,0,0,1,0,.19,1.47,1.47,0,0,1,0,.2,1.81,1.81,0,0,1-.05.2A1.53,1.53,0,0,1,8,5.35a.87.87,0,0,1-.09.14.25.25,0,0,1-.11.08ZM7.62,4.34v0h.11l-.1.14A.68.68,0,0,0,7.62,4.34Zm-.33.22,0,.05,0,0,.06-.07,0,0Zm2.56.67A1.18,1.18,0,0,1,9.92,5,.72.72,0,0,1,10,4.81l.06,0h0a.09.09,0,0,1,0,0h0A.54.54,0,0,1,10,5a.73.73,0,0,1-.16.18Zm0,.1,0,0h0a.26.26,0,0,1,0-.06Zm.85-.7,0,0,0,.1-.06.15L10.6,5h0l0,.1-.05.09-.06.09h0l.05-.14L10.54,5l.07-.14.07-.12Z"/><path class="cls-1" d="M13.94,4.8a.14.14,0,0,0-.09-.1h-.14l0,0,0,.1-.05.09L13.53,5h0l.05-.14.06-.13.07-.14.07-.12.05-.09,0-.07-.07-.05a.21.21,0,0,0-.14,0h0l-.11,0-.08,0-.07-.05a.37.37,0,0,0-.21-.06h0a.46.46,0,0,0-.19.05.64.64,0,0,0-.17.13l-.13.15a1.13,1.13,0,0,0-.1.18,1.06,1.06,0,0,0-.07.2.78.78,0,0,0,0,.21h0a.64.64,0,0,0,0,.17.37.37,0,0,0,.12.16.33.33,0,0,0,.2.07h0A.36.36,0,0,0,13,5.49l.1-.08.07.06a.29.29,0,0,0,.17,0h0a.29.29,0,0,0,.16-.06l.11-.1.09-.11.07-.12L13.88,5l.05-.12V4.8Zm-1,.21A1.18,1.18,0,0,1,13,4.81a.72.72,0,0,1,.13-.21l.06,0h0a.09.09,0,0,1,0,0h0a.54.54,0,0,1-.08.22A.73.73,0,0,1,13,5Zm0,.1,0,0h0a.26.26,0,0,1,0-.06Z"/><path class="cls-1" d="M7.8,5.75H7.72a.42.42,0,0,1-.23-.1l-.11-.12-.13.12A.69.69,0,0,1,7,5.78l-.12,0h0a.31.31,0,0,1-.17-.05.29.29,0,0,1-.12-.17.51.51,0,0,1,0-.19.87.87,0,0,1,.05-.19A1.1,1.1,0,0,1,6.7,5a.7.7,0,0,1,.15-.18A.44.44,0,0,1,7,4.78l0,0a.29.29,0,0,1,0-.12.37.37,0,0,1,0-.13.52.52,0,0,1,0-.11.77.77,0,0,1,.15-.2L7.32,4l.18-.09.2-.07.19,0h.2l.15-.07.11,0h0l.13,0,0,0,0,.06-.11,0,0,0A.56.56,0,0,1,8.47,4a.7.7,0,0,1,.13.22.91.91,0,0,1,.05.25,1.1,1.1,0,0,1,0,.25A1.26,1.26,0,0,1,8.58,5a1.31,1.31,0,0,1-.11.23,1.51,1.51,0,0,1-.15.2,1.35,1.35,0,0,1-.17.17.89.89,0,0,1-.2.12A.47.47,0,0,1,7.8,5.75ZM7,5.07H7l-.07,0-.06.05,0,.08a.43.43,0,0,0,0,.1.3.3,0,0,0,0,.1.09.09,0,0,0,0,.06H6.9L7,5.43l.07-.08.07-.09,0-.07,0,0,0-.05-.05,0Zm.63.22,0,.07,0,0,0,0h.05A.28.28,0,0,0,8,5.32a.9.9,0,0,0,.1-.15A1.56,1.56,0,0,0,8.15,5a1.85,1.85,0,0,0,.06-.2,1.51,1.51,0,0,0,0-.21,1.21,1.21,0,0,0,0-.2.47.47,0,0,0,0-.16l-.05-.07-.06.1L8,4.42l-.18.39a3.64,3.64,0,0,1-.2.38h0ZM7.3,4.81l.05,0,.06-.11-.08.06Zm.19-.66a.81.81,0,0,0-.16.13l-.06.08,0,.08a.19.19,0,0,0,0,.07l0,0,.06,0,.06-.06.08-.12.08-.13Zm.12,0a.65.65,0,0,1,0,.24l.08-.12.15-.2H7.78l-.09,0-.17.07Z"/><path class="cls-2" d="M8.35,3.8h0l.11,0h0l-.13,0-.11.08a.52.52,0,0,1,.19.14.65.65,0,0,1,.12.2.85.85,0,0,1,.05.23,1,1,0,0,1,0,.24A1.2,1.2,0,0,1,8.53,5a1.25,1.25,0,0,1-.1.22,1.44,1.44,0,0,1-.14.19l-.17.16a.83.83,0,0,1-.18.11l-.14,0H7.73a.37.37,0,0,1-.2-.09.76.76,0,0,1-.15-.17,1.24,1.24,0,0,1-.17.17.63.63,0,0,1-.2.12l-.11,0h0a.25.25,0,0,1-.14,0,.23.23,0,0,1-.09-.14.45.45,0,0,1,0-.17.81.81,0,0,1,0-.18,1,1,0,0,1,.07-.15.64.64,0,0,1,.14-.16.39.39,0,0,1,.19-.08h0a.26.26,0,0,1,.14,0,.44.44,0,0,1,.13.1l.11-.21.12-.21.13-.21.15-.2L8,4,7.78,4l-.1,0a.71.71,0,0,0-.21.09.86.86,0,0,0-.17.14l-.07.08-.05.09q0,.09,0,.13l0,0,.07,0,.07-.05.06-.06.09-.12.08-.14a.6.6,0,0,1,0,.23.69.69,0,0,1-.09.21l-.07.08-.08.07-.1,0h-.1A.17.17,0,0,1,7,4.71a.23.23,0,0,1,0-.1A.31.31,0,0,1,7,4.5a.46.46,0,0,1,0-.1.71.71,0,0,1,.14-.18l.18-.14L7.52,4l.19-.06.18,0h.21l.15-.08.1,0M7.82,5.48h0A.34.34,0,0,0,8,5.36a1,1,0,0,0,.11-.16A1.61,1.61,0,0,0,8.2,5a1.9,1.9,0,0,0,.06-.21,1.55,1.55,0,0,0,0-.22,1.25,1.25,0,0,0,0-.21.52.52,0,0,0-.05-.18.34.34,0,0,0-.12-.13L8,4.24l-.08.15-.19.39a3.57,3.57,0,0,1-.2.38l0,0,.07.12,0,.07.05.06.07,0h0m-1,.08h.08L7,5.47l.08-.09.07-.1.06-.1,0-.08L7.14,5a.14.14,0,0,0-.09,0H7L7,5l-.09,0-.07.06,0,.09a.48.48,0,0,0,0,.12.35.35,0,0,0,0,.12.14.14,0,0,0,.05.09h.06m1.5-1.87-.12,0h0l-.14.07H7.88l-.2,0-.2.07L7.29,4a1.35,1.35,0,0,0-.2.16.82.82,0,0,0-.16.21h0a.57.57,0,0,0,0,.13.42.42,0,0,0,0,.15.34.34,0,0,0,0,.13l-.1.07A.76.76,0,0,0,6.65,5a1.15,1.15,0,0,0-.08.17.93.93,0,0,0-.06.2.56.56,0,0,0,0,.22.35.35,0,0,0,.13.2h0a.37.37,0,0,0,.2.06h0l.14,0a.74.74,0,0,0,.24-.14l.09-.08.08.08a.48.48,0,0,0,.26.11H7.8a.53.53,0,0,0,.18,0,.94.94,0,0,0,.21-.13,1.4,1.4,0,0,0,.18-.18,1.56,1.56,0,0,0,.15-.21A1.37,1.37,0,0,0,8.64,5a1.32,1.32,0,0,0,.06-.25,1.16,1.16,0,0,0,0-.27,1,1,0,0,0-.06-.26A.76.76,0,0,0,8.51,4l-.06-.06h0l.1-.12h0l-.07-.1a.38.38,0,0,0-.16,0ZM7.67,5.2a3.69,3.69,0,0,0,.19-.37L8,4.44l.08-.16v0a.42.42,0,0,1,0,.13,1.15,1.15,0,0,1,0,.19,1.45,1.45,0,0,1,0,.2A1.8,1.8,0,0,1,8.1,5,1.51,1.51,0,0,1,8,5.15l-.09.14a.23.23,0,0,1-.1.08h0l0,0,0-.07,0-.06Zm-.78,0,0,0,.06,0h.07l0,0v0l0,0L7,5.32l-.07.07-.07,0h0a.24.24,0,0,1,0-.08.37.37,0,0,1,0-.09l0-.06Z"/><path class="cls-1" d="M11.42,5.47a.12.12,0,0,1-.08,0,.32.32,0,0,1-.11-.12.24.24,0,0,1,0-.1,1.22,1.22,0,0,1,0-.2l-.06.12-.06.14,0,.05v0l0,.05a.1.1,0,0,1-.07,0H10.9l-.07,0-.07,0a.19.19,0,0,1-.05-.07.2.2,0,0,1,0-.08s0,0,0-.06l0,.07-.08.11-.1.09a.25.25,0,0,1-.14.05h0a.25.25,0,0,1-.15,0,.27.27,0,0,1-.08-.08l0,0-.1.09a.33.33,0,0,1-.16.05h0a.29.29,0,0,1-.18-.07.33.33,0,0,1-.11-.15v0l-.07.09a.61.61,0,0,1-.16.13.47.47,0,0,1-.16.06h0a.29.29,0,0,1-.13,0,.27.27,0,0,1-.12-.1.33.33,0,0,1-.05-.16.53.53,0,0,1,0-.2l0,.07-.09.13-.1.09-.09,0h0l0-.09A2.51,2.51,0,0,0,8.62,5a2.27,2.27,0,0,0,.16-.38.24.24,0,0,1,0-.11.29.29,0,0,1,0-.12.18.18,0,0,1,.08-.09l.05,0,.07,0A.12.12,0,0,1,9,4.41v0H9l.08,0,.06-.07,0,0a.13.13,0,0,1,.08,0,.3.3,0,0,1,.14.16.19.19,0,0,1,0,.17L9.25,5a1.25,1.25,0,0,0-.1.24.26.26,0,0,0,0,.11v0h0l.09-.07a1.11,1.11,0,0,0,.12-.16,1.4,1.4,0,0,0,.11-.2l0-.12a1.09,1.09,0,0,1,.1-.17l.12-.15a.6.6,0,0,1,.16-.12.43.43,0,0,1,.17-.05h0a.33.33,0,0,1,.19.05l.08.07h0l.09-.06.1,0h0a.18.18,0,0,1,.12,0v.07l-.05.09-.07.13-.07.14-.06.14-.08.22v0h0l.08-.07L10.56,5l.05-.09,0-.1.06-.14.06-.15a1.56,1.56,0,0,0,.06-.17.2.2,0,0,1,.08-.13l.06,0h0l.07,0,.07,0a.15.15,0,0,1,.05.07.1.1,0,0,1,0,.07v0l0,.08,0,.15,0,.08c.06-.12.13-.23.2-.34l.07-.1,0,0,0,0h0l.05,0h.09l.06,0a.11.11,0,0,1,.05.06.11.11,0,0,1,0,.06v.1l0,.1,0,.12,0,.12v.06l.1-.23c0-.09.07-.18.1-.28a1.36,1.36,0,0,0,.05-.23c0-.08.06-.09.08-.09h0a.17.17,0,0,1,.09.07.36.36,0,0,1,.06.12.26.26,0,0,1,0,.15,2.52,2.52,0,0,1-.11.28c0,.09-.09.18-.14.27l-.16.26-.17.25A.13.13,0,0,1,11.42,5.47Zm-1.27-.94h0l-.06.05a.76.76,0,0,0-.14.22,1.22,1.22,0,0,0-.07.26c0,.11,0,.13,0,.13h0l0,0,.06,0,0,0V5a.77.77,0,0,0,.16-.19.58.58,0,0,0,.08-.23.13.13,0,0,0,0-.07s0,0,0,0ZM9,4.7l0,.07,0-.07Z"/><path class="cls-2" d="M11.93,4.08h0a.11.11,0,0,1,.06,0,.3.3,0,0,1,0,.1.2.2,0,0,1,0,.12,2.44,2.44,0,0,1-.11.27l-.14.26-.16.26-.17.24a.08.08,0,0,1-.05,0h0a.27.27,0,0,1-.1-.1.19.19,0,0,1,0-.08,1.19,1.19,0,0,1,0-.28l.06-.28-.09.16L11.16,5l-.07.14L11,5.27l0,0,0,.05v0h-.08l-.06,0-.06,0,0-.05a.14.14,0,0,1,0-.06.53.53,0,0,1,0-.06q0-.08,0-.15s0-.06,0-.1l0,.06-.06.12-.07.11-.08.1-.09.09a.2.2,0,0,1-.11,0h0a.19.19,0,0,1-.12,0,.21.21,0,0,1-.08-.09l0-.06-.07.1-.09.08a.27.27,0,0,1-.13,0h0a.23.23,0,0,1-.15-.05.27.27,0,0,1-.09-.12.54.54,0,0,1,0-.14,1.25,1.25,0,0,1-.14.2.55.55,0,0,1-.14.12.41.41,0,0,1-.14.05h0L9,5.52a.21.21,0,0,1-.09-.08.28.28,0,0,1,0-.13.48.48,0,0,1,0-.19,1.68,1.68,0,0,1,.1-.25,1.81,1.81,0,0,1,.12-.22H9l-.07,0-.05.16L8.78,5l-.08.16-.08.12-.09.08-.07,0h0A2.56,2.56,0,0,0,8.67,5a2.33,2.33,0,0,0,.17-.42.19.19,0,0,1,0-.11.23.23,0,0,1,0-.1.13.13,0,0,1,.05-.06h.07A.07.07,0,0,1,9,4.4a.42.42,0,0,1,0,.1H9l.11,0,.06-.07h0l0,0a.26.26,0,0,1,.12.13.13.13,0,0,1,0,.12l-.16.26a1.31,1.31,0,0,0-.11.25.32.32,0,0,0,0,.13.07.07,0,0,0,0,.06H9.2l.11-.08a1.16,1.16,0,0,0,.13-.17,1.44,1.44,0,0,0,.11-.21l0-.11a1,1,0,0,1,.09-.17l.12-.14a.55.55,0,0,1,.14-.11.37.37,0,0,1,.15,0h0a.27.27,0,0,1,.26.16l.06-.06.07,0,.08,0h0a.12.12,0,0,1,.08,0l-.06.1-.07.13-.07.14-.06.14-.08.23q0,.09,0,.12h.06l0,0,0,0,.09-.08.07-.1.06-.1,0-.1h0l.06-.15.06-.14a1.62,1.62,0,0,0,.06-.18.15.15,0,0,1,.05-.09h.12l.05,0,0,0a0,0,0,0,1,0,0v0l0,.08,0,.16q0,.09-.05.22a2.61,2.61,0,0,0,0,.27L11,5a4.34,4.34,0,0,1,.32-.58l0,0,0-.05,0,0,0,0h.09l.05,0,0,0a.05.05,0,0,1,0,0v0l0,.07,0,.1,0,.12,0,.12V5l0,.13a1.5,1.5,0,0,0,.12-.2l.13-.27q.06-.14.1-.28a1.41,1.41,0,0,0,.06-.24s0,0,0,0M9.87,5.26l.06,0L10,5.17l.08-.08H10a.82.82,0,0,0,.18-.2.63.63,0,0,0,.09-.26.19.19,0,0,0,0-.1.08.08,0,0,0-.08-.05h0l-.07,0L10,4.56a.81.81,0,0,0-.15.24,1.27,1.27,0,0,0-.08.27q0,.14,0,.18l.06,0M11.93,4h0a.14.14,0,0,0-.13.14,1.32,1.32,0,0,1-.05.21h0a.15.15,0,0,0,0-.06.16.16,0,0,0-.08-.09l-.07,0h-.11l-.08,0,0,0,0,0,0,0,0,.05h0l0,0a.15.15,0,0,0,0,0,.21.21,0,0,0-.07-.09l-.07,0h0l-.09,0h0l-.09,0a.25.25,0,0,0-.1.16l0,.08,0-.1a.23.23,0,0,0-.15,0h0l-.12,0-.07,0-.06,0a.39.39,0,0,0-.22-.06h0a.48.48,0,0,0-.19.06.66.66,0,0,0-.17.13l-.13.16a1.15,1.15,0,0,0-.1.18l0,.12a1.33,1.33,0,0,1-.1.18l-.12.15,0,0v0A1.2,1.2,0,0,1,9.3,5l.15-.24a.24.24,0,0,0,.05-.22.36.36,0,0,0-.16-.19.18.18,0,0,0-.12,0l-.08,0,0,0A.18.18,0,0,0,9,4.23a.18.18,0,0,0-.1,0l-.07,0a.24.24,0,0,0-.1.11.34.34,0,0,0,0,.14.29.29,0,0,0,0,.12A2.21,2.21,0,0,1,8.57,5a2.46,2.46,0,0,1-.22.35v.17a.32.32,0,0,0,.12,0l.11,0a.47.47,0,0,0,.12-.1h0a.38.38,0,0,0,.06.16.32.32,0,0,0,.14.12.35.35,0,0,0,.16,0h0a.52.52,0,0,0,.18-.06.66.66,0,0,0,.17-.15l0,0a.39.39,0,0,0,.09.1.35.35,0,0,0,.22.08h0A.38.38,0,0,0,10,5.53l.09-.07.06,0a.3.3,0,0,0,.18,0h0a.31.31,0,0,0,.17-.06l.11-.1,0-.06h0a.25.25,0,0,0,.07.09l.08.05.08,0H11a.16.16,0,0,0,.11-.06.21.21,0,0,0,0-.07v0l0-.05v0l0,.05a.37.37,0,0,0,.13.14.18.18,0,0,0,.12,0,.19.19,0,0,0,.14-.08l.18-.25.17-.26c.05-.09.1-.18.14-.27a2.56,2.56,0,0,0,.11-.28.31.31,0,0,0,0-.19.41.41,0,0,0-.07-.14A.22.22,0,0,0,12,4Zm-1.83.67,0,0h0a.52.52,0,0,1-.08.21A.72.72,0,0,1,9.92,5,1.17,1.17,0,0,1,10,4.84a.7.7,0,0,1,.13-.2Zm.43.3h0l.06-.13.07-.14,0-.06v0l-.06.13h0l0,.09,0,.07Zm-.63.19v0Z"/><path class="cls-1" d="M12.9,5.33h0a.29.29,0,0,1-.18-.07.33.33,0,0,1-.11-.15.6.6,0,0,1,0-.16.75.75,0,0,1,0-.2,1,1,0,0,1,.06-.19,1.09,1.09,0,0,1,.1-.17l.12-.15A.6.6,0,0,1,13,4.11a.43.43,0,0,1,.17-.05h0a.33.33,0,0,1,.19.05l.08.07h0l.09-.06.1,0h0a.18.18,0,0,1,.12,0v.07l-.05.09-.07.13-.07.14-.06.14-.08.22V5h0l.08-.07.07-.09.05-.09,0-.1,0,0h.08a.1.1,0,0,1,.07.07v0l-.05.12-.07.13L13.74,5l-.08.11-.1.09a.25.25,0,0,1-.14.05h0a.25.25,0,0,1-.15,0,.27.27,0,0,1-.08-.08l0,0-.1.09A.33.33,0,0,1,12.9,5.33Zm.34-1h0l-.06.05A.76.76,0,0,0,13,4.6a1.22,1.22,0,0,0-.07.26c0,.11,0,.13,0,.13h0l0,0,.06,0,0,0V4.82a.77.77,0,0,0,.16-.19.58.58,0,0,0,.08-.23.13.13,0,0,0,0-.07s0,0,0,0Z"/><path class="cls-2" d="M13.19,4.12h0a.27.27,0,0,1,.26.16l.06-.06.07,0,.08,0h0a.12.12,0,0,1,.08,0l-.06.1-.07.13-.07.14-.06.14-.08.23q0,.09,0,.12h.06l0,0,0,0,.09-.08.07-.1.06-.1,0-.1h0a0,0,0,0,1,0,0l-.05.12-.06.12L13.7,5l-.08.1-.09.09a.2.2,0,0,1-.11,0h0a.19.19,0,0,1-.12,0,.21.21,0,0,1-.08-.09l0-.06-.07.1L13,5.22a.27.27,0,0,1-.13,0h0a.23.23,0,0,1-.15-.05.27.27,0,0,1-.09-.12.54.54,0,0,1,0-.15.69.69,0,0,1,0-.19,1,1,0,0,1,.06-.18,1,1,0,0,1,.09-.17l.12-.14A.55.55,0,0,1,13,4.16a.37.37,0,0,1,.15,0M13,5,13,5,13.11,5l.08-.08h-.12a.82.82,0,0,0,.18-.2.63.63,0,0,0,.09-.26.19.19,0,0,0,0-.1.08.08,0,0,0-.08-.05h0l-.07,0-.07.06a.81.81,0,0,0-.15.24,1.27,1.27,0,0,0-.08.27q0,.14,0,.18L13,5m.22-1h0a.48.48,0,0,0-.19.06.66.66,0,0,0-.17.13l-.13.16a1.15,1.15,0,0,0-.1.18,1.08,1.08,0,0,0-.07.2.8.8,0,0,0,0,.22h0a.65.65,0,0,0,0,.18.38.38,0,0,0,.12.17.35.35,0,0,0,.22.08h0a.38.38,0,0,0,.18-.06l.09-.07.06,0a.3.3,0,0,0,.18,0h0a.31.31,0,0,0,.17-.06l.11-.1.09-.11.07-.12.07-.13L14,4.68V4.6a.15.15,0,0,0-.11-.11h-.11l-.07.06,0,.09,0,.07h0l.06-.13.07-.14.07-.12.05-.09,0-.15a.23.23,0,0,0-.15,0h0l-.12,0-.07,0-.06,0A.39.39,0,0,0,13.2,4Zm0,.41,0,0h0a.52.52,0,0,1-.08.21.72.72,0,0,1-.14.17,1.17,1.17,0,0,1,.05-.15.7.7,0,0,1,.13-.2Zm-.2.49v0Z"/></svg>