<?xml version="1.0" encoding="utf-8"?>
<!-- Generator: Adobe Illustrator 16.0.0, SVG Export Plug-In . SVG Version: 6.00 Build 0)  -->
<!DOCTYPE svg PUBLIC "-//W3C//DTD SVG 1.1//EN" "http://www.w3.org/Graphics/SVG/1.1/DTD/svg11.dtd">
<svg version="1.1" id="Layer_1" xmlns="http://www.w3.org/2000/svg" xmlns:xlink="http://www.w3.org/1999/xlink" x="0px" y="0px"
	 width="210px" height="60px" viewBox="0 0 210 60" enable-background="new 0 0 210 60" xml:space="preserve">
<g>
	<linearGradient id="SVGID_1_" gradientUnits="userSpaceOnUse" x1="-25.4785" y1="85.3633" x2="58.4067" y2="1.478">
		<stop  offset="0" style="stop-color:#00D1D4"/>
		<stop  offset="0.1182" style="stop-color:#01C2C8"/>
		<stop  offset="0.3447" style="stop-color:#029BA8"/>
		<stop  offset="0.6538" style="stop-color:#055D74"/>
		<stop  offset="0.7886" style="stop-color:#06405C"/>
		<stop  offset="1" style="stop-color:#063856"/>
	</linearGradient>
	<path fill="url(#SVGID_1_)" d="M59.385,52.434c0,3.887-3.18,7.066-7.066,7.066H7.452c-3.887,0-7.066-3.18-7.066-7.066V7.567
		c0-3.887,3.18-7.067,7.066-7.067h44.867c3.887,0,7.066,3.18,7.066,7.067V52.434z"/>
	<path fill="#FFFFFF" d="M36.41,9.235H17.962v0.017l7.247,7.247h11.2v18.194c0,3.138-0.774,5.514-2.32,7.128
		c-1.547,1.614-3.665,2.422-6.355,2.422c-1.749,0-3.105-0.271-4.07-0.808c-0.964-0.538-1.871-1.233-2.723-2.085l-4.843,4.774
		c1.658,1.659,3.396,2.848,5.213,3.565c1.815,0.717,3.956,1.076,6.423,1.076c2.195,0,4.259-0.348,6.187-1.043
		c1.928-0.694,3.621-1.691,5.078-2.992c1.456-1.301,2.6-2.915,3.431-4.843c0.828-1.928,1.244-4.146,1.244-6.658V16.499V9.235H36.41z
		"/>
	<g>
		<path fill="#FFFFFF" d="M89.723,39.185c-0.028,1.188-0.128,2.271-0.3,3.244s-0.459,1.877-0.859,2.707
			c-0.402,0.831-0.975,1.619-1.72,2.363c-1.06,1.061-2.263,1.87-3.609,2.428c-1.348,0.559-2.836,0.839-4.469,0.839
			c-1.634,0-3.116-0.28-4.448-0.839c-1.332-0.558-2.528-1.367-3.588-2.428c-0.745-0.744-1.318-1.532-1.72-2.363
			c-0.4-0.83-0.694-1.733-0.88-2.707c-0.188-0.974-0.295-2.056-0.322-3.244c-0.029-1.189-0.044-2.515-0.044-3.975
			c0-1.462,0.015-2.786,0.044-3.976c0.027-1.188,0.135-2.27,0.322-3.245c0.186-0.973,0.479-1.875,0.88-2.708
			c0.401-0.83,0.975-1.618,1.72-2.363c1.06-1.06,2.256-1.87,3.588-2.428s2.814-0.838,4.448-0.838c1.633,0,3.121,0.28,4.469,0.838
			c1.347,0.559,2.55,1.368,3.609,2.428c0.745,0.745,1.317,1.533,1.72,2.363c0.4,0.832,0.688,1.734,0.859,2.708
			c0.172,0.975,0.271,2.056,0.3,3.245c0.028,1.189,0.044,2.514,0.044,3.976C89.767,36.67,89.751,37.995,89.723,39.185z
			 M85.061,31.362c-0.043-1.015-0.129-1.875-0.258-2.578c-0.129-0.702-0.315-1.29-0.559-1.762c-0.243-0.473-0.552-0.909-0.924-1.311
			c-0.545-0.573-1.21-1.031-1.998-1.375c-0.789-0.344-1.641-0.516-2.557-0.516c-0.918,0-1.77,0.172-2.558,0.516
			c-0.788,0.344-1.454,0.803-1.998,1.375c-0.372,0.402-0.681,0.837-0.924,1.311c-0.243,0.472-0.43,1.06-0.559,1.762
			c-0.129,0.703-0.215,1.563-0.258,2.578c-0.043,1.019-0.064,2.299-0.064,3.848c0,1.547,0.021,2.828,0.064,3.846
			c0.043,1.017,0.129,1.876,0.258,2.578s0.315,1.289,0.559,1.762s0.552,0.91,0.924,1.311c0.544,0.573,1.21,1.031,1.998,1.375
			c0.788,0.345,1.64,0.516,2.558,0.516c0.916,0,1.768-0.171,2.557-0.516c0.788-0.344,1.453-0.802,1.998-1.375
			c0.372-0.4,0.681-0.838,0.924-1.311s0.43-1.06,0.559-1.762s0.215-1.562,0.258-2.578c0.043-1.018,0.064-2.299,0.064-3.846
			C85.125,33.661,85.104,32.381,85.061,31.362z"/>
		<path fill="#FFFFFF" d="M101.97,50.507c-1.031,0-1.927-0.163-2.686-0.493s-1.383-0.767-1.869-1.312
			c-0.487-0.543-0.846-1.182-1.074-1.911c-0.229-0.731-0.344-1.497-0.344-2.3V19.911h4.383v24.323c0,0.831,0.172,1.461,0.516,1.891
			s0.96,0.645,1.848,0.645h1.935v3.738H101.97z"/>
		<path fill="#FFFFFF" d="M109.361,24.423v-4.641h4.642v4.641H109.361z M109.491,50.507V28.721h4.383v21.786H109.491z"/>
		<path fill="#FFFFFF" d="M129.257,50.507h-3.566l-7.993-21.786h4.641l5.157,15.341l5.113-15.341h4.641L129.257,50.507z"/>
		<path fill="#FFFFFF" d="M143.912,40.882c0,1.891,0.471,3.381,1.417,4.47c0.945,1.089,2.32,1.632,4.125,1.632
			c1.232,0,2.229-0.179,2.987-0.536c0.758-0.358,1.525-0.924,2.299-1.698l2.793,2.622c-0.573,0.573-1.139,1.066-1.697,1.482
			s-1.16,0.766-1.805,1.053c-0.645,0.286-1.348,0.501-2.105,0.644c-0.76,0.144-1.611,0.216-2.557,0.216
			c-1.375,0-2.658-0.193-3.848-0.58c-1.19-0.387-2.226-1.018-3.107-1.892c-0.883-0.872-1.584-2.025-2.105-3.459
			c-0.521-1.433-0.78-3.18-0.78-5.242c0-3.553,0.845-6.296,2.535-8.23c1.689-1.933,3.938-2.9,6.747-2.9
			c1.46,0,2.765,0.258,3.91,0.774c1.146,0.516,2.112,1.231,2.9,2.148s1.389,2.02,1.805,3.309c0.415,1.289,0.623,2.708,0.623,4.255
			v1.934H143.912z M153.558,36.219c-0.072-0.415-0.223-0.865-0.451-1.353c-0.344-0.831-0.889-1.497-1.634-1.999
			c-0.745-0.501-1.632-0.752-2.663-0.752s-1.928,0.251-2.687,0.752c-0.76,0.502-1.311,1.168-1.654,1.999
			c-0.229,0.487-0.373,0.938-0.43,1.353c-0.058,0.416-0.101,0.953-0.128,1.612h9.797C153.679,37.172,153.629,36.635,153.558,36.219z
			"/>
		<path fill="#FFFFFF" d="M163.678,24.423v-4.641h4.641v4.641H163.678z M163.806,50.507V28.721h4.383v21.786H163.806z"/>
		<path fill="#FFFFFF" d="M187.14,33.834c-0.487-0.487-0.967-0.853-1.439-1.096c-0.472-0.243-1.082-0.365-1.826-0.365
			c-1.203,0-2.228,0.437-3.073,1.311c-0.845,0.874-1.268,2.07-1.268,3.588v13.235h-4.383V28.721h4.297v2.363
			c0.573-0.774,1.375-1.403,2.407-1.891c1.031-0.487,2.163-0.73,3.395-0.73c1.06,0,2.005,0.158,2.836,0.473
			c0.831,0.315,1.618,0.846,2.364,1.59L187.14,33.834z"/>
		<path fill="#FFFFFF" d="M205.318,50.507V48.53c-0.803,0.803-1.634,1.376-2.493,1.72c-0.858,0.344-1.962,0.516-3.308,0.516
			c-1.376,0-2.53-0.166-3.46-0.495c-0.932-0.328-1.726-0.822-2.386-1.482c-1.146-1.203-1.718-2.764-1.718-4.684
			c0-1.833,0.623-3.337,1.868-4.512c1.247-1.175,3.13-1.762,5.651-1.762h5.758v-1.547c0-1.376-0.364-2.399-1.096-3.073
			c-0.73-0.673-1.955-1.01-3.674-1.01c-1.203,0-2.149,0.157-2.836,0.473c-0.688,0.315-1.332,0.859-1.934,1.633l-2.879-2.707
			c1.031-1.203,2.141-2.027,3.33-2.471c1.188-0.444,2.686-0.667,4.49-0.667c5.987,0,8.981,2.492,8.981,7.477v14.567H205.318z
			 M205.231,40.882h-5.113c-1.289,0-2.264,0.272-2.922,0.816c-0.659,0.545-0.988,1.318-0.988,2.32c0,1.003,0.321,1.769,0.967,2.299
			c0.645,0.531,1.654,0.795,3.029,0.795c0.83,0,1.575-0.064,2.235-0.193c0.658-0.128,1.273-0.479,1.848-1.053
			c0.63-0.629,0.944-1.704,0.944-3.222V40.882z"/>
	</g>
</g>
</svg>
