<?xml version="1.0" encoding="utf-8"?>
<!-- Generator: Adobe Illustrator 16.0.0, SVG Export Plug-In . SVG Version: 6.00 Build 0)  -->
<!DOCTYPE svg PUBLIC "-//W3C//DTD SVG 1.1//EN" "http://www.w3.org/Graphics/SVG/1.1/DTD/svg11.dtd">
<svg version="1.1" id="Layer_1" xmlns="http://www.w3.org/2000/svg" xmlns:xlink="http://www.w3.org/1999/xlink" x="0px" y="0px"
	 width="210px" height="60px" viewBox="0 0 210 60" enable-background="new 0 0 210 60" xml:space="preserve">
<g>
	<g>
		<g>
			<defs>
				<path id="SVGID_1_" d="M59.385,52.434c0,3.887-3.18,7.066-7.066,7.066H7.452c-3.887,0-7.066-3.18-7.066-7.066V7.567
					c0-3.887,3.18-7.067,7.066-7.067h44.867c3.887,0,7.066,3.18,7.066,7.067V52.434z"/>
			</defs>
			<clipPath id="SVGID_2_">
				<use xlink:href="#SVGID_1_"  overflow="visible"/>
			</clipPath>
			<polygon clip-path="url(#SVGID_2_)" fill="#02A2AD" points="0.386,59.219 0.666,59.5 0.386,59.5 			"/>
			<polygon clip-path="url(#SVGID_2_)" fill="#02A1AD" points="0.386,58.307 1.58,59.5 0.666,59.5 0.386,59.219 			"/>
			<polygon clip-path="url(#SVGID_2_)" fill="#02A0AC" points="0.386,57.395 2.492,59.5 1.58,59.5 0.386,58.307 			"/>
			<polygon clip-path="url(#SVGID_2_)" fill="#029FAB" points="0.386,56.482 3.404,59.5 2.492,59.5 0.386,57.395 			"/>
			<polygon clip-path="url(#SVGID_2_)" fill="#029EAA" points="0.386,55.57 4.316,59.5 3.404,59.5 0.386,56.482 			"/>
			<polygon clip-path="url(#SVGID_2_)" fill="#029DA9" points="0.386,54.658 5.228,59.5 4.316,59.5 0.386,55.57 			"/>
			<polygon clip-path="url(#SVGID_2_)" fill="#029CA8" points="0.386,53.746 6.14,59.5 5.228,59.5 0.386,54.658 			"/>
			<polygon clip-path="url(#SVGID_2_)" fill="#029BA8" points="0.386,52.832 7.053,59.5 6.14,59.5 0.386,53.746 			"/>
			<polygon clip-path="url(#SVGID_2_)" fill="#029AA7" points="0.386,51.921 7.965,59.5 7.053,59.5 0.386,52.832 			"/>
			<polygon clip-path="url(#SVGID_2_)" fill="#0299A6" points="0.386,51.008 8.878,59.5 7.965,59.5 0.386,51.921 			"/>
			<polygon clip-path="url(#SVGID_2_)" fill="#0298A5" points="0.386,50.096 9.791,59.5 8.878,59.5 0.386,51.008 			"/>
			<polygon clip-path="url(#SVGID_2_)" fill="#0297A4" points="0.386,49.182 10.702,59.5 9.791,59.5 0.386,50.096 			"/>
			<polygon clip-path="url(#SVGID_2_)" fill="#0296A3" points="0.386,48.27 11.615,59.5 10.702,59.5 0.386,49.182 			"/>
			<polygon clip-path="url(#SVGID_2_)" fill="#0295A2" points="0.386,47.358 12.528,59.5 11.615,59.5 0.386,48.27 			"/>
			<polygon clip-path="url(#SVGID_2_)" fill="#0394A2" points="0.386,46.446 13.44,59.5 12.528,59.5 0.386,47.358 			"/>
			<polygon clip-path="url(#SVGID_2_)" fill="#0393A1" points="0.386,45.533 14.353,59.5 13.44,59.5 0.386,46.446 			"/>
			<polygon clip-path="url(#SVGID_2_)" fill="#0392A0" points="0.386,44.621 15.264,59.5 14.353,59.5 0.386,45.533 			"/>
			<polygon clip-path="url(#SVGID_2_)" fill="#03919F" points="0.386,43.709 16.176,59.5 15.264,59.5 0.386,44.621 			"/>
			<polygon clip-path="url(#SVGID_2_)" fill="#03909E" points="0.386,42.796 17.09,59.5 16.176,59.5 0.386,43.709 			"/>
			<polygon clip-path="url(#SVGID_2_)" fill="#038F9D" points="0.386,41.884 18.002,59.5 17.09,59.5 0.386,42.796 			"/>
			<polygon clip-path="url(#SVGID_2_)" fill="#038E9C" points="0.386,40.972 18.915,59.5 18.002,59.5 0.386,41.884 			"/>
			<polygon clip-path="url(#SVGID_2_)" fill="#038D9B" points="0.386,40.059 19.827,59.5 18.915,59.5 0.386,40.972 			"/>
			<polygon clip-path="url(#SVGID_2_)" fill="#038C9B" points="0.386,39.146 20.739,59.5 19.827,59.5 0.386,40.059 			"/>
			<polygon clip-path="url(#SVGID_2_)" fill="#038B9A" points="0.386,38.233 21.651,59.5 20.739,59.5 0.386,39.146 			"/>
			<polygon clip-path="url(#SVGID_2_)" fill="#038A99" points="0.386,37.321 22.563,59.5 21.651,59.5 0.386,38.233 			"/>
			<polygon clip-path="url(#SVGID_2_)" fill="#038898" points="0.386,36.409 23.477,59.5 22.563,59.5 0.386,37.321 			"/>
			<polygon clip-path="url(#SVGID_2_)" fill="#038797" points="0.386,35.497 24.389,59.5 23.477,59.5 0.386,36.409 			"/>
			<polygon clip-path="url(#SVGID_2_)" fill="#038696" points="0.386,34.584 25.301,59.5 24.389,59.5 0.386,35.497 			"/>
			<polygon clip-path="url(#SVGID_2_)" fill="#038595" points="0.386,33.672 26.213,59.5 25.301,59.5 0.386,34.584 			"/>
			<polygon clip-path="url(#SVGID_2_)" fill="#038494" points="0.386,32.761 27.125,59.5 26.213,59.5 0.386,33.672 			"/>
			<polygon clip-path="url(#SVGID_2_)" fill="#038393" points="0.386,31.847 28.04,59.5 27.125,59.5 0.386,32.761 			"/>
			<polygon clip-path="url(#SVGID_2_)" fill="#038293" points="0.386,30.935 28.952,59.5 28.04,59.5 0.386,31.847 			"/>
			<polygon clip-path="url(#SVGID_2_)" fill="#038192" points="0.386,30.022 29.864,59.5 28.952,59.5 0.386,30.935 			"/>
			<polygon clip-path="url(#SVGID_2_)" fill="#038091" points="0.386,29.11 30.776,59.5 29.864,59.5 0.386,30.022 			"/>
			<polygon clip-path="url(#SVGID_2_)" fill="#037F90" points="0.386,28.198 31.688,59.5 30.776,59.5 0.386,29.11 			"/>
			<polygon clip-path="url(#SVGID_2_)" fill="#037E8F" points="0.386,27.284 32.6,59.5 31.688,59.5 0.386,28.198 			"/>
			<polygon clip-path="url(#SVGID_2_)" fill="#037C8E" points="0.386,26.372 33.512,59.5 32.6,59.5 0.386,27.284 			"/>
			<polygon clip-path="url(#SVGID_2_)" fill="#047B8D" points="0.386,25.46 34.426,59.5 33.512,59.5 0.386,26.372 			"/>
			<polygon clip-path="url(#SVGID_2_)" fill="#047A8C" points="0.386,24.548 35.338,59.5 34.426,59.5 0.386,25.46 			"/>
			<polygon clip-path="url(#SVGID_2_)" fill="#04798B" points="0.386,23.636 36.25,59.5 35.338,59.5 0.386,24.548 			"/>
			<polygon clip-path="url(#SVGID_2_)" fill="#04788A" points="0.386,22.724 37.163,59.5 36.25,59.5 0.386,23.636 			"/>
			<polygon clip-path="url(#SVGID_2_)" fill="#047789" points="0.386,21.812 38.075,59.5 37.163,59.5 0.386,22.724 			"/>
			<polygon clip-path="url(#SVGID_2_)" fill="#047688" points="0.386,20.898 38.988,59.5 38.075,59.5 0.386,21.812 			"/>
			<polygon clip-path="url(#SVGID_2_)" fill="#047588" points="0.386,19.986 39.901,59.5 38.988,59.5 0.386,20.898 			"/>
			<polygon clip-path="url(#SVGID_2_)" fill="#047387" points="0.386,19.073 40.812,59.5 39.901,59.5 0.386,19.986 			"/>
			<polygon clip-path="url(#SVGID_2_)" fill="#047286" points="0.386,18.161 41.724,59.5 40.812,59.5 0.386,19.073 			"/>
			<polygon clip-path="url(#SVGID_2_)" fill="#047185" points="0.386,17.25 42.637,59.5 41.724,59.5 0.386,18.161 			"/>
			<polygon clip-path="url(#SVGID_2_)" fill="#047084" points="0.386,16.335 43.549,59.5 42.637,59.5 0.386,17.25 			"/>
			<polygon clip-path="url(#SVGID_2_)" fill="#046F83" points="0.386,15.423 44.46,59.5 43.549,59.5 0.386,16.335 			"/>
			<polygon clip-path="url(#SVGID_2_)" fill="#046E82" points="0.386,14.511 45.375,59.5 44.46,59.5 0.386,15.423 			"/>
			<polygon clip-path="url(#SVGID_2_)" fill="#046D81" points="0.386,13.599 46.287,59.5 45.375,59.5 0.386,14.511 			"/>
			<polygon clip-path="url(#SVGID_2_)" fill="#046C80" points="0.386,12.687 47.199,59.5 46.287,59.5 0.386,13.599 			"/>
			<polygon clip-path="url(#SVGID_2_)" fill="#046A7F" points="0.386,11.775 48.112,59.5 47.199,59.5 0.386,12.687 			"/>
			<polygon clip-path="url(#SVGID_2_)" fill="#04697E" points="0.386,10.862 49.023,59.5 48.112,59.5 0.386,11.775 			"/>
			<polygon clip-path="url(#SVGID_2_)" fill="#04687D" points="0.386,9.949 49.937,59.5 49.023,59.5 0.386,10.862 			"/>
			<polygon clip-path="url(#SVGID_2_)" fill="#04677C" points="0.386,9.037 50.849,59.5 49.937,59.5 0.386,9.949 			"/>
			<polygon clip-path="url(#SVGID_2_)" fill="#04667B" points="0.386,8.125 51.761,59.5 50.849,59.5 0.386,9.037 			"/>
			<polygon clip-path="url(#SVGID_2_)" fill="#04657A" points="0.386,7.212 52.673,59.5 51.761,59.5 0.386,8.125 			"/>
			<polygon clip-path="url(#SVGID_2_)" fill="#056479" points="0.386,6.299 53.585,59.5 52.673,59.5 0.386,7.212 			"/>
			<polygon clip-path="url(#SVGID_2_)" fill="#056278" points="0.386,5.386 54.498,59.5 53.585,59.5 0.386,6.299 			"/>
			<polygon clip-path="url(#SVGID_2_)" fill="#056177" points="0.386,4.474 55.41,59.5 54.498,59.5 0.386,5.386 			"/>
			<polygon clip-path="url(#SVGID_2_)" fill="#056077" points="0.386,3.563 56.324,59.5 55.41,59.5 0.386,4.474 			"/>
			<polygon clip-path="url(#SVGID_2_)" fill="#055F76" points="0.386,2.65 57.236,59.5 56.324,59.5 0.386,3.563 			"/>
			<polygon clip-path="url(#SVGID_2_)" fill="#055E75" points="0.386,2.504 0.769,2.121 57.763,59.117 57.38,59.5 57.236,59.5 
				0.386,2.65 			"/>
			
				<rect x="29.173" y="-9.911" transform="matrix(-0.7071 0.7071 -0.7071 -0.7071 71.8411 31.0247)" clip-path="url(#SVGID_2_)" fill="#055D74" width="0.645" height="80.605"/>
			
				<rect x="29.629" y="-10.368" transform="matrix(-0.7067 0.7075 -0.7075 -0.7067 72.2968 29.9002)" clip-path="url(#SVGID_2_)" fill="#055B73" width="0.645" height="80.604"/>
			
				<rect x="30.084" y="-10.824" transform="matrix(-0.7079 0.7064 -0.7064 -0.7079 72.7533 28.8667)" clip-path="url(#SVGID_2_)" fill="#055A72" width="0.646" height="80.604"/>
			<polygon clip-path="url(#SVGID_2_)" fill="#055971" points="2.138,0.752 2.391,0.5 2.798,0.5 59.386,57.088 59.386,57.495 
				59.133,57.748 			"/>
			<polygon clip-path="url(#SVGID_2_)" fill="#055870" points="3.71,0.5 59.386,56.176 59.386,57.088 2.798,0.5 			"/>
			<polygon clip-path="url(#SVGID_2_)" fill="#05576F" points="4.623,0.5 59.386,55.264 59.386,56.176 3.71,0.5 			"/>
			<polygon clip-path="url(#SVGID_2_)" fill="#05566E" points="5.535,0.5 59.386,54.35 59.386,55.264 4.623,0.5 			"/>
			<polygon clip-path="url(#SVGID_2_)" fill="#05546D" points="6.447,0.5 59.386,53.438 59.386,54.35 5.535,0.5 			"/>
			<polygon clip-path="url(#SVGID_2_)" fill="#05536C" points="7.359,0.5 59.386,52.525 59.386,53.438 6.447,0.5 			"/>
			<polygon clip-path="url(#SVGID_2_)" fill="#05526B" points="8.273,0.5 59.386,51.613 59.386,52.525 7.359,0.5 			"/>
			<polygon clip-path="url(#SVGID_2_)" fill="#05516A" points="9.185,0.5 59.386,50.701 59.386,51.613 8.273,0.5 			"/>
			<polygon clip-path="url(#SVGID_2_)" fill="#055069" points="10.097,0.5 59.386,49.789 59.386,50.701 9.185,0.5 			"/>
			<polygon clip-path="url(#SVGID_2_)" fill="#054E68" points="11.009,0.5 59.386,48.877 59.386,49.789 10.097,0.5 			"/>
			<polygon clip-path="url(#SVGID_2_)" fill="#054D67" points="11.921,0.5 59.386,47.965 59.386,48.877 11.009,0.5 			"/>
			<polygon clip-path="url(#SVGID_2_)" fill="#064C66" points="12.834,0.5 59.386,47.051 59.386,47.965 11.921,0.5 			"/>
			<polygon clip-path="url(#SVGID_2_)" fill="#064B65" points="13.748,0.5 59.386,46.139 59.386,47.051 12.834,0.5 			"/>
			<polygon clip-path="url(#SVGID_2_)" fill="#064A64" points="14.659,0.5 59.386,45.227 59.386,46.139 13.748,0.5 			"/>
			<polygon clip-path="url(#SVGID_2_)" fill="#064863" points="15.571,0.5 59.386,44.315 59.386,45.227 14.659,0.5 			"/>
			<polygon clip-path="url(#SVGID_2_)" fill="#064762" points="16.484,0.5 59.386,43.4 59.386,44.315 15.571,0.5 			"/>
			<polygon clip-path="url(#SVGID_2_)" fill="#064661" points="17.396,0.5 59.386,42.488 59.386,43.4 16.484,0.5 			"/>
			<polygon clip-path="url(#SVGID_2_)" fill="#064560" points="18.307,0.5 59.386,41.576 59.386,42.488 17.396,0.5 			"/>
			<polygon clip-path="url(#SVGID_2_)" fill="#06445F" points="19.221,0.5 59.386,40.664 59.386,41.576 18.307,0.5 			"/>
			<polygon clip-path="url(#SVGID_2_)" fill="#06425E" points="20.133,0.5 59.386,39.753 59.386,40.664 19.221,0.5 			"/>
			<polygon clip-path="url(#SVGID_2_)" fill="#06415D" points="21.045,0.5 59.386,38.841 59.386,39.753 20.133,0.5 			"/>
			<polygon clip-path="url(#SVGID_2_)" fill="#06405C" points="21.958,0.5 59.386,37.928 59.386,38.841 21.045,0.5 			"/>
			<polygon clip-path="url(#SVGID_2_)" fill="#06405C" points="26.392,0.5 59.386,33.493 59.386,37.928 21.958,0.5 			"/>
			<polygon clip-path="url(#SVGID_2_)" fill="#063F5B" points="30.827,0.5 59.386,29.06 59.386,33.493 26.392,0.5 			"/>
			<polygon clip-path="url(#SVGID_2_)" fill="#063E5A" points="35.26,0.5 59.386,24.626 59.386,29.06 30.827,0.5 			"/>
			<polygon clip-path="url(#SVGID_2_)" fill="#063D59" points="39.693,0.5 59.386,20.191 59.386,24.626 35.26,0.5 			"/>
			<polygon clip-path="url(#SVGID_2_)" fill="#063B59" points="44.126,0.5 59.386,15.757 59.386,20.191 39.693,0.5 			"/>
			<polygon clip-path="url(#SVGID_2_)" fill="#063A58" points="48.561,0.5 59.386,11.323 59.386,15.757 44.126,0.5 			"/>
			<polygon clip-path="url(#SVGID_2_)" fill="#063957" points="52.995,0.5 59.386,6.891 59.386,11.323 48.561,0.5 			"/>
			<polygon clip-path="url(#SVGID_2_)" fill="#063856" points="57.429,0.5 59.386,2.457 59.386,6.891 52.995,0.5 			"/>
			<polygon clip-path="url(#SVGID_2_)" fill="#063856" points="59.386,2.457 57.429,0.5 59.386,0.5 			"/>
		</g>
	</g>
	<g>
		<path fill="#FFFFFF" d="M36.41,9.235H17.962v0.017l7.247,7.247h11.2v18.194c0,3.138-0.774,5.514-2.32,7.128
			c-1.547,1.614-3.665,2.422-6.355,2.422c-1.749,0-3.105-0.27-4.07-0.808c-0.964-0.538-1.871-1.233-2.723-2.085l-4.843,4.774
			c1.658,1.659,3.396,2.848,5.213,3.565c1.815,0.717,3.956,1.076,6.423,1.076c2.195,0,4.259-0.348,6.187-1.043
			c1.928-0.694,3.621-1.691,5.078-2.992c1.456-1.301,2.6-2.915,3.431-4.843c0.828-1.928,1.244-4.146,1.244-6.658V16.499V9.235H36.41
			z"/>
	</g>
	<g>
		<g>
			<path fill="#063856" d="M89.724,39.185c-0.029,1.188-0.129,2.271-0.301,3.244s-0.459,1.877-0.859,2.707
				c-0.402,0.831-0.975,1.619-1.72,2.363c-1.06,1.061-2.263,1.87-3.609,2.428c-1.347,0.559-2.836,0.839-4.469,0.839
				c-1.634,0-3.116-0.28-4.448-0.839c-1.332-0.558-2.528-1.367-3.588-2.428c-0.745-0.744-1.318-1.532-1.72-2.363
				c-0.4-0.83-0.694-1.733-0.88-2.707c-0.188-0.974-0.295-2.056-0.322-3.244c-0.029-1.189-0.044-2.515-0.044-3.975
				c0-1.462,0.015-2.786,0.044-3.976c0.027-1.189,0.135-2.27,0.322-3.245c0.186-0.973,0.479-1.875,0.88-2.708
				c0.401-0.83,0.975-1.618,1.72-2.363c1.06-1.06,2.256-1.87,3.588-2.428s2.814-0.838,4.448-0.838c1.633,0,3.122,0.28,4.469,0.838
				s2.55,1.368,3.609,2.428c0.745,0.745,1.317,1.533,1.72,2.363c0.4,0.832,0.688,1.734,0.859,2.708
				c0.172,0.975,0.271,2.056,0.301,3.245c0.027,1.189,0.043,2.514,0.043,3.976C89.767,36.67,89.751,37.995,89.724,39.185z
				 M85.061,31.362c-0.043-1.015-0.129-1.875-0.258-2.578c-0.129-0.702-0.315-1.29-0.559-1.762
				c-0.243-0.473-0.552-0.909-0.924-1.311c-0.545-0.573-1.21-1.031-1.998-1.375c-0.789-0.344-1.641-0.516-2.557-0.516
				c-0.918,0-1.77,0.172-2.558,0.516c-0.788,0.344-1.454,0.803-1.998,1.375c-0.372,0.402-0.681,0.837-0.924,1.311
				c-0.243,0.472-0.43,1.06-0.559,1.762c-0.129,0.703-0.215,1.563-0.258,2.578c-0.043,1.019-0.064,2.299-0.064,3.848
				c0,1.547,0.021,2.828,0.064,3.846c0.043,1.017,0.129,1.876,0.258,2.578s0.315,1.289,0.559,1.762s0.552,0.91,0.924,1.311
				c0.544,0.573,1.21,1.031,1.998,1.375c0.788,0.345,1.64,0.516,2.558,0.516c0.916,0,1.768-0.171,2.557-0.516
				c0.788-0.344,1.453-0.802,1.998-1.375c0.372-0.4,0.681-0.838,0.924-1.311s0.43-1.06,0.559-1.762s0.215-1.562,0.258-2.578
				c0.043-1.018,0.064-2.299,0.064-3.846C85.125,33.661,85.104,32.381,85.061,31.362z"/>
		</g>
		<g>
			<path fill="#063856" d="M101.97,50.507c-1.031,0-1.927-0.163-2.686-0.493s-1.383-0.767-1.869-1.312
				c-0.487-0.543-0.846-1.182-1.074-1.911c-0.229-0.731-0.344-1.497-0.344-2.3V19.911h4.383v24.323c0,0.831,0.172,1.461,0.516,1.891
				s0.96,0.645,1.848,0.645h1.935v3.738H101.97z"/>
		</g>
		<g>
			<path fill="#063856" d="M109.361,24.423v-4.641h4.642v4.641H109.361z M109.491,50.507V28.72h4.383v21.787H109.491z"/>
		</g>
		<g>
			<path fill="#063856" d="M129.257,50.507h-3.566l-7.993-21.787h4.641l5.157,15.341l5.113-15.341h4.641L129.257,50.507z"/>
		</g>
		<g>
			<path fill="#063856" d="M143.912,40.882c0,1.891,0.471,3.381,1.417,4.47c0.945,1.089,2.32,1.632,4.125,1.632
				c1.232,0,2.229-0.179,2.987-0.536c0.758-0.358,1.525-0.924,2.299-1.698l2.793,2.622c-0.573,0.573-1.139,1.066-1.697,1.482
				s-1.16,0.766-1.805,1.053c-0.645,0.286-1.348,0.501-2.105,0.644c-0.76,0.144-1.611,0.216-2.557,0.216
				c-1.375,0-2.658-0.193-3.848-0.58c-1.19-0.387-2.226-1.018-3.107-1.892c-0.883-0.872-1.584-2.025-2.105-3.459
				c-0.521-1.433-0.78-3.18-0.78-5.242c0-3.553,0.845-6.296,2.535-8.23c1.689-1.933,3.938-2.9,6.747-2.9
				c1.46,0,2.765,0.258,3.91,0.774s2.112,1.231,2.9,2.148s1.389,2.02,1.805,3.309c0.415,1.289,0.623,2.708,0.623,4.255v1.934
				H143.912z M153.558,36.219c-0.072-0.415-0.223-0.865-0.451-1.353c-0.344-0.831-0.889-1.497-1.634-1.999
				c-0.745-0.501-1.632-0.752-2.663-0.752s-1.928,0.251-2.687,0.752c-0.76,0.502-1.311,1.168-1.654,1.999
				c-0.229,0.487-0.373,0.938-0.43,1.353c-0.058,0.416-0.101,0.953-0.128,1.612h9.797C153.679,37.172,153.629,36.635,153.558,36.219
				z"/>
		</g>
		<g>
			<path fill="#063856" d="M163.678,24.423v-4.641h4.641v4.641H163.678z M163.806,50.507V28.72h4.383v21.787H163.806z"/>
		</g>
		<g>
			<path fill="#063856" d="M187.14,33.834c-0.487-0.487-0.967-0.853-1.439-1.096c-0.472-0.243-1.082-0.365-1.826-0.365
				c-1.203,0-2.228,0.437-3.073,1.311c-0.845,0.874-1.268,2.07-1.268,3.588v13.235h-4.383V28.72h4.297v2.364
				c0.573-0.774,1.375-1.403,2.407-1.891c1.031-0.487,2.163-0.73,3.395-0.73c1.06,0,2.005,0.158,2.836,0.473
				c0.831,0.315,1.618,0.846,2.364,1.59L187.14,33.834z"/>
		</g>
		<g>
			<path fill="#063856" d="M205.318,50.507V48.53c-0.803,0.803-1.634,1.376-2.493,1.72c-0.858,0.344-1.962,0.516-3.308,0.516
				c-1.376,0-2.53-0.166-3.46-0.495c-0.932-0.328-1.726-0.822-2.386-1.482c-1.146-1.203-1.718-2.764-1.718-4.684
				c0-1.833,0.623-3.337,1.868-4.512c1.247-1.175,3.13-1.762,5.651-1.762h5.758v-1.547c0-1.376-0.364-2.399-1.096-3.073
				c-0.73-0.673-1.955-1.01-3.674-1.01c-1.203,0-2.149,0.157-2.836,0.473c-0.688,0.315-1.332,0.859-1.934,1.633l-2.879-2.707
				c1.031-1.203,2.141-2.027,3.33-2.471c1.188-0.444,2.686-0.667,4.49-0.667c5.987,0,8.981,2.492,8.981,7.477v14.567H205.318z
				 M205.231,40.882h-5.113c-1.289,0-2.264,0.272-2.922,0.816c-0.659,0.545-0.988,1.318-0.988,2.32c0,1.003,0.321,1.769,0.967,2.299
				c0.645,0.531,1.654,0.795,3.029,0.795c0.83,0,1.575-0.064,2.235-0.193c0.658-0.128,1.273-0.479,1.848-1.053
				c0.63-0.629,0.944-1.704,0.944-3.222V40.882z"/>
		</g>
	</g>
</g>
</svg>
