<?xml version="1.0" encoding="utf-8"?>
<!-- Generator: Adobe Illustrator 16.0.0, SVG Export Plug-In . SVG Version: 6.00 Build 0)  -->
<!DOCTYPE svg PUBLIC "-//W3C//DTD SVG 1.1//EN" "http://www.w3.org/Graphics/SVG/1.1/DTD/svg11.dtd">
<svg version="1.1" id="Layer_1" xmlns="http://www.w3.org/2000/svg" xmlns:xlink="http://www.w3.org/1999/xlink" x="0px" y="0px"
	 width="75px" height="45px" viewBox="0 0 75 45" enable-background="new 0 0 75 45" xml:space="preserve">
<g>
	<g>
		<g>
			<rect x="4.166" y="95.719" fill="#58595B" width="13.331" height="13.334"/>
		</g>
		<g>
			<path fill="#FFFFFF" d="M13.505,97.232v4.93c0,2.072-0.957,3.505-2.993,3.505c-1.526,0-2.782-1.162-2.935-2.64l1.455-0.145
				c0.156,0.697,0.675,1.197,1.431,1.197c0.831,0,1.339-0.629,1.339-1.435v-5.413H13.505z"/>
		</g>
	</g>
	<g>
		<g>
			<rect x="17.497" y="109.053" fill="#58595B" width="13.337" height="13.328"/>
		</g>
		<g>
			<path fill="#FFFFFF" d="M27.865,116c0,1.916-1.281,3.443-3.703,3.443c-2.416,0-3.684-1.52-3.684-3.443v-4.991h1.658v4.549
				c0,1.578,0.697,2.324,2.025,2.324c1.346,0,2.041-0.763,2.041-2.324v-4.549h1.662L27.865,116L27.865,116z"/>
		</g>
	</g>
	<g>
		<g>
			<rect x="30.834" y="109.053" fill="#58595B" width="13.328" height="13.328"/>
		</g>
		<g>
			<path fill="#FFFFFF" d="M41.248,110.564v8.34h-0.83l-4.975-5.25v5.25h-1.697v-8.34h0.832l4.975,5.252v-5.252H41.248z"/>
		</g>
	</g>
	<g>
		<g>
			<rect x="44.162" y="122.381" fill="#58595B" width="13.336" height="13.338"/>
		</g>
		<g>
			<path fill="#FFFFFF" d="M51.693,132.236h-1.715v-8.332h1.715V132.236z"/>
		</g>
	</g>
	<g>
		<g>
			<rect x="44.162" y="95.719" fill="#58595B" width="13.336" height="13.334"/>
		</g>
		<g>
			<path fill="#FFFFFF" d="M55.252,101.406c0,2.354-1.973,4.261-4.434,4.261c-2.441,0-4.432-1.907-4.432-4.261
				c0-2.358,1.989-4.258,4.432-4.258C53.279,97.148,55.252,99.049,55.252,101.406z M53.533,101.406c0-1.467-1.219-2.672-2.715-2.672
				c-1.492,0-2.697,1.205-2.697,2.672c0,1.478,1.205,2.674,2.697,2.674C52.314,104.08,53.533,102.884,53.533,101.406z"/>
		</g>
	</g>
	<g>
		<g>
			<rect x="57.498" y="109.053" fill="#58595B" width="13.336" height="13.328"/>
		</g>
		<g>
			<path fill="#FFFFFF" d="M64.432,116.753c-0.096,0.007-0.215,0.007-0.315,0.007h-1.56v2.145h-1.684v-8.34h3.676
				c2.436,0,3.268,1.442,3.268,3.004c0,1.43-0.594,2.375-1.694,2.853l1.942,2.483h-2.03L64.432,116.753z M62.557,115.365h1.494
				c1.354,0,1.982-0.682,1.982-1.664c0-0.863-0.439-1.674-1.758-1.674h-1.719V115.365L62.557,115.365z"/>
		</g>
	</g>
</g>
<g>
	<g>
		<rect x="4.167" y="2.5" fill="#060912" width="13.333" height="13.333"/>
	</g>
	<g>
		<path fill="#0AE0E5" d="M13.797,4.949v4.934c0,2.071-0.958,3.502-2.993,3.502c-1.526,0-2.78-1.159-2.934-2.638l1.455-0.142
			c0.153,0.698,0.674,1.195,1.432,1.195c0.828,0,1.337-0.627,1.337-1.431V4.949H13.797z"/>
	</g>
	<g>
		<rect x="17.5" y="15.833" fill="#060912" width="13.333" height="13.333"/>
	</g>
	<g>
		<path fill="#0AE0E5" d="M27.858,23.275c0,1.916-1.278,3.442-3.703,3.442c-2.414,0-3.68-1.515-3.68-3.442v-4.993h1.656v4.555
			c0,1.574,0.698,2.319,2.023,2.319c1.349,0,2.047-0.758,2.047-2.319v-4.555h1.656V23.275z"/>
	</g>
	<g>
		<rect x="30.833" y="15.833" fill="#060912" width="13.334" height="13.333"/>
	</g>
	<g>
		<path fill="#0AE0E5" d="M41.25,18.33v8.341h-0.828l-4.98-5.254v5.254H33.75V18.33h0.828l4.969,5.253V18.33H41.25z"/>
	</g>
	<g>
		<rect x="44.167" y="29.167" fill="#060912" width="13.333" height="13.333"/>
	</g>
	<g>
		<path fill="#0AE0E5" d="M51.686,40.004h-1.704v-8.341h1.704V40.004z"/>
	</g>
	<g>
		<rect x="44.167" y="2.5" fill="#060912" width="13.333" height="13.333"/>
	</g>
	<g>
		<path fill="#0AE0E5" d="M55.27,9.167c0,2.354-1.976,4.259-4.437,4.259c-2.448,0-4.437-1.905-4.437-4.259
			c0-2.354,1.988-4.259,4.437-4.259C53.294,4.908,55.27,6.813,55.27,9.167z M53.543,9.167c0-1.467-1.219-2.674-2.71-2.674
			c-1.49,0-2.697,1.207-2.697,2.674c0,1.479,1.207,2.674,2.697,2.674C52.324,11.84,53.543,10.646,53.543,9.167z"/>
	</g>
	<g>
		<rect x="57.5" y="15.833" fill="#060912" width="13.333" height="13.333"/>
	</g>
	<g>
		<path fill="#0AE0E5" d="M64.131,24.518c-0.095,0.012-0.213,0.012-0.319,0.012h-1.55v2.142H60.57V18.33h3.679
			c2.438,0,3.266,1.443,3.266,3.005c0,1.432-0.592,2.378-1.691,2.851l1.94,2.485H65.74L64.131,24.518z M62.262,23.133h1.491
			c1.349,0,1.987-0.687,1.987-1.668c0-0.863-0.45-1.668-1.763-1.668h-1.716V23.133z"/>
	</g>
</g>
</svg>
