<?xml version="1.0" encoding="utf-8"?>
<!-- Generator: Adobe Illustrator 16.0.0, SVG Export Plug-In . SVG Version: 6.00 Build 0)  -->
<!DOCTYPE svg PUBLIC "-//W3C//DTD SVG 1.1//EN" "http://www.w3.org/Graphics/SVG/1.1/DTD/svg11.dtd">
<svg version="1.1" id="Layer_1" xmlns="http://www.w3.org/2000/svg" xmlns:xlink="http://www.w3.org/1999/xlink" x="0px" y="0px"
	 width="125.677px" height="36.667px" viewBox="0 0 125.677 36.667" enable-background="new 0 0 125.677 36.667"
	 xml:space="preserve">
<g>
	<linearGradient id="SVGID_1_" gradientUnits="userSpaceOnUse" x1="-14.6533" y1="51.2407" x2="35.109" y2="1.4784">
		<stop  offset="0" style="stop-color:#00D1D4"/>
		<stop  offset="0.1182" style="stop-color:#01C2C8"/>
		<stop  offset="0.3447" style="stop-color:#029BA8"/>
		<stop  offset="0.6538" style="stop-color:#055D74"/>
		<stop  offset="0.7886" style="stop-color:#06405C"/>
		<stop  offset="1" style="stop-color:#063856"/>
	</linearGradient>
	<path fill="url(#SVGID_1_)" d="M35.689,31.706c0,2.306-1.886,4.192-4.192,4.192H4.881c-2.306,0-4.192-1.887-4.192-4.192V5.09
		c0-2.306,1.886-4.192,4.192-4.192h26.616c2.306,0,4.192,1.886,4.192,4.192V31.706z"/>
	<path fill="#FFFFFF" d="M21.089,9.169H12.89v0.008l3.221,3.221h4.978v8.086c0,1.395-0.344,2.451-1.031,3.168
		c-0.687,0.718-1.629,1.076-2.824,1.076c-0.777,0-1.38-0.119-1.809-0.358c-0.429-0.239-0.832-0.548-1.21-0.928l-2.152,2.123
		c0.737,0.736,1.509,1.265,2.316,1.584c0.808,0.319,1.758,0.478,2.855,0.478c0.975,0,1.893-0.154,2.75-0.463
		c0.856-0.309,1.609-0.752,2.256-1.33c0.647-0.577,1.156-1.295,1.524-2.151c0.368-0.857,0.553-1.844,0.553-2.959v-8.325V9.169
		H21.089z"/>
	<g>
		<path fill="#063856" d="M53.687,20.756c-0.017,0.705-0.076,1.347-0.178,1.925c-0.102,0.577-0.272,1.113-0.51,1.605
			c-0.238,0.493-0.578,0.961-1.02,1.402c-0.629,0.629-1.342,1.109-2.141,1.44c-0.799,0.331-1.683,0.497-2.651,0.497
			s-1.848-0.166-2.638-0.497c-0.791-0.331-1.5-0.812-2.128-1.44c-0.442-0.441-0.782-0.909-1.02-1.402
			c-0.238-0.492-0.412-1.028-0.522-1.605c-0.111-0.578-0.175-1.22-0.191-1.925c-0.017-0.705-0.025-1.491-0.025-2.357
			c0-0.867,0.008-1.653,0.025-2.359c0.017-0.704,0.081-1.347,0.191-1.925c0.11-0.577,0.284-1.112,0.522-1.605
			c0.238-0.492,0.578-0.96,1.02-1.402c0.628-0.628,1.338-1.108,2.128-1.439c0.79-0.332,1.669-0.498,2.638-0.498
			s1.852,0.166,2.651,0.498c0.799,0.331,1.512,0.812,2.141,1.439c0.442,0.442,0.782,0.91,1.02,1.402
			c0.237,0.493,0.408,1.028,0.51,1.605c0.102,0.578,0.161,1.221,0.178,1.925c0.017,0.706,0.026,1.492,0.026,2.359
			C53.712,19.265,53.703,20.051,53.687,20.756z M50.921,16.117c-0.026-0.604-0.077-1.113-0.153-1.529
			c-0.076-0.417-0.187-0.766-0.331-1.046c-0.145-0.28-0.328-0.539-0.548-0.777c-0.323-0.34-0.718-0.611-1.185-0.815
			c-0.468-0.204-0.973-0.306-1.517-0.306s-1.049,0.102-1.517,0.306c-0.468,0.204-0.863,0.476-1.186,0.815
			c-0.221,0.238-0.404,0.497-0.548,0.777c-0.145,0.28-0.255,0.629-0.332,1.046c-0.076,0.416-0.127,0.926-0.153,1.529
			s-0.039,1.363-0.039,2.282c0,0.917,0.013,1.678,0.039,2.281s0.077,1.113,0.153,1.529c0.077,0.417,0.187,0.765,0.332,1.045
			c0.144,0.28,0.327,0.54,0.548,0.777c0.323,0.341,0.718,0.612,1.186,0.816c0.467,0.204,0.973,0.306,1.517,0.306
			s1.049-0.102,1.517-0.306c0.467-0.204,0.862-0.476,1.185-0.816c0.221-0.237,0.404-0.497,0.548-0.777
			c0.144-0.28,0.255-0.628,0.331-1.045c0.077-0.416,0.127-0.926,0.153-1.529c0.025-0.604,0.038-1.364,0.038-2.281
			C50.959,17.48,50.946,16.72,50.921,16.117z"/>
		<path fill="#063856" d="M60.952,27.473c-0.612,0-1.143-0.097-1.593-0.293c-0.45-0.195-0.82-0.454-1.109-0.777
			c-0.289-0.322-0.501-0.701-0.637-1.134c-0.136-0.434-0.204-0.889-0.204-1.364V9.323h2.6v14.429c0,0.493,0.102,0.867,0.306,1.122
			s0.569,0.382,1.096,0.382h1.147v2.218H60.952z"/>
		<path fill="#063856" d="M65.336,12V9.247h2.753V12H65.336z M65.413,27.473V14.549h2.601v12.924H65.413z"/>
		<path fill="#063856" d="M77.139,27.473h-2.116l-4.741-12.924h2.753l3.059,9.101l3.034-9.101h2.753L77.139,27.473z"/>
		<path fill="#063856" d="M85.832,21.763c0,1.122,0.28,2.006,0.841,2.651c0.562,0.646,1.377,0.969,2.448,0.969
			c0.73,0,1.32-0.106,1.771-0.318c0.45-0.213,0.904-0.548,1.363-1.008l1.657,1.556c-0.34,0.34-0.676,0.633-1.007,0.88
			c-0.331,0.246-0.688,0.454-1.07,0.624c-0.383,0.17-0.8,0.298-1.25,0.382c-0.45,0.085-0.955,0.128-1.517,0.128
			c-0.815,0-1.576-0.114-2.282-0.344s-1.319-0.604-1.844-1.122c-0.522-0.518-0.939-1.202-1.248-2.052
			c-0.31-0.851-0.464-1.887-0.464-3.11c0-2.107,0.502-3.734,1.504-4.882c1.003-1.147,2.337-1.721,4.003-1.721
			c0.867,0,1.64,0.153,2.32,0.459c0.679,0.306,1.253,0.73,1.72,1.274c0.468,0.544,0.824,1.198,1.071,1.963
			c0.246,0.765,0.369,1.606,0.369,2.524v1.146H85.832z M91.554,18.998c-0.042-0.246-0.132-0.514-0.268-0.803
			c-0.204-0.493-0.526-0.888-0.969-1.186c-0.441-0.298-0.969-0.446-1.58-0.446c-0.612,0-1.144,0.148-1.594,0.446
			s-0.777,0.692-0.981,1.186c-0.136,0.289-0.221,0.557-0.255,0.803s-0.06,0.565-0.076,0.956h5.813
			C91.626,19.563,91.597,19.244,91.554,18.998z"/>
		<path fill="#063856" d="M97.558,12V9.247h2.753V12H97.558z M97.634,27.473V14.549h2.6v12.924H97.634z"/>
		<path fill="#063856" d="M111.476,17.583c-0.289-0.289-0.573-0.506-0.854-0.65c-0.28-0.144-0.642-0.216-1.084-0.216
			c-0.714,0-1.321,0.259-1.822,0.777c-0.502,0.519-0.752,1.228-0.752,2.128v7.852h-2.601V14.549h2.55v1.401
			c0.34-0.459,0.815-0.832,1.427-1.121c0.612-0.289,1.283-0.434,2.015-0.434c0.628,0,1.189,0.093,1.683,0.28
			c0.492,0.188,0.96,0.501,1.401,0.943L111.476,17.583z"/>
		<path fill="#063856" d="M122.259,27.473V26.3c-0.476,0.477-0.969,0.816-1.479,1.021s-1.164,0.306-1.963,0.306
			c-0.815,0-1.5-0.099-2.052-0.293c-0.553-0.195-1.024-0.488-1.415-0.88c-0.68-0.714-1.02-1.64-1.02-2.778
			c0-1.088,0.369-1.979,1.108-2.677c0.739-0.696,1.856-1.045,3.353-1.045h3.416v-0.918c0-0.815-0.217-1.423-0.65-1.823
			c-0.434-0.398-1.159-0.599-2.18-0.599c-0.714,0-1.274,0.094-1.682,0.28c-0.408,0.188-0.791,0.51-1.147,0.969l-1.708-1.605
			c0.611-0.714,1.27-1.203,1.976-1.466c0.705-0.264,1.593-0.396,2.664-0.396c3.552,0,5.327,1.479,5.327,4.436v8.642H122.259z
			 M122.208,21.763h-3.034c-0.765,0-1.342,0.162-1.732,0.484c-0.392,0.323-0.587,0.782-0.587,1.377s0.191,1.049,0.573,1.363
			c0.383,0.315,0.981,0.472,1.798,0.472c0.492,0,0.934-0.038,1.325-0.114c0.391-0.076,0.756-0.284,1.097-0.625
			c0.373-0.373,0.561-1.011,0.561-1.911V21.763z"/>
	</g>
</g>
</svg>
